<svg width="122" height="80" viewBox="0 0 122 80" fill="none" xmlns="http://www.w3.org/2000/svg">
<path d="M53.7436 30.0354C53.6719 29.976 53.7 30.0188 53.7436 30.0285C56.2766 30.6777 57.4812 32.0464 57.5642 34.3917C57.6571 36.9952 56.461 38.8115 54.0462 39.5891C51.6486 40.3699 49.0665 40.4214 46.6386 39.7369C45.3115 39.375 44.7979 38.5877 44.7965 37.219C44.7909 33.0063 44.7909 28.7933 44.7965 24.5797C44.7965 23.4748 44.5291 23.2275 43.4245 23.3532C42.4507 23.4637 41.55 23.7828 40.8 24.4223C40.285 24.8615 39.9557 25.4043 40.026 26.1128C40.1119 26.9084 40.7296 27.2371 41.4332 26.8145C41.9483 26.5037 42.4267 26.1128 42.9812 26.7109C43.4034 27.1667 43.3611 28.1542 42.9277 28.7136C42.3775 29.4249 41.346 29.6956 40.3103 29.4042C39.3013 29.1183 38.6695 28.3421 38.5836 27.2882C38.426 25.3159 39.428 23.8118 41.4347 23.0065C43.3555 22.2331 45.3847 21.9845 47.4252 21.9817C49.1955 21.9817 51.0094 21.9914 52.729 22.3491C56.2583 23.0825 56.6411 26.0603 55.6842 27.8863C55.2451 28.6915 54.4191 29.302 53.7436 30.0354ZM49.2701 30.2757C49.6458 30.0257 49.8541 29.7813 50.0919 29.7467C51.0235 29.6086 51.6483 29.128 51.9832 28.2923C52.4813 27.0493 52.5545 25.7565 52.0662 24.5176C51.8361 23.9712 51.4438 23.5053 50.9404 23.1806C49.9047 22.5411 48.952 23.1253 48.952 24.3214C48.952 28.7661 48.952 33.2098 48.952 37.6527C48.952 38.7991 49.3742 39.2286 50.5267 39.1167C50.9862 39.0628 51.4231 38.8908 51.7932 38.6181C52.8472 37.8308 53.2905 36.6927 53.4087 35.4414C53.6184 33.1887 52.601 31.3531 50.8068 30.6998C50.3958 30.5451 49.961 30.4622 49.2701 30.2757Z" fill="black"/>
<path d="M70.8414 22.6322C71.711 21.4361 73.7965 20.8754 75.063 21.3284C75.685 21.5522 76.1156 21.9637 76.1452 22.6391C76.1944 23.7883 76.2127 24.9374 76.2254 26.0921C76.2395 27.4498 76.2324 28.8089 76.2367 30.1666C76.2535 30.2543 76.277 30.3407 76.307 30.4249C76.4928 30.2246 76.6251 30.0644 76.7742 29.9235C77.4483 29.2896 78.0829 28.6045 78.8161 28.0451C79.5197 27.5092 80.388 27.3421 81.2872 27.4747C82.4017 27.6377 83.2685 28.628 83.2868 29.813C83.315 31.6196 82.3918 32.9069 80.9058 33.8641C80.6567 34.0257 80.3429 34.1155 80.547 34.5353C81.9134 37.2425 83.3108 39.9399 85.6453 41.9938C86.2504 42.5255 87.0638 42.8611 87.8279 43.1774C88.153 43.3155 88.6005 43.1526 88.9917 43.1553C89.1351 43.1802 89.2738 43.2268 89.4026 43.2935C89.3465 43.4253 89.2752 43.5504 89.1901 43.6664C89.0991 43.7389 88.9937 43.7921 88.8805 43.8224C86.249 44.8473 83.322 44.705 81.1648 42.3183C79.1552 40.0946 77.8944 37.4538 76.7306 34.7591C76.6602 34.5933 76.8066 34.255 76.9586 34.0947C77.6622 33.3558 78.4882 32.7135 79.0863 31.9138C79.5211 31.3296 79.7561 30.5575 79.9137 29.8351C80.0545 29.1777 79.5479 28.86 78.9019 29.1169C78.6834 29.2006 78.4849 29.3281 78.3193 29.4912C77.1119 30.7495 76.103 32.0754 76.2085 33.9663C76.2958 35.5035 76.2324 37.0505 76.2226 38.5933C76.2226 39.5767 75.8004 40.0311 74.8154 40.1443C74.4657 40.1814 74.1131 40.1846 73.7628 40.154C72.796 40.0739 72.3879 39.6361 72.3879 38.6789C72.3879 33.7748 72.3879 28.8706 72.3879 23.9665C72.3966 23.7362 72.3919 23.5056 72.3738 23.2759C72.2978 22.6129 71.97 22.403 71.3212 22.5715C71.1626 22.601 71.0024 22.6213 70.8414 22.6322Z" fill="black"/>
<path d="M105.618 28.9595C105.566 29.2481 105.527 29.5396 105.458 29.8227C105.394 30.081 105.299 30.3324 105.193 30.6514C105.004 30.5243 104.871 30.4732 104.799 30.3752C104.28 29.6846 103.853 29.5106 103.061 29.8545C102.446 30.1362 101.867 30.4891 101.337 30.9056C101.149 31.0437 101.064 31.4221 101.056 31.6901C101.042 34.016 101.056 36.3461 101.056 38.6665C101.056 39.6333 100.674 40.0476 99.6894 40.1429C99.3394 40.1782 98.9867 40.1782 98.6368 40.1429C97.6517 40.038 97.2295 39.578 97.2295 38.5919C97.223 35.7835 97.223 32.975 97.2295 30.1666C97.2295 29.9829 97.2295 29.7978 97.2295 29.6141C97.1944 28.8614 96.8848 28.6473 96.1446 28.8393C96.0029 28.8505 95.8603 28.8389 95.7224 28.8048C95.7703 28.6915 95.7857 28.5285 95.8716 28.4705C96.9706 27.668 98.1921 27.2426 99.5641 27.523C100.677 27.7495 100.95 28.6473 101.112 29.7606C101.276 29.5479 101.454 29.3459 101.644 29.1556C102.253 28.6294 102.819 28.0147 103.518 27.6432C103.908 27.436 104.527 27.6432 105.044 27.6694C105.315 27.686 105.593 27.7882 105.856 27.7564C106.431 27.6846 106.996 27.4926 107.571 27.454C108.758 27.3752 109.658 27.8849 110.245 28.9028C111.533 31.1445 112.274 33.5989 113.047 36.0325C113.22 36.5753 113.396 37.1154 113.61 37.7922C114.372 36.2874 114.884 34.6719 115.124 33.0077C115.336 31.5409 115.405 30.0796 114.842 28.6501C114.574 27.9595 114.776 27.6584 115.484 27.4982C116.338 27.3048 116.831 27.552 116.891 28.2744C116.946 28.9638 116.951 29.6561 116.907 30.3462C116.594 35.1569 115.129 39.5159 111.549 42.9799C109.899 44.5752 107.943 45.629 105.538 45.571C105.048 45.5538 104.566 45.4402 104.122 45.2368C103.464 44.9371 103.278 44.2188 103.608 43.5918C103.903 43.0324 104.54 42.7368 105.002 43.4937C105.65 44.5586 106.071 44.6677 107.283 44.3031C108.646 43.8887 109.72 43.0407 110.685 42.0518C110.758 41.9583 110.809 41.8499 110.833 41.7346C110.857 41.6194 110.855 41.5002 110.826 41.386C109.606 37.8875 108.386 34.3875 107.103 30.9097C106.832 30.1804 106.309 29.5409 105.902 28.8586L105.618 28.9595Z" fill="black"/>
<path d="M70.536 38.1913C70.6176 38.8405 69.755 39.6955 68.7375 40.0352C67.3134 40.5104 66.3002 40.0601 65.2519 38.3612C65.1111 38.6043 65.0239 38.8971 64.8297 39.0808C63.7869 40.0684 62.5247 40.364 61.1273 40.0684C60.7111 39.9847 60.3221 39.8026 59.994 39.5378C59.6658 39.273 59.4085 38.9336 59.2444 38.5491C58.2833 36.5021 59.198 34.3378 61.4791 33.3378C62.3347 32.9635 63.224 32.668 64.0853 32.3061C65.0239 31.9111 65.4925 31.063 65.3602 30.0796C65.2589 29.3075 64.7607 28.6722 64.0515 28.5382C63.1959 28.3766 62.3628 28.4388 61.6888 29.0907C61.4073 29.3559 61.4988 29.5948 61.8295 29.7316C62.4219 29.9746 62.8835 30.3158 62.6738 31.0257C62.5007 31.6252 62.0223 31.9055 61.4073 31.9387C61.0883 31.9482 60.7749 31.8553 60.5145 31.6741C60.2542 31.4928 60.0613 31.2332 59.9649 30.9346C59.6413 30.0479 59.9776 29.0299 60.798 28.4139C62.5528 27.0976 66.1567 27.1032 67.9059 28.4346C68.7812 29.1004 69.1836 29.9981 69.1836 31.0755C69.1836 33.1693 69.1836 35.2637 69.1836 37.3585C69.185 38.7632 69.2765 38.8239 70.536 38.1913ZM65.3433 35.306C65.3433 34.824 65.3433 34.3392 65.3433 33.8613C65.3433 33.324 65.045 33.1251 64.537 33.1583C64.2311 33.1759 63.9352 33.2713 63.6781 33.435C63.4211 33.5986 63.2118 33.825 63.0707 34.092C62.4022 35.2411 62.4008 36.4662 62.8371 37.6831C63.1185 38.4607 64.0008 38.6844 64.589 38.0974C64.9521 37.7342 65.1787 37.1858 65.318 36.6817C65.4376 36.248 65.3433 35.7646 65.3433 35.306Z" fill="black"/>
<path d="M84.6672 34.1514C84.6672 30.0589 88.0812 26.9692 92.0172 27.5078C92.6868 27.6011 93.3259 27.843 93.8859 28.215C95.0736 29.0299 95.0441 30.5893 93.8198 31.4125C92.6448 32.2039 91.3825 32.871 90.161 33.592L89.7389 33.8392C88.5216 34.545 88.4724 34.6956 89.0564 36.0049C89.9007 37.9027 91.6668 38.8861 93.3582 38.3377C93.855 38.1761 94.2856 37.8212 94.757 37.5753C94.9313 37.5044 95.1123 37.4507 95.2974 37.4151C95.2495 37.6099 95.2622 37.8502 95.1468 37.9911C93.5989 39.8723 90.8407 40.6416 88.4667 39.8736C86.2616 39.1596 84.808 37.1444 84.6968 34.6444C84.6855 34.4607 84.6743 34.2743 84.6672 34.1514ZM88.592 33.3586C89.3139 32.958 89.9204 32.6252 90.5241 32.2854C91.7216 31.6114 91.9989 30.5326 91.2812 29.3448C90.7844 28.5161 89.8852 28.4622 89.3603 29.2785C88.5807 30.4912 88.5484 31.8572 88.592 33.3586Z" fill="black"/>
<path d="M18.1941 62.3414C18.2574 63.6107 17.7931 64.4615 16.8038 64.887C15.8145 65.3124 14.8646 65.1024 13.9443 64.1964C11.5028 61.8124 9.07531 59.4119 6.63097 57.0294C6.08556 56.5162 5.75826 55.8195 5.71487 55.0791C5.53052 52.6717 5.32788 50.2657 5.12384 47.8583C5.02814 46.7146 5.47142 45.8763 6.43959 45.4177C7.37398 44.9743 8.4097 45.1415 9.21322 45.926C11.7589 48.4121 14.3088 50.8817 16.8024 53.412C17.2176 53.8714 17.4781 54.4454 17.5482 55.0556C17.8198 57.4783 17.9873 59.9119 18.1941 62.3414ZM6.56202 48.2768C6.75058 50.5226 6.92086 52.7698 7.14601 55.0101C7.19976 55.391 7.37515 55.7455 7.64698 56.0225C10.0787 58.4451 12.5413 60.8456 14.9899 63.253C15.3403 63.5983 15.7033 63.8497 16.2324 63.5997C16.7616 63.3497 16.8305 62.9353 16.7953 62.4464C16.5969 60.0873 16.4224 57.7269 16.1776 55.3733C16.1125 54.9277 15.9068 54.5132 15.5893 54.1883C13.2956 51.8872 10.9694 49.6179 8.64471 47.3472C8.22254 46.9329 7.85948 46.3459 7.11505 46.6566C6.3256 46.9923 6.53247 47.6718 6.56202 48.2768Z" fill="black"/>
<path d="M18.1913 47.9591C18.2561 49.2754 17.8015 50.0834 16.8052 50.5115C15.8089 50.9397 14.8745 50.738 13.9978 49.8817C11.5239 47.4619 9.0641 45.0282 6.58458 42.6139C6.02169 42.0614 5.76839 41.4164 5.70929 40.6471C5.52776 38.2631 5.32512 35.8806 5.11966 33.498C5.02256 32.3724 5.4771 31.5119 6.43823 31.0561C7.37403 30.6155 8.40834 30.7799 9.2189 31.5575C10.9385 33.2149 12.637 34.9041 14.344 36.5795C15.1405 37.3598 15.989 38.0988 16.7095 38.9399C17.1078 39.4081 17.4723 40.0338 17.5398 40.6222C17.8241 43.0904 17.9901 45.5696 18.1913 47.9591ZM6.58317 34.1016H6.57473C6.76048 36.3032 6.92935 38.5062 7.15169 40.7037C7.21125 41.0612 7.38466 41.3909 7.64703 41.6457C10.0689 44.0545 12.5174 46.4356 14.9477 48.8361C15.3262 49.2104 15.7104 49.4632 16.2494 49.2243C16.7658 48.995 16.8249 48.5337 16.7855 48.0558C16.5927 45.7174 16.4211 43.3763 16.1762 41.0435C16.1032 40.5784 15.89 40.1455 15.5641 39.8004C14.579 38.7535 13.5222 37.7687 12.4949 36.7618C11.0877 35.3806 9.68047 33.9994 8.27325 32.6182C7.92707 32.2784 7.53727 32.1099 7.06866 32.3309C6.60006 32.5519 6.47482 32.9469 6.53955 33.4359C6.56347 33.6403 6.56628 33.8723 6.58317 34.1016Z" fill="black"/>
<path d="M5.12407 19.2718C4.9749 18.3561 5.19583 17.3533 6.34976 16.7497C7.31229 16.2442 8.36208 16.3796 9.13465 17.1323C11.7099 19.6447 14.2921 22.1516 16.8209 24.7095C17.2266 25.1487 17.4828 25.701 17.5541 26.2896C17.8242 28.7578 18.0114 31.2343 18.1972 33.7107C18.2886 34.9248 17.7834 35.7466 16.7899 36.1651C15.8147 36.5726 14.8846 36.364 14.0444 35.5408C11.5902 33.1348 9.1445 30.7218 6.68045 28.3269C6.13867 27.8006 5.79672 27.215 5.73621 26.4623C5.5392 24.1474 5.33937 21.8339 5.12407 19.2718ZM16.773 33.498H16.7632C16.5859 31.2964 16.4311 29.092 16.2144 26.8946C16.1693 26.4457 16.0075 25.9098 15.7022 25.6018C13.2648 23.1446 10.7769 20.7331 8.31001 18.3077C7.96102 17.9652 7.59374 17.6917 7.07025 17.9597C6.58054 18.2097 6.49188 18.6171 6.53692 19.124C6.74659 21.4845 6.91264 23.8504 7.14765 26.2081C7.21428 26.6317 7.40496 27.0271 7.69647 27.3462C8.31142 28.0368 9.00518 28.6653 9.66658 29.3158L14.9915 34.5408C15.3475 34.8903 15.7444 35.0933 16.258 34.8696C16.7449 34.6527 16.8209 34.2384 16.7956 33.7729C16.7829 33.6804 16.7787 33.5837 16.773 33.4953V33.498Z" fill="black"/>
<path d="M31.7768 33.8682C31.5812 36.2066 31.4279 38.5477 31.1633 40.8778C31.0836 41.4874 30.8149 42.0583 30.3935 42.5131C27.914 45.0241 25.3782 47.4854 22.8508 49.9453C22.0262 50.7505 21.0454 50.9452 20.0927 50.4977C19.095 50.0323 18.6306 49.2367 18.7206 48.1497C18.9331 45.5821 19.1217 43.0131 19.406 40.4523C19.4998 39.8888 19.7692 39.3677 20.1771 38.9607C22.6299 36.4897 25.1249 34.0561 27.6227 31.6279C28.9385 30.3476 30.9058 30.6072 31.5953 32.1804C31.8162 32.6832 31.7895 33.2854 31.8768 33.8489L31.7768 33.8682ZM30.3555 33.9262C30.3555 33.8351 30.3555 33.7425 30.3738 33.65C30.4484 33.0975 30.447 32.5671 29.8278 32.3006C29.2453 32.0492 28.8583 32.3972 28.4797 32.7702C26.0987 35.1182 23.705 37.4455 21.3395 39.8046C21.058 40.0808 20.8019 40.4841 20.7639 40.8515C20.5163 43.2741 20.3333 45.7022 20.1265 48.129C20.0871 48.6027 20.2024 49.0102 20.671 49.2215C21.1678 49.4466 21.559 49.2505 21.9249 48.8886C24.3847 46.4605 26.8628 44.0545 29.3114 41.6084C29.5664 41.3481 29.73 41.0147 29.7786 40.6568C29.9995 38.4179 30.1698 36.1707 30.3555 33.9262Z" fill="black"/>
<path d="M31.767 48.3099C31.5756 50.6248 31.4265 52.9438 31.1647 55.2518C31.0839 55.8618 30.8131 56.4325 30.3893 56.8857C27.9112 59.3981 25.3782 61.858 22.848 64.3207C22.0121 65.1356 21.0257 65.3207 20.0842 64.8731C19.0992 64.398 18.632 63.5983 18.7206 62.5182C18.9289 59.9727 19.1076 57.4244 19.3975 54.8885C19.4623 54.3264 19.8295 53.7076 20.2419 53.2905C22.6581 50.8472 25.1291 48.4563 27.5819 46.0475C28.4614 45.1843 29.4732 44.9619 30.4541 45.408C31.4349 45.8542 31.8908 46.7174 31.7853 47.9702C31.7754 48.0862 31.7726 48.1953 31.767 48.3099ZM30.3527 48.3099C30.3527 48.2409 30.3598 48.1718 30.3682 48.1041C30.44 47.5392 30.4906 46.9716 29.8419 46.676C29.1932 46.3804 28.7992 46.8334 28.3981 47.2285C26.048 49.5392 23.6853 51.8375 21.362 54.1703C21.0413 54.4916 20.8315 54.9038 20.7625 55.3485C20.5134 57.7255 20.3404 60.1094 20.1321 62.4906C20.0885 62.9947 20.2207 63.398 20.7302 63.6204C21.2396 63.8428 21.5745 63.6052 21.9122 63.2765C24.3791 60.8511 26.8558 58.4423 29.3072 55.9976C29.5646 55.738 29.7312 55.4047 29.7828 55.046C29.9981 52.7988 30.1684 50.5516 30.3527 48.3058V48.3099Z" fill="black"/>
<path d="M18.7235 33.6458C18.9317 31.2108 19.1105 28.686 19.3891 26.1736C19.4749 25.6092 19.7376 25.085 20.1405 24.6736C22.6581 22.1378 25.2248 19.6461 27.7818 17.1475C28.1201 16.8073 28.5578 16.5788 29.0344 16.4937C29.5109 16.4085 30.0026 16.471 30.4414 16.6724C30.878 16.8526 31.2459 17.1629 31.4931 17.5594C31.7403 17.956 31.8543 18.4187 31.8191 18.8823C31.6305 21.4734 31.4405 24.0659 31.1506 26.646C31.0873 27.2067 30.7102 27.8227 30.2965 28.2412C27.862 30.697 25.3712 33.103 22.9043 35.5256C22.06 36.3543 21.1284 36.5698 20.1659 36.1693C19.1555 35.7563 18.6841 34.951 18.7235 33.6458ZM30.3598 19.5232C30.3598 19.4541 30.3598 19.385 30.3753 19.3174C30.4456 18.7649 30.4583 18.2428 29.8504 17.9514C29.2143 17.6489 28.847 18.0757 28.4629 18.4527C26.0706 20.8118 23.6558 23.164 21.2748 25.5396C20.9991 25.8105 20.8178 26.1601 20.7569 26.5382C20.5163 28.9387 20.3347 31.3448 20.1293 33.7494C20.0913 34.2107 20.1659 34.6292 20.6485 34.8544C21.1312 35.0795 21.5562 34.9096 21.915 34.5574C24.3833 32.1362 26.8586 29.7232 29.3058 27.2785C29.5716 26.9947 29.7386 26.6354 29.7828 26.2523C30.0038 24.0134 30.174 21.7676 30.3598 19.5232Z" fill="black"/>
<path d="M12.0364 14.0882C12.1602 11.7982 13.0524 9.83691 14.2879 8.01098C15.0746 6.83835 15.9288 5.71268 16.7998 4.60082C17.6442 3.52763 19.2259 3.442 20.0252 4.50414C21.2776 6.16156 22.5427 7.83971 23.5629 9.63802C25.3262 12.7471 25.1475 15.9418 23.3251 18.9776C22.3527 20.6005 21.1946 22.1198 20.0449 23.6226C19.2892 24.6129 17.8074 24.7027 17.0236 23.7607C15.3166 21.7193 13.5885 19.6613 12.7372 17.0909C12.4149 16.1186 12.2601 15.091 12.0364 14.0882ZM13.4647 14.0454C13.6603 14.9142 13.7743 15.8106 14.0684 16.6462C14.879 18.9459 16.4424 20.8036 17.9397 22.6889C18.3098 23.1557 18.6799 23.1143 19.0852 22.5687C20.0392 21.2883 21.0271 20.0259 21.8729 18.6793C23.2294 16.5219 23.8247 14.2111 22.9353 11.6974C22.091 9.30101 20.4994 7.3632 18.9332 5.41158C18.5926 4.98065 18.1705 5.1312 17.8763 5.52483C16.9307 6.81072 15.94 8.07037 15.0844 9.41288C14.1965 10.8051 13.5534 12.3134 13.4647 14.0454Z" fill="black"/>
<path d="M59.637 43.839H41.7034C41.6556 43.839 41.6091 43.839 41.5627 43.839C41.0786 43.868 40.6888 43.7092 40.6663 43.1912C40.6395 42.6235 41.0504 42.4661 41.5585 42.4661H77.4257C77.6847 42.4661 77.9886 42.3957 78.187 42.5061C78.4333 42.6443 78.7401 42.9343 78.7415 43.1594C78.7429 43.3846 78.4305 43.6567 78.1913 43.8183C78.0505 43.9163 77.7818 43.8459 77.5707 43.8459H59.637V43.839Z" fill="black"/>
<path d="M20.3066 70.9835C20.3066 72.0885 20.3207 73.1934 20.3066 74.2984C20.2883 75.4682 19.5551 76.2431 18.4899 76.2569C17.3979 76.2707 16.6211 75.471 16.6154 74.2846C16.6042 72.0332 16.6042 69.7819 16.6154 67.5306C16.6154 66.3717 17.3655 65.59 18.4336 65.5734C19.5312 65.5568 20.2883 66.3414 20.3024 67.5458C20.3164 68.6935 20.3024 69.8427 20.3024 70.9904L20.3066 70.9835Z" fill="black"/>
<path d="M62.9201 47.8735C64.0163 47.8735 65.0182 47.861 66.0159 47.8831C66.2255 47.9091 66.4263 47.9819 66.6028 48.0959C67.4302 48.5447 67.8116 49.6262 67.6117 50.9107C67.4358 52.0461 66.8701 52.7353 65.8443 52.861C65.0058 52.9416 64.1625 52.9614 63.3211 52.9203C63.1804 52.9203 62.9383 52.651 62.9355 52.506C62.9032 50.9867 62.9201 49.4743 62.9201 47.8735ZM63.9051 50.3596C63.8856 50.7951 63.8908 51.2313 63.9206 51.6662C63.9403 51.8334 64.1232 52.0903 64.2696 52.1193C65.902 52.4369 66.9109 51.448 66.6323 49.8348C66.4663 48.8679 65.8133 48.5074 64.4061 48.6428C63.4745 48.7312 64.0599 49.4618 63.9107 49.8859C63.853 50.0198 63.8967 50.1966 63.8967 50.3569L63.9051 50.3596Z" fill="black"/>
<path d="M50.4042 50.7864L51.9156 52.8416C51.1627 53.0598 50.6561 52.9797 50.2917 52.3333C50.0111 51.882 49.7052 51.4463 49.3755 51.0281C49.0617 50.5958 49.0575 50.2864 49.6654 50.1221C49.9161 50.068 50.1433 49.9386 50.3156 49.7519C50.3943 49.6457 50.4507 49.5252 50.4813 49.3973C50.512 49.2695 50.5164 49.137 50.4943 49.0074C50.4479 48.8431 50.1157 48.7533 49.9033 48.6442C49.834 48.6287 49.7622 48.6268 49.6922 48.6387C48.6058 48.6 48.6044 48.6 48.6016 49.6442C48.6016 50.5875 48.6213 51.5309 48.5805 52.4715C48.5548 52.5752 48.5026 52.6708 48.4287 52.7491C48.3548 52.8274 48.2617 52.8859 48.1583 52.919C47.988 52.9355 47.6348 52.7132 47.632 52.5889C47.5954 51.0323 47.6081 49.4743 47.6081 47.8624C48.6522 47.8624 49.6134 47.7892 50.5632 47.8832C51.5399 47.9785 51.9395 49.1842 51.2992 49.977C51.067 50.2547 50.7546 50.4715 50.4042 50.7864Z" fill="black"/>
<path d="M46.0798 50.2588C46.8271 50.8375 46.9776 51.2532 46.7328 52.024C46.4879 52.7947 45.8575 52.9231 45.175 52.9424C44.4306 52.9632 43.6833 52.9424 42.8826 52.9424V47.8624C43.8944 47.8624 44.8978 47.7892 45.8856 47.8845C46.7089 47.9633 47.0368 49.0696 46.5105 49.7519C46.3852 49.9135 46.2445 50.0654 46.0798 50.2588ZM43.7818 52.1303C44.3166 52.1303 44.7472 52.1938 45.144 52.1068C45.3819 52.0557 45.7196 51.7809 45.7365 51.5834C45.7576 51.3278 45.5634 50.9881 45.3537 50.7988C45.175 50.6372 44.8443 50.6345 44.3222 50.4894C44.6839 50.2132 44.9315 50.0875 45.0976 49.89C45.316 49.6017 45.5162 49.3005 45.6971 48.9881C45.4401 48.8489 45.1712 48.732 44.8936 48.6387C44.6677 48.5791 44.4299 48.5791 44.204 48.6387C44.045 48.6856 43.8128 48.8652 43.8086 48.9922C43.7734 50.0198 43.7818 51.0447 43.7818 52.1303Z" fill="black"/>
<path d="M96.6568 43.8473C95.4143 43.8473 94.1731 43.839 92.9305 43.8473C92.4324 43.8473 91.9835 43.7423 91.975 43.1843C91.9652 42.5904 92.4197 42.4592 92.9516 42.4606C95.4593 42.4689 97.967 42.4606 100.475 42.4606C100.959 42.4606 101.41 42.5573 101.423 43.1346C101.439 43.7617 100.971 43.8473 100.454 43.8445C99.1884 43.8418 97.9219 43.8473 96.6568 43.8473Z" fill="black"/>
<path d="M68.4983 56.1454V60.4147H67.5541C67.5541 58.8028 67.5442 57.2227 67.5766 55.6427C67.5766 55.5308 67.8876 55.3416 68.0635 55.3305C68.7164 55.2932 69.375 55.3029 70.0336 55.3181C70.6556 55.3319 71.2185 55.5059 71.4268 56.1468C71.5394 56.4412 71.5499 56.7638 71.4568 57.0647C71.3637 57.3656 71.1721 57.6279 70.9117 57.8111C70.7302 57.9492 70.5458 58.0874 70.3207 58.2642L71.8349 60.3649C71.0806 60.5666 70.5458 60.4754 70.1828 59.7945C69.9464 59.3498 69.61 58.9547 69.3103 58.5432C69.0106 58.1316 68.9402 57.7973 69.5917 57.644C69.8113 57.5929 70.0772 57.4879 70.1926 57.3208C70.3474 57.097 70.4825 56.7683 70.4262 56.5252C70.3868 56.3581 70.0252 56.1938 69.7859 56.1551C69.3933 56.0971 68.9937 56.1454 68.4983 56.1454Z" fill="black"/>
<path d="M43.0501 57.7255C42.6012 57.3111 42.4647 56.7297 42.7574 56.0984C43.0656 55.4313 43.7073 55.3333 44.3588 55.3222C44.6839 55.3153 45.009 55.3719 45.3355 55.394C45.8308 55.4258 45.8983 55.6924 45.7421 56.1371C45.2848 56.1178 44.8246 56.0736 44.3659 56.0846C43.9592 56.0943 43.6243 56.2476 43.6158 56.7283C43.6074 57.2089 43.8973 57.4907 44.349 57.47C44.8007 57.4492 45.403 57.8084 45.6816 57.0943C45.7084 57.0294 45.9912 56.9907 46.1038 57.0432C46.4158 57.1651 46.7046 57.3378 46.958 57.5542C47.0706 57.662 47.0382 58.1177 47.0269 58.1205C46.3866 58.2144 46.5837 58.7158 46.5274 59.0873C46.3712 60.0873 45.6113 60.5404 44.2195 60.4575C43.1922 60.3953 42.5829 59.8719 42.635 58.992C42.6561 58.5998 42.8798 58.2241 43.0501 57.7255ZM45.4959 58.2227C45.099 58.2227 44.6867 58.2144 44.2744 58.2227C43.8058 58.2338 43.5581 58.5528 43.6285 58.9354C43.6777 59.2006 43.9648 59.5556 44.2167 59.626C45.2004 59.9091 45.7238 59.3346 45.4959 58.2227Z" fill="black"/>
<path d="M79.1735 59.6219C80.0586 59.6219 80.7524 59.6412 81.4447 59.6219C81.9316 59.6025 82.2525 59.3346 82.2117 58.8277C82.1708 58.3208 81.7487 58.3277 81.3673 58.3111C80.986 58.2945 80.6173 58.3111 80.2415 58.2572C79.431 58.1523 79.1158 57.8277 79.0215 57.086C78.93 56.3056 79.2241 55.6288 79.9348 55.5142C80.8143 55.3761 81.7332 55.4272 82.6296 55.4797C82.7858 55.4893 82.911 55.9092 83.1531 56.2932C82.3299 56.2214 81.7613 56.1454 81.1914 56.1344C80.8908 56.1155 80.5909 56.1816 80.3274 56.325C80.2261 56.4073 80.1451 56.5111 80.0905 56.6285C80.0359 56.746 80.0091 56.8741 80.0122 57.0031C80.029 57.162 80.3443 57.376 80.5539 57.4175C81.0113 57.4948 81.4869 57.4562 81.9527 57.4962C82.6408 57.5584 83.0785 57.9106 83.1742 58.6094C83.2882 59.423 83.0039 60.1481 82.2834 60.2669C81.3856 60.4174 80.4428 60.3442 79.5239 60.2876C79.3845 60.2696 79.2776 59.8263 79.1735 59.6219Z" fill="black"/>
<path d="M58.6632 59.5238C59.5793 59.5652 60.2717 59.6191 60.9641 59.6177C61.4481 59.6177 61.7901 59.3622 61.7662 58.8553C61.7422 58.3139 61.2919 58.3166 60.8838 58.3028C60.5095 58.289 60.1324 58.3028 59.7581 58.249C58.9911 58.1509 58.652 57.7987 58.5493 57.0487C58.4592 56.3885 58.7575 55.6537 59.3866 55.5515C60.3083 55.4009 61.2708 55.4424 62.2123 55.4811C62.353 55.488 62.481 55.9258 62.6893 56.2946C61.8872 56.2214 61.3173 56.1399 60.7459 56.1274C60.4446 56.1078 60.1439 56.1745 59.8805 56.3194C59.78 56.402 59.6997 56.5057 59.6456 56.6228C59.5915 56.74 59.565 56.8676 59.5681 56.9962C59.5836 57.1537 59.8946 57.3705 60.1014 57.4106C60.5588 57.4893 61.0358 57.4492 61.5002 57.4934C62.1827 57.5556 62.6386 57.8926 62.7245 58.5984C62.83 59.4727 62.5373 60.1536 61.7718 60.2848C60.9176 60.4299 60.0184 60.3677 59.1459 60.3028C58.9799 60.2862 58.8546 59.8428 58.6632 59.5238Z" fill="black"/>
<path d="M68.7587 51.9783C69.2399 52.0377 69.7212 52.1317 70.2039 52.1441C70.5458 52.1538 70.9356 52.1317 71.2185 51.9756C71.3319 51.8924 71.424 51.7844 71.4875 51.6602C71.551 51.5361 71.5842 51.3991 71.5844 51.2601C71.5703 51.0889 71.2298 50.8458 71.0018 50.8099C70.5951 50.7325 70.1575 50.8016 69.7423 50.767C68.9121 50.6994 68.4997 50.3043 68.3998 49.524C68.3084 48.8016 68.6447 48.1083 69.3849 47.9812C70.2391 47.8348 71.1369 47.8776 72.0094 47.9328C72.1838 47.9439 72.3288 48.3845 72.4878 48.6234L72.3091 48.7878C71.9547 48.706 71.595 48.6483 71.2326 48.6151C70.7949 48.6 70.3277 48.5834 69.9267 48.7174C69.7929 48.7834 69.6781 48.8811 69.5926 49.0017C69.5071 49.1223 69.4536 49.2619 69.437 49.408C69.4454 49.5875 69.8366 49.8389 70.0969 49.8983C70.4741 49.9853 70.8892 49.8983 71.2846 49.9383C72.0403 50.0046 72.5061 50.4217 72.5877 51.0612C72.7003 51.9424 72.3696 52.6648 71.5872 52.7891C70.7527 52.9272 69.876 52.8637 69.026 52.796C68.8572 52.7822 68.7235 52.3485 68.5743 52.1054L68.7587 51.9783Z" fill="black"/>
<path d="M55.8924 49.9052C56.0669 50.4894 56.0106 50.8099 55.369 50.7588C55.0439 50.7339 54.709 50.7919 54.3839 50.7477C53.707 50.6566 53.5396 50.9521 53.5733 51.5654C53.5944 52.0253 53.7549 52.169 54.1996 52.1455C54.6907 52.1119 55.1838 52.1155 55.6743 52.1565C55.8418 52.1731 55.9895 52.3817 56.1457 52.5018C55.9909 52.651 55.8404 52.9162 55.6785 52.9272C54.8131 52.9687 53.9448 52.9618 53.078 52.9272C52.9373 52.9272 52.6995 52.7049 52.6966 52.5819C52.6713 51.0212 52.6798 49.4618 52.6798 47.8251C53.7338 47.8251 54.7132 47.8113 55.6912 47.8403C55.8319 47.8403 56.0866 48.0903 56.0669 48.1718C56.0261 48.3417 55.8559 48.5737 55.7039 48.6041C55.3647 48.6704 55.0003 48.629 54.6527 48.629C53.5142 48.629 53.5142 48.629 53.6437 49.9038L55.8924 49.9052Z" fill="black"/>
<path d="M56.1049 58.1578C55.8361 57.5598 55.5983 57.028 55.2761 56.3084C54.7441 57.5915 54.2643 58.6716 53.8505 59.7766C53.6352 60.3511 53.3341 60.6177 52.6094 60.358C52.9846 59.4824 53.3599 58.6076 53.7352 57.7338C54.0264 57.057 54.298 56.3747 54.6133 55.7062C54.844 55.2131 55.7067 55.1026 55.9206 55.5598C56.6594 57.1412 57.3447 58.7448 58.0778 60.4036C57.5656 60.4299 57.0604 60.6799 56.8845 60.0625C56.6382 59.202 56.0979 58.8912 55.2268 59.0404C55.1123 59.0433 54.998 59.0293 54.8877 58.9989C54.9355 58.2697 54.9355 58.2697 56.1049 58.1578Z" fill="black"/>
<path d="M59.0122 51.4508C59.1769 50.8113 59.1769 50.8113 60.2576 50.6027L59.4611 48.7975C58.9165 50.0986 58.4156 51.2146 57.985 52.3554C57.7598 52.9521 57.4221 53.064 56.7902 52.8209C57.4755 51.2325 58.1355 49.669 58.8279 48.1248C59.0179 47.7036 59.9185 47.6773 60.1084 48.0876C60.8289 49.6497 61.5157 51.2284 62.2376 52.8568C61.7169 52.9618 61.2314 53.1427 61.0611 52.5488C60.8022 51.6469 60.2168 51.3665 59.3387 51.5074C59.2278 51.5031 59.1179 51.4841 59.0122 51.4508Z" fill="black"/>
<path d="M50.0384 60.4105H49.0196C49.0196 58.8097 49.0069 57.2517 49.0421 55.6965C49.0421 55.5584 49.3657 55.3457 49.5501 55.3347C50.2241 55.2905 50.9052 55.3043 51.5821 55.3195C52.1211 55.3319 52.722 55.4576 52.8162 56.0197C52.9083 56.5666 52.8247 57.128 52.577 57.626C52.2562 58.2075 51.5708 58.394 50.8588 58.4161C50.6801 57.9782 50.5914 57.6288 51.219 57.4755C51.4619 57.3962 51.6712 57.2403 51.8143 57.0321C52.1084 56.6178 51.8875 56.1896 51.3809 56.1537C50.9657 56.1247 50.5464 56.1537 50.0384 56.1537V60.4105Z" fill="black"/>
<path d="M77.9464 56.1371H75.5992V57.4368C76.1902 57.4368 76.7686 57.4023 77.3399 57.4562C77.5425 57.4741 77.7227 57.7089 77.9141 57.8456C77.7255 57.9838 77.5454 58.2075 77.3512 58.2255C76.7981 58.2793 76.2352 58.2448 75.6147 58.2448V59.626C76.2057 59.626 76.8263 59.626 77.444 59.626C78.1111 59.6329 78.1153 59.6453 78.0168 60.4064H74.6943V55.3222C75.7244 55.3222 76.7264 55.296 77.7227 55.3498C77.8634 55.3581 77.9943 55.7421 78.128 55.9534L77.9464 56.1371Z" fill="black"/>
<path d="M64.4779 60.4133V56.1938L63.0566 56.104C62.8849 55.575 62.9693 55.2918 63.5941 55.3084C64.506 55.3333 65.4235 55.3388 66.3312 55.3084C66.9489 55.2863 67.0643 55.5487 66.88 56.1136L65.4306 56.1799V60.4147L64.4779 60.4133Z" fill="black"/>
<path d="M73.4743 60.4202H72.6158V55.3678H73.4743V60.4202Z" fill="black"/>
</svg>
