<svg width="60" height="60" viewBox="0 0 60 60" fill="none" xmlns="http://www.w3.org/2000/svg">
<path d="M49.9353 26.5188C51.8158 26.7807 52.8708 28.2213 52.399 29.8598C52.1935 30.572 51.7628 31.1282 51.0887 31.428C50.7176 31.5925 50.604 31.8296 50.5412 32.1964C50.2643 33.809 49.958 35.4162 49.6518 37.0862L47.9542 36.7831C48.2582 35.0991 48.5547 33.4551 48.8576 31.7733H7.65928C7.85296 32.8393 8.04123 33.8815 8.23058 34.9227C8.87978 38.4682 9.50518 42.0159 10.1728 45.5582C10.5666 47.6459 12.3043 49.0539 14.438 49.0658C16.4203 49.0777 18.4025 49.0658 20.4258 49.0658V50.7975H19.8556C18.1785 50.7975 16.5011 50.7975 14.8232 50.7975C11.2883 50.7975 8.96202 48.8137 8.34636 45.3212C7.57056 40.8893 6.75148 36.4574 5.93673 32.0309C5.89389 31.831 5.77419 31.6561 5.60348 31.5438C4.42409 30.8945 3.84198 29.8782 4.03674 28.7299C4.24232 27.5178 5.13822 26.7277 6.51128 26.5297C6.52077 26.5286 6.52996 26.5256 6.53833 26.521C6.62813 25.2915 6.66384 24.0653 6.81857 22.8543C7.3877 18.3942 9.21629 14.498 12.2232 11.169C12.3722 11.0199 12.4897 10.8424 12.5687 10.647C12.6477 10.4515 12.6866 10.2422 12.683 10.0315C12.7047 5.5065 17.5315 2.6125 21.5252 4.72834C21.6612 4.80902 21.8127 4.86033 21.9698 4.87897C22.1269 4.89761 22.2861 4.88316 22.4373 4.83657C27.7131 3.40292 32.8162 3.8719 37.7466 6.24352C38.135 6.43076 38.3146 6.37123 38.5819 6.04763C40.3379 3.91772 43.6922 3.37009 46.118 4.78245C48.625 6.24136 49.6735 9.16458 48.625 11.8822C48.2431 12.8724 47.7594 13.8216 47.3461 14.8043C47.2693 14.9905 47.2465 15.2762 47.3353 15.4439C49.1153 18.7874 50.0019 22.534 49.9094 26.3208C49.9138 26.3873 49.9225 26.4534 49.9353 26.5188ZM36.0034 26.5188C35.8249 23.6248 35.2904 20.8466 34.1521 18.2026C33.4402 16.5468 32.5291 15.024 31.1398 13.8378C29.348 12.3129 27.1537 12.2761 25.4052 13.8487C24.6724 14.5136 24.0273 15.2694 23.4857 16.0976C22.0727 18.2557 21.3466 20.6897 20.9106 23.2103C20.7212 24.2991 20.6174 25.403 20.4778 26.5188H36.0034ZM48.2074 26.5372C48.1749 18.8033 45.1626 12.6495 38.5386 8.68838C31.4298 4.43288 24.1393 4.64933 17.2004 9.16675C11.8618 12.6419 9.05182 17.773 8.46321 24.1086C8.91116 22.8694 9.59607 21.7969 10.6207 20.9419C10.7538 20.8337 10.8047 20.5999 10.8609 20.4148C13.4978 11.775 21.9158 6.41993 30.878 7.68619C39.1726 8.8583 45.6106 15.6474 46.3506 24.0177C46.4253 24.8521 46.4415 25.6931 46.4848 26.5318L48.2074 26.5372ZM28.2368 30.0103H47.5463C48.3221 30.0103 49.0978 30.0211 49.8726 30.0048C50.4136 29.994 50.7804 29.6141 50.7706 29.126C50.762 28.6552 50.4103 28.31 49.8931 28.2819C49.641 28.2678 49.3878 28.2819 49.1357 28.2819H19.0063C14.9668 28.2819 10.9273 28.2819 6.88782 28.2819C6.47233 28.2819 6.09363 28.3252 5.86099 28.7288C5.50718 29.3436 6.01139 30.0384 6.86726 30.0351C13.9912 29.9951 21.114 30.0092 28.2368 30.0103ZM38.6792 22.2677L39.1651 23.8997L37.5637 24.4106C37.6308 25.1465 37.6946 25.8359 37.7595 26.5448C38.4369 26.5448 39.0504 26.5232 39.6617 26.5524C40.0079 26.5697 40.1594 26.4355 40.2958 26.1292C41.1743 24.1541 42.027 22.1649 42.9932 20.233C43.387 19.444 43.3178 18.8336 42.885 18.1453C42.7281 17.8942 42.5961 17.8347 42.3267 17.9288C41.6093 18.1669 40.8854 18.3856 40.1627 18.6063C39.5135 18.8033 38.8643 18.9938 38.1967 19.1951C38.0246 18.6215 37.8721 18.1128 37.7022 17.55L41.7424 16.2968C40.5878 14.6247 39.131 13.1833 37.4468 12.0467C36.7652 13.5175 36.1073 14.9179 35.4862 16.3379C35.4083 16.5132 35.4743 16.786 35.5447 16.9873C35.9775 18.2449 36.4579 19.4873 36.8755 20.7514C37.0746 21.3575 37.172 21.9982 37.3202 22.6475L38.6792 22.2677ZM23.0638 10.1007C18.765 11.2912 13.2976 16.5598 13.0412 19.7427C15.5633 19.2871 17.6483 20.0533 19.2313 21.9819C19.8307 20.1933 20.4273 18.4137 21.0209 16.6431L17.5466 19.4213L16.4646 18.0706L20.771 14.6171L21.6128 15.6041C22.0802 14.9699 22.5206 14.3811 22.948 13.7826C23.0172 13.6799 23.0548 13.5591 23.0562 13.4352C23.067 12.3335 23.0638 11.2371 23.0638 10.1007ZM10.1122 26.5026H18.7087C19.0604 23.0989 16.5231 21.2947 14.3147 21.3423C11.6822 21.3997 9.84277 23.6302 10.1122 26.5026ZM46.0899 13.3984C46.4653 12.5196 46.8787 11.735 47.1405 10.9027C47.7291 9.02713 46.7889 7.00653 45.0057 6.15045C43.1858 5.28463 40.8573 5.80304 39.824 7.28142C40.8508 8.10503 41.9274 8.8702 42.8807 9.77065C43.4509 10.3064 43.9389 10.6267 44.6833 10.222C44.7028 10.2111 44.746 10.2414 44.8423 10.2739C44.8055 10.8605 45.4656 11.3616 45.0696 12.0499C45.2297 12.2556 45.3941 12.4666 45.5608 12.6831C45.7274 12.8995 45.8735 13.1095 46.0899 13.3984ZM35.9515 11.1365C32.3722 9.31285 28.7021 8.77929 24.8393 9.591V12.0359C26.2059 11.1906 27.6039 10.7728 29.1673 11.0283C30.7904 11.2956 32.0574 12.1787 33.1545 13.3432C33.5516 13.7642 33.9044 14.2264 34.3101 14.7102L35.9515 11.1365ZM43.8858 25.6812V23.9636L44.6292 23.9203C44.5004 23.2157 44.3792 22.5458 44.257 21.8759L44.1293 21.8629L42.0172 26.5167H44.6833V25.6801L43.8858 25.6812ZM19.2887 5.85715C17.4373 5.26407 14.9477 7.08445 14.7183 8.67106L19.2887 5.85715Z" fill="#F9BE35"/>
<path d="M22.1982 45.5248C20.6942 44.9837 19.7637 44.0097 19.6155 42.4425C19.4218 40.3862 21.0134 38.6805 23.1006 38.6762C27.1224 38.6665 31.1442 38.6762 35.166 38.6762C40.9187 38.6762 46.6717 38.6762 52.425 38.6762C53.876 38.6762 54.971 39.3342 55.6105 40.6243C56.2413 41.8981 56.106 43.1698 55.208 44.2748C54.8361 44.7122 54.373 45.0628 53.8511 45.3019C53.4378 45.4934 53.361 45.7045 53.3631 46.1028C53.3783 48.4838 53.3783 50.8648 53.3631 53.2458C53.3631 54.9125 52.2811 55.998 50.6235 55.998C42.0396 56.0023 33.4557 56.0023 24.8718 55.998C23.2986 55.998 22.2014 54.88 22.1971 53.2923C22.1939 50.7089 22.1982 48.1299 22.1982 45.5248ZM29.994 40.4057C27.6861 40.4057 25.3793 40.397 23.0692 40.4057C22.6212 40.402 22.1893 40.5731 21.8653 40.8826C21.5412 41.1922 21.3506 41.6159 21.3337 42.0637C21.3172 42.51 21.4723 42.9457 21.7671 43.2811C22.062 43.6165 22.4742 43.8261 22.9188 43.8668C23.7108 43.9545 23.9283 44.199 23.9294 45.0194C23.9294 47.7251 23.9294 50.4308 23.9294 53.1365C23.9294 53.9817 24.2172 54.2664 25.0677 54.2664C28.3498 54.2664 31.6318 54.2664 34.9139 54.2664C35.7676 54.2664 36.0511 53.986 36.0511 53.1397C36.0511 50.398 36.0511 47.6562 36.0511 44.9144C36.0511 44.2651 36.3205 43.9404 36.8951 43.8733C38.0117 43.7467 38.6879 43.0497 38.6457 42.0691C38.6025 41.0669 37.8342 40.4089 36.6981 40.4078C34.4642 40.405 32.2295 40.4042 29.994 40.4057ZM37.7509 54.2674H50.4493C51.369 54.2674 51.6395 53.998 51.6395 53.0769C51.6395 50.3893 51.6395 47.702 51.6395 45.0151C51.6395 44.199 51.8559 43.9566 52.6512 43.8625C53.3556 43.7791 53.8619 43.4112 54.1195 42.7477C54.575 41.5767 53.7159 40.4089 52.3883 40.4068C48.3683 40.3988 44.3486 40.3988 40.3293 40.4068C40.2146 40.4068 40.0999 40.4208 39.9679 40.4295C41.0499 42.8624 39.7829 44.8939 37.7498 45.5497L37.7509 54.2674Z" fill="#F9BE35"/>
<path d="M17.8356 36.0658H12.7155V34.3774H17.8356V36.0658Z" fill="#F9BE35"/>
<path d="M21.3552 36.0354V34.3687H26.4839V36.0354H21.3552Z" fill="#F9BE35"/>
<path d="M35.1497 36.0492H30.0167V34.3804H35.1497V36.0492Z" fill="#F9BE35"/>
<path d="M43.8177 34.3784V36.0462H38.6934V34.3784H43.8177Z" fill="#F9BE35"/>
<path d="M17.8236 41.2615H12.7144V39.5742H17.8236V41.2615Z" fill="#F9BE35"/>
<path d="M12.6982 46.4404V44.7759H17.8334V46.4404H12.6982Z" fill="#F9BE35"/>
<path d="M32.5854 18.153C32.5194 20.3684 31.0219 22.4323 28.8698 23.1996C27.3615 23.7408 25.8402 24.2246 24.3146 24.7224C23.5713 24.9659 23.0692 24.5882 23.0649 23.81C23.053 21.6314 24.5234 19.4745 26.6582 18.6768C28.2239 18.0913 29.8231 17.5945 31.419 17.0783C32.1397 16.8445 32.6103 17.2969 32.5854 18.153ZM30.6541 19.1097C29.2723 19.6151 27.988 20.0178 26.7653 20.5589C25.916 20.9355 25.3587 21.6769 25.0233 22.6801C26.2709 22.2472 27.4416 21.8966 28.5701 21.4409C29.5591 21.0383 30.218 20.2667 30.6541 19.1097Z" fill="#F9BE35"/>
<path d="M13.514 24.7913H11.8412V23.1084H13.514V24.7913Z" fill="#F9BE35"/>
<path d="M16.9656 25.6541H15.2982V23.9863H16.9656V25.6541Z" fill="#F9BE35"/>
<path d="M47.3298 43.8449V42.1738H49.0113V43.8449H47.3298Z" fill="#F9BE35"/>
<path d="M43.0007 46.4305V44.7671H44.667V46.4305H43.0007Z" fill="#F9BE35"/>
<path d="M49.8769 49.1006V50.7608H48.2106V49.1006H49.8769Z" fill="#F9BE35"/>
<path d="M39.5416 52.5031V50.8418H41.2122V52.5031H39.5416Z" fill="#F9BE35"/>
</svg>
