<svg width="60" height="60" viewBox="0 0 60 60" fill="none" xmlns="http://www.w3.org/2000/svg">
<path d="M56.7422 30.081C56.8167 33.6017 56.574 37.1063 56.0956 40.5933C55.7195 43.334 55.247 46.057 54.3877 48.6954C53.717 50.7542 52.9027 52.7481 51.5667 54.4844C51.3272 54.7956 51.0829 55.1037 50.8247 55.3994C50.0142 56.3262 48.9808 56.7767 47.7572 56.7987C47.2574 56.8078 46.7565 56.7794 46.2577 56.8046C45.0674 56.8645 43.9076 56.6996 42.7708 56.3615C42.3502 56.2367 41.9383 56.2512 41.5365 56.4017C40.6949 56.7172 39.8281 56.7815 38.935 56.781C28.5149 56.7756 18.0952 56.7874 7.67505 56.7885C6.43969 56.7885 5.3688 56.3958 4.66273 55.3147C4.05523 54.3842 4.04344 53.3658 4.3188 52.3265C4.6729 50.9899 5.36558 49.8531 6.37862 48.9151C6.6813 48.6349 6.8163 48.3119 6.81576 47.8983C6.80934 42.8717 6.80826 37.8446 6.81791 32.8179C6.81898 32.391 6.66255 32.0872 6.3438 31.8279C5.8038 31.3892 5.25898 30.9537 4.74469 30.4854C4.0338 29.8383 3.46969 29.0845 3.28219 28.1122C3.06844 27.0038 3.3738 26.0101 3.98933 25.0951C4.74737 23.9679 5.79898 23.1815 6.99309 22.5778C9.18576 21.4683 11.5081 20.7547 13.9477 20.4842C15.3192 20.3321 16.7045 20.2726 18.085 20.2447C20.0302 20.2056 21.9765 20.2335 23.9227 20.2356C24.4493 20.2362 24.9759 20.256 25.5025 20.2512C27.6759 20.2313 29.8499 20.1992 32.0233 20.1837C33.0674 20.1762 34.112 20.1944 35.1561 20.2051C35.7813 20.2115 35.9892 20.0363 36.0727 19.4154C36.4306 16.7433 36.8988 14.0942 37.7206 11.519C38.4379 9.27276 39.355 7.1283 40.7967 5.23187C41.5306 4.26598 42.4011 3.52455 43.622 3.31401C44.1095 3.22991 44.6163 3.24598 45.1145 3.23741C45.8008 3.22562 46.4897 3.27116 47.1727 3.22616C48.8072 3.11901 50.1052 3.74526 51.1665 4.94901C52.2138 6.13669 52.9274 7.51776 53.515 8.97276C54.6867 11.8737 55.4158 14.8919 55.8925 17.976C56.3458 20.9063 56.6238 23.8538 56.7352 26.8158C56.7765 27.9028 56.7422 28.9924 56.7422 30.081ZM37.1688 28.6903C37.3584 28.6731 37.4661 28.6753 37.5679 28.6522C40.1142 28.0726 42.6202 28.2858 45.0931 29.0513C45.3668 29.136 45.6342 29.286 45.8629 29.4601C46.1399 29.6712 46.1768 30.0054 46.0413 30.3622C45.9159 30.6922 45.6749 30.8722 45.3277 30.8637C45.0717 30.8572 44.814 30.8138 44.5627 30.7608C43.787 30.5969 43.0204 30.3837 42.2388 30.2572C40.7243 30.0124 39.2147 30.0933 37.7233 30.4576C37.269 30.5685 37.134 30.7619 37.1672 31.2253C37.2133 31.866 37.2647 32.5062 37.3145 33.1463C37.5052 35.6101 37.6943 38.0744 37.8899 40.5381C37.9059 40.7385 37.9627 40.9356 38.0034 41.1472C38.1781 41.1199 38.3179 41.099 38.4572 41.076C40.6001 40.7149 42.7375 40.6758 44.8579 41.2206C45.4252 41.3663 45.9952 41.5329 46.5293 41.7681C46.974 41.9642 47.094 42.3745 46.9488 42.8015C46.8095 43.2124 46.479 43.4278 46.0043 43.3688C45.6701 43.3276 45.3384 43.2472 45.0111 43.1621C43.2368 42.7003 41.4475 42.411 39.6111 42.711C39.1418 42.7876 38.6784 42.9012 38.1979 43.0003C38.4968 44.1922 38.8258 45.3151 39.0497 46.4588C39.2093 47.2726 39.5929 47.8528 40.2931 48.2797C41.0474 48.7399 41.6608 49.3629 42.1772 50.0824C42.8575 51.029 43.3204 52.057 43.367 53.2388C43.382 53.6213 43.3456 54.0054 43.3531 54.3885C43.3606 54.7656 43.5186 54.9322 43.8931 54.9435C44.14 54.951 44.3972 54.9408 44.6356 54.8808C45.6684 54.621 46.3633 53.901 46.854 53.0267C47.9918 51.0012 48.902 48.8754 49.5175 46.6244C50.514 42.9837 51.0009 39.2647 51.2131 35.5104C51.347 33.1426 51.3883 30.7678 51.4001 28.3962C51.4076 26.9353 51.3159 25.4712 51.2088 24.0124C50.9897 21.0204 50.5665 18.0547 49.9381 15.1201C49.4404 12.7945 48.7922 10.5199 47.6908 8.3958C47.1534 7.35973 46.5336 6.38419 45.6486 5.60526C45.1595 5.17508 44.6024 4.91419 43.9317 5.05991C43.4249 5.17026 43.0322 5.48098 42.6818 5.84687C41.6233 6.95258 40.8909 8.26348 40.2984 9.65955C39.6063 11.2908 39.1563 12.9976 38.7459 14.7151C38.5708 15.4485 38.4261 16.1894 38.259 16.9662C38.4368 16.9506 38.5692 16.9495 38.6977 16.926C39.6926 16.7428 40.6949 16.6635 41.7063 16.6978C43.2047 16.7487 44.6677 17.0047 46.0884 17.4799C46.3424 17.5651 46.5867 17.7215 46.7934 17.8951C47.0463 18.1072 47.0468 18.4099 46.9456 18.7104C46.8438 19.0137 46.6547 19.2456 46.3204 19.2472C46.0134 19.2483 45.6947 19.2204 45.4006 19.1369C44.1165 18.771 42.8158 18.524 41.4776 18.4978C40.4463 18.4779 39.429 18.5963 38.4267 18.8337C38.0243 18.929 37.9086 19.0672 37.8717 19.4754C37.8186 20.062 37.7736 20.6492 37.727 21.2358C37.5717 23.1922 37.4147 25.1487 37.2631 27.1056C37.225 27.6183 37.202 28.132 37.1688 28.6903ZM8.60719 47.3583C9.49916 47.3454 10.3504 46.8863 10.8679 46.1031C11.7679 44.7397 12.9995 43.7899 14.4781 43.1422C14.9275 42.9451 15.2725 42.6569 15.5463 42.2492C16.5438 40.7642 17.8274 39.5969 19.487 38.8999C22.2668 37.7331 25.0713 37.7395 27.8811 38.8104C27.9861 38.8506 28.0917 38.8876 28.2347 38.9401C28.2347 38.8024 28.2347 38.7071 28.2347 38.6117C28.2288 36.3981 28.2309 34.184 28.2111 31.971C28.2052 31.3287 28.4586 30.8899 29.0254 30.5888C29.7283 30.2154 30.3925 29.7762 30.9497 29.1992C31.4324 28.6994 31.7854 28.1326 31.7801 27.4029C31.7752 26.7178 31.4533 26.1713 31.014 25.6844C30.4086 25.0131 29.6752 24.5063 28.8695 24.1088C26.3683 22.8767 23.6945 22.3094 20.9361 22.086C19.3327 21.9558 17.7283 21.9746 16.1238 22.0812C14.1229 22.214 12.1531 22.5178 10.2492 23.1681C8.66826 23.7087 7.18112 24.4163 5.93933 25.5751C4.80201 26.6363 4.72701 27.907 5.7738 29.0599C6.35666 29.7017 7.07558 30.1694 7.82237 30.5931C8.37469 30.9065 8.63505 31.3694 8.62594 31.9978C8.61683 32.6224 8.6088 33.2471 8.6088 33.8717C8.60719 38.2549 8.60826 42.6387 8.60826 47.0219C8.60719 47.1274 8.60719 47.2324 8.60719 47.3583ZM23.7674 54.9874C25.6418 54.9874 27.5168 54.9906 29.3913 54.9858C30.2051 54.9837 30.437 54.7956 30.6058 54.0097C30.9052 52.6158 31.2079 51.2224 31.4897 49.8247C31.7211 48.6767 31.892 47.5244 31.674 46.3474C31.2792 44.211 30.317 42.4104 28.4709 41.2067C26.0211 39.6092 23.3661 39.4201 20.6565 40.3994C17.3784 41.5844 15.3727 44.9395 15.8061 48.3944C15.9159 49.2681 16.1168 50.1306 16.2915 50.9953C16.4999 52.026 16.7217 53.054 16.9456 54.0815C17.0924 54.7549 17.3442 54.9563 18.0352 54.9842C18.1333 54.9879 18.2313 54.9879 18.3299 54.9879C20.1433 54.9874 21.955 54.9874 23.7674 54.9874ZM37.1463 46.5188C35.2852 38.406 35.0179 30.2733 35.7309 22.079C33.4568 22.079 31.2159 22.079 28.9751 22.079C29.0549 22.1679 29.1449 22.2178 29.2359 22.2644C30.2967 22.8054 31.3268 23.3926 32.1636 24.2594C32.9254 25.0479 33.4793 25.9528 33.5924 27.0676C33.7215 28.3442 33.2163 29.3985 32.3259 30.2615C31.7383 30.831 31.0815 31.3303 30.4472 31.8504C30.1767 32.0722 30.0036 32.3213 30.009 32.6899C30.0261 33.8856 30.0358 35.0819 30.0363 36.2781C30.0368 37.2328 30.0004 38.1879 30.0175 39.1426C30.032 39.9435 30.3352 40.6158 31.0322 41.0749C31.1388 41.1451 31.2234 41.2608 31.2942 41.3706C31.907 42.3231 32.6849 43.1021 33.7424 43.536C34.3804 43.7979 34.9027 44.1901 35.372 44.6749C35.9484 45.2701 36.5211 45.869 37.1463 46.5188ZM47.8338 55.0495C47.8659 55.0742 47.8986 55.0988 47.9308 55.1235C48.3824 54.8626 48.8806 54.6563 49.2738 54.3258C49.6981 53.9685 50.0608 53.5206 50.3876 53.0674C51.4097 51.6483 52.0633 50.0487 52.5781 48.3901C53.7384 44.6508 54.3845 40.8145 54.7054 36.9194C54.9958 33.3938 55.0686 29.8624 54.9218 26.3283C54.7751 22.7937 54.3813 19.2874 53.6474 15.8229C53.222 13.8156 52.7543 11.8195 51.9749 9.91401C51.3015 8.26776 50.4861 6.71312 49.0847 5.5383C48.6942 5.21098 48.2356 5.12366 47.7293 4.95919C47.8279 5.11616 47.889 5.22383 47.9592 5.32508C49.397 7.39991 50.3656 9.69009 51.0561 12.1045C51.8233 14.7863 52.2733 17.5297 52.6354 20.2903C53.027 23.2747 53.23 26.2731 53.2472 29.2822C53.2563 30.816 53.2188 32.3519 53.1454 33.884C52.9767 37.417 52.5593 40.9233 51.9009 44.399C51.1965 48.1185 50.0693 51.6772 47.8767 54.824C47.8375 54.8819 47.8472 54.9735 47.8338 55.0495ZM32.2686 54.9874C33.1397 54.9874 33.9336 54.9681 34.7259 54.9928C35.5927 55.0196 36.2061 54.6354 36.6583 53.9245C37.1806 53.1038 37.2218 52.2285 37.0408 51.2985C36.639 49.2328 35.762 47.4312 34.1892 46.0019C33.9459 45.7806 33.6743 45.591 33.3663 45.3472C33.385 45.4967 33.3893 45.5679 33.4033 45.6371C33.5934 46.5992 33.6492 47.5747 33.4997 48.539C33.2961 49.8499 33.0175 51.149 32.7674 52.4529C32.6077 53.2833 32.4406 54.112 32.2686 54.9874ZM14.14 45.3638C13.8497 45.5985 13.5759 45.7967 13.3284 46.0233C11.5375 47.6647 10.6451 49.7385 10.4318 52.1278C10.3643 52.8847 10.5652 53.5769 11.0324 54.1822C11.4122 54.6751 11.905 54.9633 12.5404 54.9697C13.0842 54.9751 13.6284 54.9783 14.1722 54.981C14.5172 54.9826 14.8627 54.9815 15.2308 54.9815C15.2152 54.8476 15.2109 54.7587 15.1938 54.6729C14.9983 53.6862 14.815 52.6962 14.5997 51.7131C14.2675 50.1971 13.9193 48.6837 13.9868 47.1167C14.0109 46.5494 14.0843 45.9842 14.14 45.3638ZM38.372 49.2585C38.687 50.2367 38.9243 51.187 38.9297 52.177C38.935 53.1745 38.6688 54.1046 38.1325 54.9751C38.8504 54.9751 39.5211 55.0083 40.187 54.967C41.1899 54.9049 41.7583 54.1072 41.5536 53.1151C41.2954 51.8642 40.6767 50.827 39.6909 50.016C39.3074 49.701 38.9152 49.3908 38.372 49.2585ZM8.99773 49.3158C9.00148 49.3169 8.98273 49.304 8.96933 49.3083C8.90987 49.327 8.84826 49.3442 8.79469 49.3742C7.28076 50.2142 6.31005 51.4753 5.97148 53.1724C5.79416 54.0606 6.29773 54.8449 7.08362 54.9285C7.76826 55.0008 8.4663 54.9435 9.11934 54.9435C8.95862 54.0183 8.6854 53.084 8.66451 52.1438C8.64415 51.2058 8.87612 50.2619 8.99773 49.3158Z" fill="#F9BE35"/>
<path d="M17.5226 24.3096C20.6313 24.368 22.9311 24.6037 25.1543 25.3473C25.4404 25.4432 25.7356 25.5348 25.9949 25.6843C26.4963 25.9736 26.6093 26.5221 26.2885 26.9678C26.0661 27.2769 25.7409 27.383 25.3895 27.3C24.6706 27.1296 23.9629 26.91 23.2456 26.7332C19.3884 25.7834 15.5752 25.9221 11.8097 27.2084C11.619 27.2737 11.4106 27.3187 11.2102 27.3177C10.7827 27.3155 10.4506 27.0021 10.3858 26.5821C10.3183 26.145 10.5192 25.7394 10.9327 25.6259C13.3477 24.9632 15.7558 24.2459 17.5226 24.3096Z" fill="#F9BE35"/>
</svg>
