<svg width="96" height="96" viewBox="0 0 96 96" fill="none" xmlns="http://www.w3.org/2000/svg">
<path d="M67.6382 21C72.9542 21 78.4697 21.8324 83.7211 24.0557C87.8853 25.8189 91.0457 28.676 92.9861 32.8053C93.865 34.674 94.2646 36.5897 93.8119 38.6809C93.2918 41.0859 92.8904 43.5184 91.774 45.7408C91.2124 46.8733 90.3645 47.839 89.3145 48.5421C85.1954 51.3718 80.3994 52.5011 75.8081 54.1269C70.7853 55.9079 65.6845 57.4699 60.667 59.2685C58.4591 60.0584 56.3645 61.1718 54.231 62.1664C44.8505 66.5386 35.4747 70.9163 26.1037 75.2997C25.3656 75.6445 24.6612 76.1924 23.7885 75.633C23.7406 75.6149 23.6893 75.6075 23.6382 75.6112C23.5871 75.6148 23.5374 75.6295 23.4926 75.6543C21.9704 76.5204 20.9232 75.5975 19.9707 74.6384C17.2435 71.8823 14.5013 69.1324 12.5813 65.7106C12.4041 65.3968 12.4803 64.9473 12.3235 64.6149C12.1552 64.2603 11.8805 63.9421 11.5988 63.6566C11.34 63.3907 10.9564 63.2364 10.7313 62.9474C8.954 60.6931 7.20945 58.4131 5.43388 56.157C5.13175 55.7731 4.9829 55.4407 5.0077 54.9115C5.0272 54.5055 4.73127 53.9426 4.39547 53.6881C3.38187 52.9213 2.80065 52.0038 2.68635 50.7122C2.60838 49.8204 2.26461 48.9543 2.09184 48.0661C2.00855 47.6432 1.95628 47.1796 2.04665 46.7665C2.22843 45.9398 2.47339 45.1284 2.77938 44.3393C2.89456 44.0414 3.26315 43.8508 3.48819 43.5867C6.38988 40.148 10.2272 38.0125 14.2143 36.2129C18.8082 34.1385 23.5121 32.3018 28.2133 30.4792C35.9818 27.4651 43.8372 24.7108 51.9867 22.882C57.0255 21.7562 62.1086 21.031 67.6382 21ZM24.2758 66.278C24.5904 65.9916 24.9572 65.7461 25.2035 65.4101C25.4498 65.0741 25.5933 64.6353 25.7953 64.2107L25.052 63.9908C24.9713 64.802 24.7986 64.9172 24.0543 65.2576C24.2935 64.9243 24.5806 64.6158 24.7631 64.2532C25.0103 63.7541 24.8854 63.3038 24.4185 62.9288L23.8346 63.576L23.6822 63.505C23.8251 63.0322 23.9675 62.5595 24.1092 62.0867L23.9825 62.0361L23.2029 63.0618L23.3437 61.8757C23.0732 62.0884 22.8036 62.3018 22.5348 62.5157C22.8547 61.8003 22.8547 61.8003 22.3629 61.4094C22.2043 61.8172 22.0484 62.2205 21.8428 62.7506C21.9846 61.8695 22.1024 61.1399 22.2203 60.4103L21.9899 60.3536L21.4902 61.1204L21.3387 61.0637C21.4804 60.3438 21.6213 59.624 21.7817 58.8209L21.2864 59.4095C21.4636 58.8776 21.5717 58.5452 21.702 58.1498C20.8664 58.0408 21.1039 58.8803 20.5501 59.1941C20.9178 58.3847 21.22 57.7172 21.5248 57.0452L21.7613 57.6959C21.9385 57.4778 22.0271 57.2642 22.1467 57.2465C22.8139 57.1454 22.8936 56.9123 22.5011 56.3529L21.5008 57.0709C21.6452 56.3618 21.7906 55.6526 21.9713 54.7661C21.1128 55.1934 20.8115 56.3511 19.8103 56.5071C20.1816 55.5045 20.5244 54.5817 20.8921 53.5889C20.4296 53.7236 20.2002 53.4656 19.8706 53.1722C19.362 52.7201 19.3239 52.2387 19.339 51.6732C19.3452 51.4356 19.3611 51.198 19.3779 50.8425C19.2007 51.3177 19.0749 51.6714 18.9465 52.0242L18.7444 51.9462C18.833 51.7263 18.9642 51.5109 18.9996 51.2822C19.0147 51.1821 18.8375 51.0535 18.748 50.9374C18.8844 50.5163 19.0351 50.0997 19.1405 49.6715C19.1564 49.6077 18.9704 49.4366 18.8605 49.4179C18.7506 49.3993 18.5548 49.5013 18.5336 49.5846C18.4228 50.0172 18.3564 50.4605 18.2625 50.9675L18.7684 50.9188C17.7273 51.7937 17.7184 51.799 17.2444 51.7024C17.9284 51.2033 17.9284 51.2033 18.1039 50.1759C17.2249 50.0447 16.9582 50.9383 16.2911 51.3132C16.393 50.6768 16.4789 50.1404 16.6003 49.3781L15.755 50.4073L15.3563 49.8311L16.02 49.5713C16.2149 49.1352 16.4071 48.7079 16.5516 48.3914L15.6026 48.5315C15.662 48.2575 15.7107 48.0306 15.7595 47.8037C15.8445 47.4993 15.9293 47.1952 16.0138 46.8915L15.7373 46.7222C15.5557 46.9447 15.328 47.145 15.2137 47.3977C15.1658 47.5023 15.3608 47.7168 15.4458 47.8817L14.6484 48.9455C14.776 48.2274 14.9213 47.4074 15.0666 46.5874L14.8061 46.5245C14.6579 46.7756 14.5087 47.0265 14.3587 47.2771C14.2996 47.1589 14.2373 47.0407 14.1717 46.9225L14.0176 46.9393L13.9458 47.7434L13.7225 47.9553L13.3398 47.1468L13.1076 47.2842C13.2503 47.6317 13.3929 47.9792 13.6029 48.4925L12.1764 47.176L12.273 47.0705L12.9198 47.4517C13.0766 46.8578 13.0589 46.4394 12.522 46.122C12.3634 46.0289 12.3102 45.7071 12.2668 45.4793C12.2323 45.2958 12.2854 45.0955 12.2952 44.8996C12.8764 44.5662 12.4157 44.2533 12.2553 43.9661C11.9895 43.4838 11.5996 43.5016 11.1717 43.7427L12.3235 44.9217L11.4969 44.9785L10.3043 44.0556C10.1989 44.4501 10.1271 44.7285 10.0385 45.0573C9.70889 44.6372 10.1085 43.8668 9.17816 43.7817C9.26676 44.3756 9.3403 44.8996 9.42802 45.5086L9.05412 45.1167C8.78832 46.5005 8.78832 46.5005 8.41531 46.7496C8.38784 46.5493 8.2895 46.2993 8.35595 46.2417C9.01425 45.6752 8.51543 45.0467 8.48885 44.4457C8.48885 44.4155 8.53403 44.3827 8.60314 44.2941C8.61499 44.4041 8.63724 44.5127 8.66959 44.6185C8.71969 44.7021 8.77914 44.7798 8.8468 44.8499C9.12235 43.9023 9.12235 43.9076 8.27266 43.9156C8.15039 43.9156 8.03078 43.8269 7.90496 43.8039C7.03136 43.6744 6.07003 44.2808 5.72537 45.0884C5.50387 45.607 5.17605 46.0795 4.89607 46.5732L4.74545 46.4846L5.21326 45.0662L5.08124 44.9997L4.37243 45.9181C4.40345 45.6584 4.42028 45.5112 4.43003 45.4323L3.45541 45.7178L2.86267 47.2824L3.00709 47.3516L3.58566 46.6965L3.86386 46.7913C2.6075 48.2868 2.9176 49.8337 3.50503 51.5925C3.55907 50.433 3.60337 49.4747 3.64856 48.5164C3.66717 49.3976 3.66008 50.2654 3.66982 51.1324C3.67868 51.8327 3.92323 52.4506 4.48584 52.8752C5.09453 53.3335 5.55969 53.8007 5.5969 54.6571C5.61639 55.1003 5.94156 55.5613 6.22154 55.9478C6.97997 56.9947 7.79156 58.0018 8.57125 59.0327C8.65985 59.1515 8.68111 59.3208 8.73428 59.4662L8.99388 59.2889C9.02223 59.023 9.05058 58.757 9.0559 58.7065C9.08071 59.0026 9.12323 59.5132 9.18437 60.2463L9.67965 59.6036C9.78509 60.1355 9.43511 60.8775 10.4221 60.7064C10.5028 60.6931 10.6144 60.8181 10.7021 60.8899C10.8084 60.9786 10.9041 61.077 11.0494 61.2135C11.0317 61.4271 10.8483 61.9227 11.0025 62.0734C11.5226 62.5902 12.1623 62.9856 12.7577 63.4253C12.7683 63.4332 12.8011 63.4093 12.833 63.3969C12.8666 63.2896 12.903 63.1761 12.9393 63.0636L13.151 63.0485C13.2396 63.4722 13.2928 63.9048 13.4169 64.3179C13.5409 64.731 13.6304 65.4021 13.8971 65.4952C14.6776 65.7673 14.6847 66.3817 14.8061 67.0084L14.1053 66.3444C14.1336 66.5271 14.1221 66.6104 14.1593 66.6662C15.4405 68.5039 16.4887 70.5579 18.678 71.5605C18.8109 71.6217 18.9881 71.7289 19.0191 71.8477C19.3469 73.1003 20.5315 73.5923 21.2944 74.6455V73.04C21.2731 74.4008 21.7082 74.985 22.7288 74.7137C23.5121 74.5054 24.2696 74.2199 24.8057 73.5099C25.2841 72.8769 25.9575 72.3663 25.7094 71.4222C25.6757 71.2946 25.7537 71.1093 25.8343 70.9843C26.2277 70.3717 26.6043 69.7778 26.2685 68.9879C26.202 68.8301 26.3925 68.5624 26.4625 68.3452C26.5236 68.1537 26.5821 67.9605 26.6867 67.6227L26.0975 68.066C26.6007 66.6804 26.4873 66.0067 25.7218 65.5395L24.8881 67.2416L24.6887 67.1343C24.9687 66.2487 24.9332 66.1742 24.2758 66.278ZM53.4212 60.6931C53.9679 60.5158 54.4844 60.366 54.985 60.1701C57.8672 59.0327 60.7211 57.82 63.6307 56.7589C65.6987 56.0045 67.8366 55.4389 69.9471 54.8086C73.3636 53.7812 76.8022 52.8238 80.1974 51.7299C82.8333 50.8806 85.416 49.8683 87.7622 48.3489C89.5714 47.1751 90.6966 45.5396 91.1547 43.4369C91.2247 43.1177 91.3018 42.8004 91.3922 42.413C91.4409 42.6656 91.4754 42.8473 91.51 43.0282L91.7129 43.0512C92.0673 41.3882 92.4049 39.7225 92.7761 38.063C93.0853 36.6686 92.8576 35.3459 92.3615 34.0331C91.0227 30.4871 88.6473 27.8578 85.362 26.0246C84.9668 25.8047 84.5433 25.639 84.0329 25.404C84.1215 25.6354 84.1623 25.7365 84.1322 25.6593L81.0231 24.3048C80.9966 24.3553 80.97 24.4059 80.9443 24.4564L81.7045 25.0087L81.6389 25.1053L79.8891 23.9963L79.8005 24.1178L80.3436 24.7073L78.2278 23.5486L78.148 23.6843L78.4608 24.116C78.0072 23.9502 77.6147 23.7676 77.2018 23.6612C76.05 23.366 74.8981 23.0779 73.733 22.8332C72.9259 22.6639 72.1054 22.4946 71.285 22.4609C69.9967 22.4086 68.704 22.4831 67.4131 22.4769C67.0826 22.4769 66.7415 22.2872 66.4243 22.3288C65.3788 22.4671 64.3395 22.6036 63.2843 22.445C63.2356 22.437 63.1744 22.5141 63.1071 22.5558L63.6086 22.8722C63.2365 22.8527 62.9388 22.695 62.6224 22.601C62.3318 22.5123 62.0217 22.4973 61.7205 22.4503L61.6912 22.6161L62.4001 22.9183L62.3655 22.9893L60.4375 22.6347L60.3888 22.8519C60.488 22.9254 60.5882 22.9972 60.6865 23.0717C60.7848 23.1462 60.8797 23.2206 61.1348 23.4174C59.1147 22.7623 59.0554 22.7588 58.1791 23.2286L59.0305 23.6054L59.004 23.6798L57.2913 23.2198L57.2222 23.4423L57.978 23.8944C57.1921 23.7809 56.5497 23.6816 55.9047 23.6018C55.8161 23.5903 55.7124 23.6798 55.6123 23.7135C54.7263 24.0078 53.835 24.3341 52.8931 23.8527L53.2387 23.4449L52.0452 23.7463L52.327 24.1009L52.3943 24.3793C49.9711 23.7853 47.9758 24.9617 45.829 25.5086C45.8369 25.5725 45.8458 25.6354 45.8538 25.6992L46.9817 26.1567L46.956 26.4465C44.6851 25.2604 42.7979 26.1132 40.9018 27.2949L41.9571 27.9855C41.2722 27.9341 40.6449 27.7062 39.9972 27.591C39.6145 27.5227 39.1998 27.6291 38.802 27.6796C38.7843 27.6796 38.802 27.9323 38.802 28.0076L36.7713 28.3037C36.7713 28.3684 36.7713 28.434 36.7713 28.4996L37.2435 28.8135C35.8489 28.5803 35.2207 28.7009 34.7565 29.3258C35.0409 29.2647 35.2881 29.1033 35.561 29.0448C35.8339 28.9863 36.1236 29.0324 36.4062 29.0324L36.4195 29.2274C34.9913 29.5448 33.4319 29.3223 31.9602 30.2407L33.1262 30.4596L29.848 30.9463C29.8595 31.0004 29.8701 31.0545 29.8807 31.1077L30.8979 31.5438C30.5842 31.6218 30.3361 31.4889 30.0765 31.4614C29.5928 31.41 29.0709 31.3062 28.6244 31.4348C28.1185 31.5793 27.7073 32.0296 27.2067 32.2149C25.9663 32.6759 24.6931 33.0615 23.3836 33.4932L23.6494 33.8903L19.4408 34.9692L19.6606 35.2431L16.8741 36.189L16.9396 36.3769L18.4778 36.548L18.4671 36.7962C17.2639 36.6836 16.0634 36.4071 14.9231 37.0985C13.9033 37.719 12.8152 38.2261 11.5899 38.8715L12.6168 39.2899C10.3619 38.8254 9.3155 40.5443 7.80928 41.2756C8.5553 41.3882 9.33765 41.6302 9.96672 41.4192C10.8412 41.124 11.5358 41.3058 12.2535 41.6852C13.6711 42.428 15.1038 43.147 16.4745 43.9687C17.6848 44.6948 18.8136 45.5511 18.7391 47.1955C20.1656 47.5501 21.531 49.7539 21.4955 51.4799C21.8756 51.7157 22.3434 51.8407 22.5047 52.1341C23.3473 53.6748 24.1571 55.2368 24.8854 56.8325C25.1964 57.5151 25.184 58.273 24.5735 58.8971C24.4132 59.0611 24.3618 59.3324 24.2581 59.5602C24.7516 59.6488 25.2868 59.5903 25.5269 59.8261C26.1524 60.4467 27.2599 60.8545 26.8204 62.1017C26.7956 62.1718 26.894 62.279 26.9277 62.3765C27.174 63.0662 27.4229 63.7541 27.6613 64.4465C27.7942 64.8339 27.7871 65.3791 28.0529 65.5918C29.4111 66.6822 28.4702 68.3204 29.0638 69.6173C29.2889 70.1093 28.7174 70.9666 28.5092 71.6562L28.441 71.6394C28.4941 71.275 28.5473 70.9107 28.6111 70.471C27.5479 71.1376 27.7623 72.2041 27.3707 73.1562C28.2283 72.7599 28.9548 72.4266 29.6743 72.0924C34.4534 69.859 39.2317 67.6248 44.0091 65.3897C46.5085 64.216 48.9849 62.9918 51.4924 61.8358C52.1126 61.5512 52.3456 61.1266 52.1507 60.5575C51.8592 59.702 52.5724 59.1958 52.9055 58.7287C53.4132 58.0195 53.586 58.1409 53.6374 57.4459C53.6525 57.2323 53.6888 57.0204 53.7154 56.8077L54.0104 56.8591C53.8545 57.7535 53.6976 58.6471 53.516 59.6834C53.4274 59.3616 53.3698 59.1728 53.306 58.9485C52.4918 59.7357 52.2428 60.3669 52.397 61.5539L53.3929 60.4733L53.4212 60.6931Z" fill="black"/>
<path d="M69.3043 52.2229L68.5954 53.9072L68.3695 53.8487C68.35 53.6501 68.3305 53.4524 68.2986 53.1324L66.2768 55.2546V53.7024L66.0996 53.6572C65.9088 54.208 65.7177 54.7585 65.5263 55.3087L65.4093 55.3202C65.4684 54.6577 65.5257 53.9958 65.5812 53.3345L65.4226 53.2698C65.3181 53.5854 65.1958 53.8956 65.1134 54.2166C65.0168 54.5898 64.9539 54.9718 64.79 55.3512C64.7688 55.0959 64.7475 54.8415 64.7129 54.432L63.7383 55.4727C63.702 55.2396 63.6745 55.0605 63.6763 55.0764L63.1633 55.6535L62.909 55.4452V54.4142C62.5006 55.205 61.9034 55.8167 61.2601 56.5028C61.2185 55.7847 61.1804 55.1314 61.1405 54.4399C60.3015 55.2378 59.3038 55.5436 58.0989 54.9718V56.1606L58.5977 55.6181L58.7421 55.736L58.2663 57.282L58.5773 57.3707C58.6925 56.9274 58.7253 56.4443 58.9503 56.072C59.1124 55.806 59.5306 55.6934 59.9382 55.6234L58.424 57.9469L57.7453 56.9966L57.1615 57.7554C56.7902 58.0435 56.3995 58.3591 55.9928 58.6552C55.7899 58.8032 55.5578 59.0186 55.3425 59.0098C55.1272 59.0009 54.8995 58.7704 54.5185 58.5373L54.056 59.7189L53.9133 59.7269L54.3094 56.5932L54.4201 56.5781C54.5087 56.9327 54.5973 57.2841 54.6859 57.6322H54.7488V56.8255C54.8791 57.1677 54.9393 57.3237 55.0731 57.6747L55.6933 56.5861C55.7066 56.8468 55.7252 57.2013 55.7447 57.5896C56.5625 57.4939 56.3968 56.9416 56.3729 56.4017C56.5864 56.5134 56.784 56.7014 56.9125 56.6615C57.056 56.618 57.1358 56.3689 57.2501 56.1996C57.2669 56.392 57.2846 56.587 57.3014 56.7741C57.3785 56.7891 57.4352 56.8202 57.4662 56.8033C58.2229 56.3867 57.8782 55.7395 57.8029 55.1509C57.6736 54.1368 57.4361 53.1253 57.4149 52.1094C57.3378 48.3046 57.4042 44.4963 57.2722 40.6942C57.1836 38.0347 56.7681 35.3824 56.6617 32.7211C56.5997 31.1902 56.7849 29.6344 57.0161 28.1114C57.1101 27.4962 57.5318 26.8642 57.9633 26.3828C58.6154 25.6532 59.7353 25.8695 60.3981 26.4971C62.6946 28.6735 63.2776 31.5279 63.5718 34.4542C64.1193 39.8928 63.9412 45.3145 62.6857 50.6582C62.4669 51.5935 61.875 52.4383 61.6146 53.37C61.4196 54.0659 61.4817 54.8344 61.417 55.7484C62.2941 55.1429 62.3623 54.3876 62.4332 53.5419L62.8178 54.0206C62.9826 53.4001 63.1261 52.8487 63.2705 52.3018L63.3441 52.3124L62.9418 54.7786L63.0889 54.8318L64.3736 52.7982L64.5836 52.901C64.4719 53.245 64.3922 53.6031 64.2398 53.9267C64.0927 54.2369 63.8703 54.5118 63.6816 54.8016L63.896 54.9319L65.7983 52.378L65.9498 52.4356C65.9046 52.7902 65.8612 53.1359 65.7868 53.69L66.9953 52.1289L67.1654 52.2512L66.5133 53.3957L66.7144 53.4994C67.4108 52.8531 67.8025 52.0872 67.651 51.0678L67.8663 51.7663L68.0514 51.7778C68.2286 50.6296 68.4058 49.4816 68.583 48.3339L68.7106 48.3401C68.6327 49.7469 68.5441 51.1449 68.4555 52.495C69.5417 51.7495 69.0411 50.4561 69.2617 49.3418C69.7676 50.3426 69.2546 51.2584 69.1306 52.1936C69.1343 52.2413 69.1475 52.2877 69.1696 52.3301L69.314 52.2353L69.3043 52.2229ZM61.7085 36.9151C61.8981 36.5268 61.9876 35.9949 62.2977 35.783C62.9055 35.3664 62.754 34.9684 62.5121 34.4188L60.8685 36.5188L62.1825 33.1599L61.3381 33.2672V32.012L60.9598 32.6963C60.9004 32.5509 60.857 32.4463 60.7649 32.2229C60.6993 32.5119 60.6674 32.6555 60.6346 32.8C60.5386 31.9666 60.5036 31.1272 60.5301 30.2886C60.5301 30.0954 60.5558 29.8605 60.6656 29.7195C61.2096 29.021 61.1698 28.5307 60.4521 27.8473C60.422 28.029 60.3945 28.2019 60.3635 28.3738C60.119 27.8756 59.8859 27.3987 59.5608 26.7338C59.3676 27.1771 59.2852 27.3659 59.1125 27.7604C58.9184 27.3242 58.7953 27.0512 58.6083 26.6257C58.2016 27.459 57.6718 28.2214 57.4627 29.0671C57.2696 29.8418 57.4219 30.7035 57.4219 31.5315L57.857 30.9109L57.2474 32.5492L57.4033 32.6378L57.8198 32.2939H57.6248V34.7113L58.059 34.5402C57.414 35.6306 57.4122 35.8212 57.95 35.8894C57.8685 36.1483 57.7852 36.416 57.6585 36.8202L58.2982 36.5472C57.717 37.3752 57.7666 38.9549 58.183 39.0976V41.6578L58.7607 41.586C57.7905 41.9122 58.0856 42.6497 58.1981 43.2995C58.2247 43.4564 58.4222 43.585 58.4205 43.5823C58.4205 44.0256 58.4338 44.3881 58.4205 44.7498C58.4001 45.1691 58.3531 45.5875 58.3186 46.0051L58.922 46.0937L59.1054 46.3597L58.1742 46.7045L58.4222 46.9891L58.9636 46.7302C58.7784 47.0334 58.5206 47.2364 58.3292 47.4935C58.1307 47.7647 58.1476 47.9961 58.5879 47.9252C58.3266 48.4739 57.9163 49.0032 58.3221 49.6822C59.0416 49.0262 59.1195 48.4331 58.572 47.9474L58.984 47.5821C58.984 47.958 58.9406 48.1734 58.9919 48.3622C59.1736 49.0227 59.0646 49.5342 58.4347 49.9207C58.2743 50.0191 58.2575 50.3488 58.113 50.73L58.5445 50.4969L58.0271 52.0287L58.7421 51.8071L58.8404 51.9649L57.989 52.5145L58.1564 52.6812L58.6774 52.5615C58.4559 52.7388 58.2707 52.8168 58.2344 52.9329C58.1299 53.323 57.9403 53.7751 58.0572 54.1119C58.1458 54.3779 58.634 54.6527 58.9521 54.6625C60.0242 54.6953 61.5605 52.9781 61.5215 51.7734L60.1163 52.2291L60.7569 50.5846L61.712 49.8187C59.924 50.199 61.1521 48.5874 60.383 48.1442C60.2333 48.6113 60.1021 49.0218 59.9994 49.3453C59.7273 48.2816 60.0782 47.4642 61.2398 46.9988C62.1665 46.6265 62.5626 45.8074 62.8674 44.8021L61.9707 45.0681L63.0171 44.0832L62.7602 43.811C62.4944 44.0433 62.2498 44.319 61.9486 44.4945C61.6473 44.67 61.2929 44.741 60.9616 44.8571C62.4394 44.1399 62.6361 42.6763 63.1695 41.422C62.5493 41.7065 62.4988 42.6347 61.6083 42.6054L62.7389 41.2881L62.6344 41.1817L61.2406 41.9086C62.6131 40.7562 63.0942 39.7979 62.8647 38.9168L62.2286 39.8591L61.9902 39.6224C62.0106 38.7944 63.2944 38.4877 62.87 37.3574C62.614 37.6331 62.4137 37.8512 62.2108 38.0666C62.0212 38.2679 61.829 38.4664 61.6376 38.6668C62.109 38.0205 62.1417 37.2555 61.7085 36.9151ZM62.6831 35.6598C62.4323 36.3256 62.2144 36.9062 61.9964 37.4869L62.2357 37.5693C62.6663 37.0401 63.228 36.5472 62.6831 35.6598Z" fill="black"/>
<path d="M39.9063 63.6025L39.3144 64.0697C39.2347 64.0227 39.0867 63.8658 38.9246 63.8498C37.926 63.7497 37.3625 63.1052 37.1525 62.2364C36.8895 61.1607 36.7285 60.0625 36.6714 58.9565C36.4818 54.7492 36.4216 50.5349 36.1859 46.3312C36.022 43.4155 35.602 40.5159 35.3929 37.602C35.3059 36.2374 35.3356 34.8678 35.4815 33.5082C35.594 32.3904 36.4685 31.8009 37.4573 31.4321C38.4913 31.042 39.3366 31.3966 40.0144 32.1945C41.6092 34.08 42.4066 36.3494 42.9834 38.6959C44.3124 44.0972 44.0741 49.511 43.0986 54.9398C42.6228 57.586 41.7403 60.0814 40.5628 62.4749C40.3856 62.8384 40.087 63.1433 39.8451 63.4757C39.8664 63.5227 39.8859 63.5626 39.9063 63.6025ZM40.4219 38.5532L40.5655 37.5054L40.2997 37.3591L39.6679 38.2456C39.5891 38.1232 39.4128 37.9468 39.4455 37.891C39.7999 37.2705 40.0799 36.5613 40.585 36.0879C41.043 35.6633 41.0076 35.3459 40.8339 34.8867L40.1765 34.9878C40.2208 34.5933 40.2651 34.1961 40.3103 33.799L40.0773 33.7653L39.7486 34.2387C39.7716 33.8185 39.7884 33.5144 39.8053 33.2113L39.535 33.2006C39.4978 33.5588 39.4603 33.9172 39.4225 34.2759C39.2825 33.8859 39.3782 33.5135 39.3534 33.1483C39.333 32.8584 39.248 32.4489 39.0459 32.3221C38.7199 32.1164 38.2751 32.0987 37.8365 31.9906C37.7763 32.2033 37.716 32.4152 37.6593 32.6279C37.5849 32.487 37.5096 32.3469 37.3864 32.1147C37.1339 32.5065 36.9984 32.9852 36.7255 33.0845C36.1221 33.3043 36.1053 33.7777 36.061 34.2218C35.9384 35.1962 35.8721 36.1768 35.8625 37.1588C35.8678 37.8795 35.8971 38.6658 36.1841 39.2996C36.4304 39.8448 36.3277 40.4219 36.6457 41.0061C37.0258 41.7029 36.6741 42.7977 36.6457 43.7196C36.6404 43.8783 36.6457 44.0379 36.6457 44.3109L37.126 43.6779C36.931 44.2098 36.6954 44.5875 36.7016 44.9625C36.7016 45.1238 37.2057 45.2772 37.4653 45.4261L36.7565 45.6965L37.3599 46.3338H36.449L37.2314 47.0785C37.1074 47.1671 36.7981 47.3169 36.8159 47.3905C36.8628 47.5935 37.0462 47.7655 37.1401 47.9003C37.0338 47.9942 36.6971 48.1662 36.7131 48.3054C36.7317 48.5093 36.9984 48.691 37.1463 48.8683V52.5463L38.2175 51.8371C38.2618 51.8983 38.3061 51.9603 38.3487 52.0224C38.0456 52.2839 37.7284 52.533 37.444 52.8123C37.3049 52.9479 37.1304 53.1385 37.1286 53.306C37.1233 53.7493 37.0985 54.243 37.2748 54.6278C37.4954 55.1065 37.1791 55.4566 37.1818 55.8688L37.3501 56.7908V59.382L38.0713 59.0974C37.6204 59.4795 37.087 59.7818 37.5255 60.5025H38.4195C38.0448 60.7002 37.833 60.7853 37.6593 60.92C37.6044 60.9635 37.6212 61.1523 37.6647 61.2471C37.6886 61.2994 37.8516 61.3358 37.9305 61.3074C38.6561 61.0619 39.3755 60.8021 40.0959 60.5468L37.6221 61.7693C39.2497 62.1088 40.4786 61.5539 40.7515 60.4218L40.0737 60.5663L41.0705 59.8376L40.9411 59.616L39.2834 60.2365L39.2462 60.1133L40.5079 58.9937H39.4057C40.0985 58.6825 40.8791 58.5717 41.1423 57.5975L40.6062 57.9122L40.4458 57.7633L41.4798 56.5727L40.7781 56.7323C41.206 55.6685 41.6287 54.6207 42.0504 53.572L41.774 53.4408C41.634 53.7516 41.4934 54.0625 41.3522 54.3734C41.2636 54.1641 41.2929 53.9656 41.3186 53.767C41.3903 53.2041 41.3336 52.5791 41.5658 52.0915C41.8484 51.4985 42.3836 51.0278 42.7894 50.4906C42.94 50.2884 43.1251 50.0473 43.1358 49.8168C43.1677 49.1076 43.1225 48.3905 43.1065 47.6059L42.1993 48.847L42.131 48.7859C42.3407 48.3337 42.5504 47.8813 42.7601 47.4286L42.5741 47.34C42.3552 47.621 42.1355 47.9003 41.9184 48.183C41.7261 48.433 41.5365 48.6866 41.346 48.9392L41.1555 48.8151C42.3074 48.0669 41.4098 46.8542 41.8537 45.9598L41.9875 46.262L42.1771 46.2957C42.1408 45.1371 43.6116 44.5263 43.1632 43.1868L42.7388 43.3819L43.1579 41.6266L42.8921 41.5477L42.3844 42.7658L42.2958 42.7188C42.3496 42.3878 42.4039 42.0572 42.4589 41.7268C42.2037 41.8154 42.1585 41.967 42.0628 42.0681C41.8856 42.2507 41.6845 42.4041 41.4931 42.5698C41.44 42.3757 41.3886 42.1816 41.3345 41.9874C41.2459 41.6834 41.1644 41.3802 41.0793 41.077L40.8747 41.0983L41.7323 39.5913L42.0212 40.3652L42.1576 40.3395V38.3998C41.3469 39.0496 41.183 40.1187 40.1818 40.3838C40.3324 39.9405 40.6 39.5629 40.7568 39.1427C40.8348 38.9317 41.1998 38.3617 40.4219 38.5532ZM41.0625 56.3954C41.9087 56.0718 42.5386 54.9372 42.4093 54.0303L41.0625 56.3954ZM38.206 62.6363C38.3965 62.7621 38.626 63.0174 38.7376 62.9731C39.1257 62.826 39.4721 62.5715 39.8345 62.3588L39.7459 62.2125L38.206 62.6363Z" fill="black"/>
<path d="M76.2337 47.6194L76.1079 47.8259L75.9094 47.724C75.9901 47.0148 76.0928 46.3056 76.1469 45.5964C76.441 41.7278 76.8388 37.8619 76.9585 33.9835C77.0161 32.1219 76.5217 30.2461 76.3117 28.373C76.2098 27.4661 76.4508 26.5779 77.1693 26.0336C77.5113 25.7738 78.1891 25.8199 78.6702 25.9272C79.0308 26.007 79.3906 26.3536 79.6307 26.6718C81.0199 28.5139 82.1859 30.4979 82.1877 32.8772C82.1877 35.5916 82.2967 38.3574 81.8182 41.0036C81.4266 43.1693 80.2234 45.1851 79.4207 47.2825C79.1602 47.9651 78.6764 48.388 78.0261 48.3241C77.4449 48.2656 76.8938 47.8907 76.2337 47.6194ZM78.0057 44.655C78.2113 44.5477 78.4062 44.3891 78.6259 44.3412C79.4747 44.1728 79.6892 43.5061 79.8867 42.8138C80.1047 42.0372 80.2323 41.2261 80.7789 40.5798C80.7931 40.5639 80.7435 40.4912 80.709 40.4132L80.0312 40.7164C80.1392 40.0072 80.2403 39.3459 80.3554 38.5888L79.5182 38.9895L80.6948 37.8849L79.7751 37.7351L80.9437 35.7999L80.5548 35.6652C80.5632 35.6162 80.5781 35.5685 80.5991 35.5233C81.1821 34.5792 80.8906 33.5651 80.8117 32.574C80.8038 32.4747 80.53 32.3967 80.3794 32.3081C80.5406 31.9694 80.701 31.6308 80.8915 31.2283C80.3971 31.3427 79.9975 31.4127 80.2394 30.7426C80.5158 29.9775 80.0852 30.0671 79.4792 30.3188C79.5598 29.8117 79.6254 29.4004 79.6909 28.9891L79.8504 29.0068L79.4287 27.7232L79.3401 27.7436L79.3861 28.6301C79.232 28.3694 79.201 28.0982 79.0946 27.8544C79.006 27.6487 78.8288 27.4812 78.587 27.1674C78.3956 27.4785 78.2326 27.748 78.0394 28.0592C77.7736 27.9856 77.5494 28.0148 77.6177 28.5467C77.6566 28.8437 77.4741 29.1673 77.3926 29.4829C77.3527 29.6336 77.3173 29.7852 77.2633 30.0059L77.864 29.7781C77.4537 30.2213 77.2606 31.957 77.5291 32.2815C77.6017 32.3701 77.8161 32.3382 77.8011 32.3356C77.7638 32.8878 77.7266 33.4366 77.6868 34.0252L78.5728 33.8479C78.2184 34.0252 78.2184 34.0252 77.6868 35.6891L78.0412 35.4719C77.9526 35.9302 77.8595 36.4471 77.7337 37.1226L78.548 36.5242C78.4452 37.2032 77.2048 37.2334 77.7506 38.2971L78.1714 37.463L78.26 37.6651L78.9006 37.5188L79.061 37.6731C78.7408 37.9987 78.4204 38.3237 78.0996 38.6482C77.9738 38.775 77.7647 38.8805 77.7319 39.0267C77.5861 39.6621 77.4746 40.3048 77.3979 40.9522C77.2969 41.8484 77.2322 42.7491 77.1782 43.6488C77.1481 44.1346 77.1729 44.624 77.1729 45.1816L77.6912 44.9493L76.9381 45.8934C77.7789 46.139 78.0837 44.6107 78.9972 45.4218C79.3392 44.9954 80.1685 44.8163 79.9319 44.0504L78.0057 44.655ZM77.2606 46.9022L76.954 46.6886C77.1038 46.9545 77.2535 47.2267 77.436 47.5565C77.5556 47.2019 77.6531 46.9652 77.7196 46.7152C77.786 46.4652 77.8206 46.2161 77.8684 45.9661L77.6912 45.8952L77.2606 46.9022Z" fill="black"/>
<path d="M76.7441 50.4747C76.5172 50.8958 76.2913 51.3168 76.0999 51.6732C75.423 51.4675 75.4744 52.3301 75.0367 52.5597C75.1581 51.9799 75.2653 51.4658 75.3734 50.9516L75.1005 50.863C74.9357 51.2991 74.7709 51.7344 74.6114 52.1546C74.0355 51.5757 74.1046 52.4453 73.6616 52.5038C73.8955 51.9037 74.1268 51.3124 74.4395 50.5075L73.7307 50.9853L73.6909 50.9498L74.9844 49.8666C74.9977 49.9614 75.0367 50.23 75.073 50.4977L75.2502 50.5429L75.5905 49.0412L75.781 49.0528C75.726 49.8163 75.6708 50.5802 75.6153 51.3443L75.7526 51.4135L76.7272 49.5519L76.8965 49.965L77.1729 49.8843V51.136L78.532 49.457C78.6446 49.402 78.7872 49.3684 78.8864 49.2797C79.0016 49.1769 79.0769 49.0297 79.2408 48.9402C79.302 49.6316 79.2798 49.5917 78.7518 49.8878C78.5382 50.0084 78.4452 50.3426 78.3203 50.5438C77.5007 50.4818 77.6345 51.6218 76.9222 51.7016V50.5447L76.7441 50.4747Z" fill="black"/>
<path d="M39.8984 65.8719C40.5186 64.8967 41.1486 63.9216 41.0077 62.6726L41.2141 62.6468C41.3027 63.0945 41.3842 63.5422 41.4799 64.0342C41.876 63.4207 42.2711 62.8108 42.6557 62.216C42.6743 62.4102 42.6991 62.677 42.7248 62.9438L42.9906 62.9793C43.1926 61.7613 43.394 60.5432 43.5948 59.3252L43.7153 59.3403C43.5222 60.8089 43.3293 62.2778 43.1368 63.747L43.3078 63.8126L44.2168 60.9093C44.5172 62.505 43.6551 63.5431 42.7354 64.7948C42.7895 64.3187 42.824 64.0546 42.8665 63.6424L42.2614 64.7372L42.1241 64.6751L42.5316 63.1805C41.5411 64.434 40.6382 65.574 39.7363 66.7149L39.5493 66.605L39.9241 65.8497L39.8984 65.8719Z" fill="black"/>
<path d="M49.99 60.2392L48.7549 62.2506L48.5981 62.24V61.271L47.3054 62.6646C47.2416 62.3986 47.208 62.263 47.1557 62.044L46.7632 62.5121C46.9404 61.5609 47.1114 60.5929 47.2877 59.6257L47.3568 59.6169V60.9679C48.1073 60.2489 47.7041 59.3412 47.8973 58.4387C48.063 59.1754 48.2092 59.8225 48.3819 60.5876L49.4956 59.6124V60.4377L50.0042 60.256L49.99 60.2392Z" fill="black"/>
<path d="M87.7058 47.1618L86.258 48.8116L86.1747 48.0138L84.6685 49.269L84.5259 49.1352C84.9104 48.7416 85.3295 48.3763 85.6688 47.9473C85.986 47.5653 86.2421 47.1364 86.4281 46.6761C86.631 46.1273 86.701 45.5298 86.9961 44.982C86.8455 45.8336 86.6942 46.6858 86.5424 47.5386L86.6762 47.5891C87.1417 46.4125 87.6065 45.2361 88.0708 44.06L88.3154 44.1558C88.2409 44.4672 88.1662 44.7784 88.0912 45.0893L88.2613 45.185C88.4952 44.7967 88.7787 44.4288 88.948 44.0148C89.1252 43.5716 89.2023 43.084 89.3228 42.616L89.531 42.6727C89.3201 43.4129 89.1854 44.1886 88.8691 44.88C88.6768 45.3011 88.1603 45.5582 87.8688 45.9518C87.5773 46.3454 87.3895 46.8321 87.0847 47.4145L87.7262 47.1778L87.7058 47.1618Z" fill="black"/>
<path d="M32.2751 68.4329C33.0574 67.4844 32.6871 66.4543 32.8067 65.488C33.4659 66.246 32.9068 68.3789 31.6806 69.7538C31.7267 69.4347 31.7621 69.1873 31.833 68.69L30.41 70.775L30.2178 70.6775C30.5536 69.9568 30.8885 69.2361 31.1968 68.5721L31.3847 68.909C31.4865 68.4657 31.5539 68.1696 31.6248 67.8576L31.949 68.2477C31.988 68.0881 32.0182 67.964 32.0793 67.7104C32.1528 67.9844 32.198 68.1493 32.2751 68.4329Z" fill="black"/>
<path d="M72.4017 51.9728C72.2076 51.9976 71.9312 51.9497 71.8329 52.0614C71.4953 52.4417 71.2189 52.8761 70.9123 53.3025C70.7882 52.283 71.0354 51.5295 71.5325 50.768C71.7611 50.4134 71.7664 49.9214 71.8922 49.4126V51.4311L72.0597 51.471L72.376 50.6315L72.539 50.6439L72.3795 51.9994L72.4017 51.9728Z" fill="black"/>
<path d="M50.0041 60.2568C50.1963 59.8774 50.4099 59.5069 50.5729 59.1151C50.6769 58.8727 50.7341 58.6128 50.7412 58.3491C50.7412 58.0832 50.6526 57.8075 50.603 57.5371L50.8405 57.5132L50.9973 59.8473C51.6317 59.5893 51.4598 58.5938 52.22 58.561L51.5998 60.115L51.4447 59.7985L50.292 61.1575L50.1786 61.1061C50.2317 60.9662 50.2944 60.8303 50.3665 60.6992C50.4719 60.5308 50.6385 60.3934 50.7111 60.2152C50.7838 60.037 50.7705 59.8251 50.7997 59.6124L49.9961 60.2391L50.0041 60.2568Z" fill="black"/>
<path d="M35.6978 67.2239C35.5206 67.9198 35.432 68.6662 34.7179 69.0855C34.9128 68.5761 35.1077 68.0675 35.3026 67.5599L35.0661 67.4393L34.1287 68.9836V65.0378H34.3652V67.6902L34.5424 67.7017C34.7196 67.4154 34.9066 67.1299 35.0448 66.9128L35.7102 67.2443L35.6978 67.2239Z" fill="black"/>
<path d="M83.9933 48.6378L84.758 45.4031L84.8466 45.4217C84.6328 46.6563 84.4195 47.89 84.2069 49.1228C83.1986 48.9393 83.1437 49.9818 82.5952 50.152L83.8569 47.1078C83.7834 47.6246 83.716 48.0944 83.6487 48.5643L83.9933 48.6378Z" fill="black"/>
<path d="M45.0708 61.0938C45.4854 61.3907 45.5448 61.7214 45.2187 62.1292C45.1452 62.2178 45.1673 62.4066 45.1824 62.5458C45.2249 62.9155 45.2878 63.2834 45.3428 63.6521L45.1239 63.6761L44.7934 62.9102L44.2069 64.0954L44.0908 64.0555C44.4181 63.0656 44.7447 62.0783 45.0708 61.0938Z" fill="black"/>
<path d="M46.1368 63.1601C45.4962 62.1283 45.5485 61.9049 46.3627 60.865C46.5648 60.6071 46.5674 60.1922 46.7003 59.8589C46.5958 60.4794 46.843 61.1345 46.306 61.7382C46.0606 62.0148 46.1864 62.6212 46.1368 63.1601Z" fill="black"/>
<path d="M33.0254 69.2228C33.2212 68.2477 33.4471 67.1281 33.6731 66.0049C33.9548 67.2663 33.8804 68.4338 33.0254 69.2228Z" fill="black"/>
<path d="M35.71 67.2425C35.8677 66.2354 36.0272 65.2346 36.1158 64.6265V67.2256L36.3134 67.2974L36.9567 65.8959L37.1401 65.9757C37.0143 66.3214 36.9372 66.6955 36.7502 67.004C36.5473 67.3391 36.2434 67.6121 36.0281 67.8612C35.9395 67.6839 35.8155 67.457 35.6941 67.2247L35.71 67.2425Z" fill="black"/>
<path d="M39.9204 65.8525L39.527 65.0768L38.4558 67.1547L38.3433 67.0909C38.5435 66.3649 38.7429 65.6388 38.9254 64.9749L39.0095 65.2754L39.7671 64.4775C39.8238 65.083 39.861 65.4757 39.8982 65.8693L39.9204 65.8525Z" fill="black"/>
<path d="M69.3112 52.2351L70.0865 51.0419C69.9908 50.9763 70.0448 50.9958 70.0732 51.0348C70.3549 51.4213 70.1379 53.0489 69.7188 53.4399C69.5079 53.0498 70.1352 52.3592 69.305 52.2254C69.3041 52.2227 69.3112 52.2351 69.3112 52.2351Z" fill="black"/>
<path d="M85.9496 43.3907L85.6572 47.1344L85.387 47.1131C85.4304 46.5147 85.4454 45.9128 85.527 45.3188C85.6156 44.6673 85.7671 44.0246 85.892 43.3774L85.9496 43.3907Z" fill="black"/>
<path d="M87.7225 47.1804L89.5175 45.301C89.4998 45.7629 89.5539 46.5084 88.7379 46.8497C88.4083 46.9871 88.0521 47.0607 87.7065 47.1626L87.7225 47.1804Z" fill="black"/>
<path d="M82.0112 49.3852C82.296 48.8633 82.5807 48.3409 82.8654 47.8179L83.1374 47.9766C82.8521 48.543 82.5659 49.1086 82.27 49.6963L81.9971 49.3692L82.0112 49.3852Z" fill="black"/>
<path d="M14.8657 37.7483H16.8894L16.8956 37.8848H14.8719C14.8702 37.8396 14.8675 37.7935 14.8657 37.7483Z" fill="black"/>
<path d="M79.7007 50.6475L80.3519 49.1609L80.5628 49.2123C80.7099 49.8027 79.8885 50.1369 80.025 50.7246L79.7007 50.6475Z" fill="black"/>
<path d="M81.9927 49.3693C81.7175 49.8131 81.4425 50.2564 81.1678 50.699L81.0376 50.6414C81.221 50.1006 81.4044 49.5599 81.5825 49.0369L82.0069 49.3826L81.9927 49.3693Z" fill="black"/>
<path d="M72.3795 51.9959L73.1999 51.4241C73.1548 51.7317 73.1113 52.0287 73.067 52.3247L72.966 52.1794L72.1846 52.6962C72.2492 52.4808 72.3246 52.2272 72.4016 51.9737L72.3795 51.9959Z" fill="black"/>
<path d="M15.6985 66.5449C14.5228 65.6584 14.1126 64.4227 13.8308 63.1231C13.7422 62.6967 13.6279 62.2623 13.6332 61.8332C13.6332 61.585 13.7369 61.2065 14.218 61.4786C14.3598 61.5593 14.669 61.3448 14.8214 61.2925L15.4894 61.7694C15.578 62.0132 15.734 62.3013 15.788 62.6116C15.8669 63.0637 16.0831 63.7028 15.8722 63.9555C15.1598 64.8171 15.1873 65.6291 15.6985 66.5449Z" fill="black"/>
<path d="M16.029 59.5255C16.5775 58.8332 16.5846 58.6204 16.029 58.4556L16.9656 57.3608C16.9284 57.3111 16.892 57.2615 16.8548 57.2127C16.4118 57.4583 15.8678 57.6143 15.5595 57.9742C15.2511 58.3341 15.2051 58.8846 14.9827 59.5105C14.8055 58.0469 15.8935 57.4077 16.4348 56.4964C16.5128 56.3652 17.1304 56.3484 17.2464 56.4876C17.5238 56.8209 17.8666 57.2101 17.5955 57.7517C17.4254 58.0956 17.3297 58.4786 17.2092 58.8456C16.9673 59.569 16.9018 59.6089 16.029 59.5255Z" fill="black"/>
<path d="M22.506 62.8037C22.4528 63.6015 22.4599 63.6078 22.9729 63.3595C22.9428 63.5094 22.8462 63.6875 22.895 63.8028C23.5311 65.3461 22.211 66.4977 22.0851 67.8806C22.0781 67.9577 21.9691 68.0393 21.8902 68.0898C21.8344 68.1261 21.7476 68.1137 21.5757 68.135C21.9487 67.237 22.2996 66.3949 22.6513 65.5483C21.6191 65.3523 21.402 64.8471 21.9203 63.9579C22.1383 63.5918 22.312 63.192 22.506 62.8037Z" fill="black"/>
<path d="M11.0063 49.8436L11.2066 48.6397L11.7648 48.8418C11.7949 48.8011 11.8241 48.7594 11.8534 48.7177L11.4423 48.2249C11.6912 48.13 11.9136 47.9678 12.121 47.9846C12.4895 48.0148 12.836 49.1583 12.7412 49.7257C12.6384 50.3178 12.2893 50.4526 11.7967 50.2868C11.5025 50.1902 11.2473 49.9836 11.0063 49.8436Z" fill="black"/>
<path d="M20.788 60.9963C20.1217 61.3873 21.4552 62.2374 20.3698 62.6248C19.902 62.7932 19.7416 63.6664 18.9646 63.5999L19.9436 62.9794H19.0488L19.7992 62.5867L19.6273 62.4528C19.7257 62.3154 19.8648 62.1869 19.9109 62.0371C19.9755 61.819 19.8896 61.499 20.0172 61.3704C20.2068 61.1754 20.5222 61.1134 20.788 60.9963Z" fill="black"/>
<path d="M9.11743 53.8894C9.25211 53.4213 9.33185 53.1474 9.4107 52.8735L9.3221 52.8788C9.5879 52.1732 9.85371 51.4672 10.1195 50.761L10.3658 50.855C10.1325 51.6232 9.89978 52.3915 9.66764 53.1598L9.88029 53.2103L9.11743 53.8894Z" fill="black"/>
<path d="M23.0587 71.2317C22.6512 70.574 22.3942 70.0279 22.8975 69.4277L23.484 70.285L23.0587 71.2317Z" fill="black"/>
<path d="M24.0485 72.3335L23.3096 73.5746C23.5506 72.3335 23.9218 71.8956 24.7573 71.9328L24.0839 73.3406L23.9714 73.2909C24.0736 73.0013 24.1752 72.7118 24.2762 72.4222L24.0485 72.3335Z" fill="black"/>
<path d="M16.418 67.7707L17.4138 66.6262L17.5999 66.7317L16.6031 68.9479L16.5066 68.908L16.7582 67.9231L16.418 67.7707Z" fill="black"/>
<path d="M6.35837 54.8884L7.44107 56.7066L7.18767 56.8449L6.11914 55.001L6.35837 54.8884Z" fill="black"/>
<path d="M16.5963 55.1979L15.9716 55.7696L15.8635 55.634L17.1855 54.5791C17.2528 54.6243 17.3201 54.6678 17.3884 54.7138L17.096 55.4479L16.5963 55.1979Z" fill="black"/>
<path d="M15.6153 56.7402L15.0119 57.4911L14.8445 57.4024L15.3469 56.0408L15.5825 56.1294L15.1395 57.0212L15.6153 56.7402Z" fill="black"/>
<path d="M19.2162 67.9551L18.2939 68.9976C18.1078 67.9577 18.1078 67.9577 19.2162 67.9551Z" fill="black"/>
<path d="M12.5091 58.2173L13.0123 59.547L12.8741 59.6117C12.7607 59.4185 12.6464 59.2261 12.5197 59.0151L12.3425 59.3307L12.2158 59.3015L12.2956 58.2288L12.5091 58.2173Z" fill="black"/>
<path d="M4.49683 49.0971C4.56151 48.8196 4.62441 48.5403 4.68732 48.262L4.86984 48.1733L5.45992 49.3923L4.49683 49.0971Z" fill="black"/>
<path d="M23.4981 66.2957C23.5318 66.4304 23.5646 66.5616 23.5982 66.6981L22.6839 68.526L22.5217 68.4471L23.4981 66.2957Z" fill="black"/>
<path d="M84.2574 42.0398L84.6871 41.0327L84.8643 41.1036C84.8156 41.3536 84.781 41.6072 84.7155 41.8527C84.6499 42.0983 84.5515 42.3447 84.4319 42.694C84.2494 42.3642 84.0997 42.0956 83.95 41.8261L84.2574 42.0398Z" fill="white"/>
<path d="M61.5002 37.0215C61.5522 37.5634 61.6047 38.1056 61.6579 38.6482L60.5743 40.1339L60.3696 39.9814C60.8623 39.3095 61.6987 38.7288 61.3053 37.7652C61.1378 37.3601 61.3088 37.2351 61.5002 37.0215Z" fill="black"/>
</svg>
