<svg width="96" height="96" viewBox="0 0 96 96" fill="none" xmlns="http://www.w3.org/2000/svg">
<path d="M88.2179 51.3258C88.8535 47.9263 90.1016 44.6442 89.8665 41.1347C89.6261 37.5052 86.9 36.0404 83.4064 35.9729C81.2927 35.9329 79.1609 36.3328 77.0911 36.7003C74.3831 37.1802 71.6828 37.6477 69.0058 38.2751C63.4579 39.5774 58.06 41.3872 52.5302 42.7545C53.8959 41.8124 54.9317 40.4894 55.4992 38.9625C56.0574 37.3527 55.3752 35.7904 54.3364 34.5356C51.7291 31.391 46.7084 30.0362 42.835 29.1888C41.115 28.7748 39.3514 28.5534 37.5791 28.5289C35.7703 28.5289 33.8272 28.5289 31.9744 28.8289C33.7497 28.1115 35.4887 27.3091 37.2381 26.5267L37.7368 26.3092C39.2613 26.1742 40.7626 25.8093 42.2846 25.6668C44.4113 25.4568 46.0469 26.1942 48.0392 26.6666C48.1 26.6812 48.1641 26.6763 48.2217 26.6527C48.2794 26.629 48.3276 26.5879 48.3591 26.5355C48.3905 26.4831 48.4036 26.4222 48.3962 26.362C48.3888 26.3018 48.3615 26.2456 48.3183 26.2017C46.6257 24.5644 43.9255 24.4244 41.3595 24.8569C43.3249 24.1404 45.3318 23.5353 47.3699 23.0446C47.6749 22.9721 47.9798 22.9046 48.2847 22.8347C48.9953 22.9396 49.7059 23.0146 50.4268 23.0846C51.9953 23.2171 53.4398 23.6221 54.9747 23.862C55.0401 23.8769 55.1088 23.8688 55.1686 23.8393C55.2285 23.8098 55.2756 23.7607 55.3016 23.7008C55.3276 23.6409 55.3308 23.574 55.3107 23.512C55.2906 23.45 55.2484 23.3969 55.1917 23.3621C53.8119 22.5172 52.0909 22.4222 50.3803 22.4122C55.8725 21.4031 61.4679 21.0198 67.0523 21.2699C71.52 21.4548 76.1221 22.1597 80.1997 24.0195C84.5486 25.9917 86.8328 29.3238 87.2566 33.9057C87.2661 34.0377 87.3269 34.1613 87.4269 34.2515C87.5269 34.3418 87.6586 34.392 87.7954 34.392C87.9322 34.392 88.0638 34.3418 88.1638 34.2515C88.2638 34.1613 88.3247 34.0377 88.3341 33.9057C89.5615 23.7195 76.8017 20.605 68.8094 20.12C62.1582 19.7176 55.3002 20.51 48.8041 21.8698C45.2338 22.5875 41.7575 23.6884 38.4396 25.1518C34.8995 26.7391 31.4628 28.5514 27.9098 30.0887C27.8991 30.0952 27.8903 30.1043 27.8842 30.115C27.8782 30.1257 27.875 30.1377 27.875 30.1499C27.875 30.1621 27.8782 30.1742 27.8842 30.1849C27.8903 30.1956 27.8991 30.2046 27.9098 30.2112C26.1708 31.236 25.1139 32.7108 24.747 34.7781C24.4214 36.6203 24.716 39.2575 26.6126 40.2348C26.6288 40.2384 26.6456 40.2384 26.6617 40.2348C26.2237 43.1436 26.1508 46.0929 26.4447 49.0186C26.4447 49.1181 26.4855 49.2135 26.5582 49.2838C26.6309 49.3541 26.7295 49.3936 26.8323 49.3936C26.9351 49.3936 27.0337 49.3541 27.1063 49.2838C27.179 49.2135 27.2199 49.1181 27.2199 49.0186C27.5138 46.0929 27.441 43.1436 27.0028 40.2348C26.997 40.2129 26.9865 40.1923 26.972 40.1745C26.9576 40.1566 26.9395 40.1418 26.9189 40.1311C26.8983 40.1203 26.8756 40.1137 26.8522 40.1118C26.8289 40.1098 26.8054 40.1126 26.7832 40.1198C26.7826 40.1066 26.7794 40.0936 26.7736 40.0816C26.7679 40.0696 26.7597 40.0588 26.7496 40.0498C25.132 38.5125 25.318 35.8904 25.8994 33.9457C26.6746 31.321 29.3 30.4836 31.822 30.0862C35.4267 29.5163 39.2148 29.8362 42.7497 30.6286C46.1089 31.3785 49.6594 32.5233 52.3777 34.6431C55.9618 37.4377 53.8532 40.9797 50.7679 43.2369C50.7623 43.2424 50.7571 43.2482 50.7524 43.2544C50.7279 43.2711 50.7079 43.2932 50.6939 43.3188C50.68 43.3444 50.6726 43.3729 50.6723 43.4019C50.4397 48.2588 49.9462 53.2856 50.3441 58.1499C50.0108 58.1499 49.68 58.1824 49.3493 58.2049C49.3219 58.1736 49.2874 58.1488 49.2485 58.1324C46.6335 57.0151 44.419 55.4228 41.6748 54.5554C39.8918 53.9905 38.114 53.5231 36.4112 52.7482C35.0856 52.1457 33.8117 51.4683 32.4344 50.9809C32.4471 50.945 32.452 50.907 32.4489 50.8691C32.4457 50.8313 32.4346 50.7945 32.4162 50.761C32.3978 50.7275 32.3725 50.698 32.3419 50.6744C32.3112 50.6507 32.2759 50.6334 32.238 50.6234C30.7574 50.3435 29.1785 50.521 27.6772 50.5609C25.7547 50.6109 23.8348 50.7059 21.9123 50.8109C18.1113 50.9984 14.2844 51.0834 10.4962 51.4683C10.4775 51.4395 10.4483 51.4184 10.4144 51.4092C10.3805 51.3999 10.3443 51.4032 10.3127 51.4183C8.9613 52.1082 8.49101 53.0631 8.57629 54.133C8.09566 54.9729 8.51427 56.7001 8.65122 57.3825C8.65511 57.4155 8.6664 57.4472 8.6843 57.4755C8.70219 57.5037 8.72625 57.5279 8.7548 57.5462C8.78336 57.5646 8.81571 57.5766 8.8496 57.5816C8.88348 57.5866 8.91808 57.5843 8.95097 57.575C9.37991 59.8247 11.0182 61.692 12.6797 63.2842C14.7549 65.2584 17.3747 66.6115 20.225 67.1812C23.2467 67.8482 26.397 67.7309 29.3568 66.8413C31.9253 66.0614 35.3801 64.4391 36.8763 62.1919C36.905 62.1499 36.926 62.1033 36.9383 62.0544C41.0365 63.2767 45.8841 63.0693 49.9617 62.0744C50.0171 62.0588 50.0655 62.0257 50.0992 61.9804C50.133 61.9351 50.15 61.8802 50.1477 61.8244C50.1868 61.8133 50.223 61.7941 50.2538 61.7682C50.2845 61.7423 50.3092 61.7104 50.326 61.6744C50.7653 60.8621 50.9023 59.8847 50.9591 58.9523C51.4036 58.8548 51.37 58.1349 50.8609 58.1449H50.8041L50.7498 58.1299C51.1817 53.2765 51.2862 48.401 51.0625 43.5344C51.286 43.4481 51.5043 43.3496 51.7162 43.2394C61.3907 41.2147 70.8068 38.0301 80.7139 37.1103C82.6312 36.9328 84.7734 36.8603 86.5615 37.6502C88.2695 38.4151 88.6287 40.1498 88.6726 41.8146C88.7398 44.9992 87.4659 48.0413 87.3651 51.2109C87.3624 51.2823 87.3806 51.3531 87.4177 51.415C87.4547 51.4769 87.509 51.5275 87.5744 51.5608C86.7579 51.9583 86.0421 52.5607 85.2333 52.9831C84.2088 53.4971 83.1392 53.9221 82.0369 54.2529C80.0085 54.9104 77.918 55.3828 75.8508 55.9052C73.5924 56.4752 71.3417 57.0726 69.0833 57.6375C67.0885 58.1374 65.0885 58.6224 63.0833 59.0848C63.582 57.8825 63.4218 56.3002 63.3055 55.0853C63.1381 53.3349 62.8253 51.6004 62.3701 49.8985C62.3503 49.845 62.3104 49.8006 62.2582 49.7744C62.206 49.7482 62.1455 49.7421 62.0888 49.7573C62.0322 49.7725 61.9836 49.8079 61.9528 49.8564C61.9221 49.9048 61.9114 49.9628 61.923 50.0185C62.2443 51.5214 62.4276 53.0488 62.4709 54.5829C62.4967 56.1702 61.9541 57.765 62.0342 59.3323C61.3141 59.4989 60.5923 59.6581 59.8688 59.8097L59.5561 59.8772C59.9695 58.6599 59.8352 57.1651 59.737 55.9377C59.5949 54.188 59.4036 52.4157 58.8843 50.7184C58.875 50.6853 58.8525 50.657 58.8217 50.6399C58.791 50.6228 58.7544 50.6182 58.7202 50.6272C58.6859 50.6361 58.6567 50.6579 58.639 50.6877C58.6213 50.7174 58.6166 50.7528 58.6259 50.7859C58.9918 52.3084 59.1516 53.8704 59.1013 55.4328C59.0806 56.9501 58.5535 58.5549 58.7085 60.0547C57.8145 60.2446 56.9178 60.4296 56.016 60.5896C55.8791 60.6146 55.6336 60.6771 55.3545 60.7446C56.5638 57.92 55.6336 54.4654 55.5561 51.5308C55.5561 51.4818 55.5359 51.4347 55.5001 51.4C55.4642 51.3653 55.4156 51.3458 55.3648 51.3458C55.3141 51.3458 55.2655 51.3653 55.2296 51.4C55.1938 51.4347 55.1736 51.4818 55.1736 51.5308C55.1504 53.0306 55.0754 54.4604 54.9592 55.9427C54.8325 57.58 54.4785 59.2573 54.5044 60.8921C54.504 60.8987 54.504 60.9054 54.5044 60.9121C54.2579 60.9705 53.9991 60.9575 53.7602 60.8746C53.757 60.8728 53.7534 60.8719 53.7498 60.8719C53.7462 60.8719 53.7426 60.8728 53.7394 60.8746C53.7363 60.8764 53.7337 60.8789 53.7319 60.882C53.7301 60.8851 53.7291 60.8885 53.7292 60.8921C53.9462 62.5793 66.9076 59.2698 68.1272 58.9948C70.8146 58.3824 73.489 57.725 76.1712 57.0951C78.5563 56.5351 80.9284 55.9527 83.2178 55.0953C84.8535 54.4729 87.1998 53.5955 88.0964 52.0257C88.1394 51.9573 88.1549 51.8761 88.1402 51.7973C88.1254 51.7186 88.0814 51.6478 88.0163 51.5983C88.0709 51.573 88.118 51.5348 88.1533 51.4871C88.1885 51.4395 88.2107 51.384 88.2179 51.3258ZM49.7421 61.4295C49.7364 61.4793 49.7426 61.5298 49.7601 61.577C47.4991 61.7869 45.2459 62.0494 42.972 62.0769C40.698 62.1044 38.437 61.8269 36.176 61.527C36.1534 61.5256 36.1307 61.5302 36.1106 61.5404C36.0904 61.5506 36.0736 61.5659 36.0618 61.5848C36.0501 61.6036 36.0439 61.6252 36.044 61.6472C36.0441 61.6692 36.0505 61.6907 36.0623 61.7094C34.9486 62.2244 33.9951 63.0818 32.9615 63.7342C31.8525 64.4296 30.6691 65.007 29.4318 65.4564C26.7547 66.4363 23.8736 66.5138 21.0777 66.0489C16.3231 65.2565 11.0854 61.7794 9.19128 57.3C9.19616 57.2702 9.19616 57.2399 9.19128 57.2101C9.11893 56.6951 9.05433 56.1777 9.01298 55.6578C10.3179 58.4199 14.0389 61.422 15.6022 62.4568C21.672 66.4838 30.7651 64.8465 35.3957 59.4897C35.574 59.2823 35.3388 58.9148 35.0778 59.0923C33.9464 59.8968 32.7631 60.6307 31.5352 61.2895C30.0778 62.0394 28.4344 62.3694 26.8581 62.7343C23.7647 63.422 20.523 63.1003 17.6384 61.8194C14.7443 60.5371 6.30495 55.0079 10.4652 51.6033C10.4753 51.5946 10.484 51.5845 10.491 51.5733C14.0647 51.9108 17.6771 51.7058 21.2586 51.5733C23.1776 51.515 25.1019 51.4567 27.0312 51.3983C28.7419 51.3433 30.5558 51.5058 32.2328 51.1784C32.2471 51.1737 32.261 51.1678 32.2742 51.1609C34.9073 52.6607 37.4422 54.0355 40.3854 54.9304C42.1192 55.4603 43.7963 56.0127 45.3518 56.9301C46.1655 57.4635 47.0218 57.9332 47.9126 58.3349C44.3286 58.7273 40.7859 59.5322 37.158 59.3598C37.1291 59.3606 37.1016 59.3714 37.0802 59.3902C37.0589 59.4089 37.0451 59.4343 37.0414 59.462C37.0376 59.4896 37.0442 59.5177 37.0599 59.5411C37.0755 59.5645 37.0993 59.5817 37.1269 59.5897C41.4991 60.4646 45.8815 59.1323 50.264 58.9673C50.0461 59.7788 49.8719 60.6006 49.7421 61.4295Z" fill="black"/>
<path d="M42.0855 65.049C38.0545 66.1539 33.8735 67.3287 30.1758 69.2634C30.1692 69.2673 30.1635 69.2723 30.159 69.2784C30.1546 69.2844 30.1514 69.2912 30.1497 69.2985C30.148 69.3057 30.1478 69.3132 30.1492 69.3205C30.1506 69.3278 30.1535 69.3348 30.1577 69.3409C27.8631 70.8207 25.5866 71.8681 22.7597 72.0231C19.9328 72.1781 17.1163 71.3532 14.5193 70.3608C12.5038 69.5909 10.4185 68.691 8.49086 67.7312C7.50636 67.2312 6.55286 66.5763 6.142 65.5464C5.5451 64.0466 7.11617 62.7043 7.90946 61.5795C7.92485 61.5533 7.93093 61.523 7.92677 61.4931C7.92261 61.4633 7.90843 61.4356 7.88642 61.4143C7.86441 61.393 7.83578 61.3793 7.80493 61.3753C7.77408 61.3712 7.74272 61.3771 7.71566 61.392C5.83968 62.5268 4.43139 64.1941 5.22985 66.1414C4.50375 70.5383 9.66142 73.3329 13.3876 74.7177C16.4923 75.8875 19.8556 76.2662 23.1551 75.8176C26.6073 75.3601 29.566 73.4204 32.2999 71.4607C32.3702 71.416 32.4201 71.347 32.4394 71.2678C32.4586 71.1886 32.4457 71.1052 32.4032 71.035C32.3608 70.9647 32.2921 70.9129 32.2113 70.8903C32.1305 70.8676 32.0438 70.8758 31.9691 70.9132C29.4394 72.1856 27.2068 73.8053 24.4187 74.5452C21.3024 75.3726 17.7132 75.0452 14.6899 74.0453C10.9689 72.813 6.89912 71.0207 6.00764 67.3512C7.5167 69.0435 10.2092 69.7884 12.2092 70.7258C17.9948 73.4454 26.2145 75.2251 30.9743 69.7409C31.0421 69.6562 31.0761 69.5506 31.0699 69.4436C31.0637 69.3366 31.0179 69.2353 30.9407 69.1585C34.7495 68.0861 38.6152 66.9563 42.2509 65.434C42.4912 65.344 42.3206 64.984 42.0855 65.049Z" fill="black"/>
<path d="M48.2562 64.6466C48.2994 64.12 48.2994 63.5909 48.2562 63.0643C48.2562 62.9854 48.2238 62.9098 48.1661 62.854C48.1084 62.7982 48.0302 62.7668 47.9487 62.7668C47.8671 62.7668 47.7889 62.7982 47.7312 62.854C47.6736 62.9098 47.6412 62.9854 47.6412 63.0643C47.6053 63.5636 47.6053 64.0648 47.6412 64.5641C44.99 65.7639 42.3931 67.0088 39.6566 68.0262C37.3439 68.886 35.2173 70.3083 32.7728 70.8008C32.7539 70.8055 32.7375 70.8168 32.7266 70.8325C32.7157 70.8481 32.711 70.8671 32.7136 70.8858C32.7161 70.9046 32.7256 70.9218 32.7404 70.9342C32.7551 70.9466 32.774 70.9534 32.7935 70.9532C35.3284 70.8258 37.4705 69.361 39.8116 68.5711C42.5688 67.6412 45.375 66.5838 47.9254 65.189C47.9858 65.1971 48.0473 65.1842 48.0988 65.1526C48.1504 65.121 48.1887 65.0728 48.2071 65.0165C48.2581 64.9698 48.2908 64.9074 48.2997 64.84C48.3087 64.7726 48.2933 64.7043 48.2562 64.6466Z" fill="black"/>
<path d="M66.9929 53.853C66.8305 52.142 66.5325 50.4455 66.1014 48.7787C66.0652 48.6312 65.8068 48.6612 65.8249 48.8162C66.0116 50.3515 66.0867 51.8976 66.0497 53.4431C66.0239 54.2555 65.9748 55.0653 65.9334 55.8777C65.8869 56.7376 65.582 57.6275 65.675 58.4799C65.6785 58.576 65.7137 58.6685 65.7754 58.7438C65.8372 58.8192 65.9222 58.8734 66.0182 58.8985C66.1141 58.9237 66.2158 58.9185 66.3085 58.8836C66.4011 58.8488 66.4798 58.7861 66.5329 58.7049C67.3417 57.415 67.1066 55.2903 66.9929 53.853Z" fill="black"/>
<path d="M70.8559 53.5106C70.5717 51.5108 70.4115 49.4936 70.2616 47.4839C70.2566 47.4459 70.2375 47.4109 70.2078 47.3855C70.178 47.3602 70.1397 47.3462 70.1001 47.3462C70.0605 47.3462 70.0222 47.3602 69.9925 47.3855C69.9628 47.4109 69.9436 47.4459 69.9386 47.4839C69.8611 49.0812 70.0833 50.6784 70.197 52.2682C70.3239 54.093 70.1121 55.925 69.5717 57.6775C69.3727 58.3199 70.4244 58.5999 70.6053 57.955C71.0032 56.5058 71.0885 54.993 70.8559 53.5106Z" fill="black"/>
<path d="M85.8819 47.8189C85.7329 46.673 85.657 45.5193 85.6545 44.3643C85.6545 42.9745 85.962 41.8097 85.4607 40.4749C85.4589 40.4693 85.4552 40.4644 85.4504 40.4609C85.4455 40.4574 85.4396 40.4556 85.4335 40.4556C85.4275 40.4556 85.4216 40.4574 85.4167 40.4609C85.4118 40.4644 85.4082 40.4693 85.4064 40.4749C85.4348 41.6222 85.0834 42.7746 84.949 43.9094C84.8319 44.9671 84.8319 46.0338 84.949 47.0915C85.0601 48.1913 85.2074 49.2837 85.2488 50.3885C85.2927 51.5384 84.9413 52.4483 84.6725 53.5331C84.5795 53.9056 85.0834 54.2505 85.3754 53.9281C86.7217 52.4383 86.1092 49.5886 85.8819 47.8189Z" fill="black"/>
<path d="M82.6286 45.7915C82.7552 44.6867 82.8276 43.6818 82.4064 42.6294C82.3986 42.6133 82.3852 42.6004 82.3685 42.593C82.3518 42.5856 82.3329 42.5842 82.3152 42.589C82.2975 42.5938 82.2821 42.6045 82.2719 42.6193C82.2616 42.634 82.2571 42.6518 82.2591 42.6695C82.595 44.7192 81.8146 46.8914 81.7061 48.9536C81.657 49.8835 81.6932 50.8134 81.6622 51.7457C81.6234 52.9456 81.2332 53.9154 80.825 55.0228C80.6648 55.4602 81.3418 55.8577 81.6493 55.4852C83.0007 53.8529 82.7681 51.2983 82.5898 49.346C82.4802 48.1629 82.4932 46.9722 82.6286 45.7915Z" fill="black"/>
<path d="M78.9181 44.7617C78.8819 44.5117 78.533 44.6117 78.5046 44.8167C78.2721 46.5664 78.4116 48.3887 78.3625 50.156C78.3187 52.0514 77.9339 53.925 77.2255 55.6927C77.0317 56.1752 77.8819 56.5201 78.0886 56.0452C79.5925 52.6031 79.4374 48.3987 78.9181 44.7617Z" fill="black"/>
<path d="M74.7139 46.9815C74.7059 46.9543 74.6889 46.9304 74.6656 46.9134C74.6423 46.8964 74.6139 46.8872 74.5847 46.8872C74.5555 46.8872 74.5271 46.8964 74.5038 46.9134C74.4805 46.9304 74.4635 46.9543 74.4555 46.9815C74.3883 48.6688 74.3547 50.3585 74.2565 52.0433C74.1583 53.7281 73.7604 55.3354 73.6958 56.9802C73.6991 57.066 73.7335 57.148 73.7931 57.2117C73.8527 57.2754 73.9337 57.3167 74.0217 57.3283C74.1097 57.34 74.1991 57.3212 74.2742 57.2754C74.3493 57.2295 74.4053 57.1595 74.4322 57.0776C74.8379 55.6303 74.8198 53.998 74.8999 52.5032C75.0092 50.661 74.9469 48.813 74.7139 46.9815Z" fill="black"/>
<path d="M10.168 72.9279C9.93287 72.2255 9.68481 71.648 9.65122 70.8956C9.60987 70.2032 9.67706 69.5058 9.65122 68.8134C9.65122 68.7667 9.63203 68.7219 9.59786 68.6888C9.5637 68.6558 9.51736 68.6372 9.46905 68.6372C9.42073 68.6372 9.3744 68.6558 9.34024 68.6888C9.30607 68.7219 9.28687 68.7667 9.28687 68.8134C9.21194 70.1807 8.82176 71.973 9.8476 73.1128C9.87827 73.141 9.9176 73.1586 9.9596 73.1631C10.0016 73.1676 10.044 73.1587 10.0803 73.1378C10.1165 73.1168 10.1447 73.085 10.1606 73.0471C10.1764 73.0092 10.179 72.9673 10.168 72.9279Z" fill="black"/>
<path d="M12.6099 72.9203C12.3153 71.8905 12.2248 70.8231 12.0078 69.7758C11.9952 69.7504 11.9746 69.7296 11.949 69.7164C11.9234 69.7031 11.8941 69.6981 11.8654 69.702C11.8366 69.7059 11.8099 69.7185 11.789 69.738C11.7682 69.7576 11.7543 69.7831 11.7494 69.8107C11.8708 70.8931 11.8192 71.993 12.1861 73.0353C12.2114 73.0774 12.2505 73.1101 12.2972 73.1284C12.3439 73.1467 12.3955 73.1494 12.4439 73.1363C12.4924 73.1231 12.535 73.0948 12.565 73.0557C12.595 73.0166 12.6108 72.969 12.6099 72.9203Z" fill="black"/>
<path d="M16.4368 73.2954C16.3101 72.6705 16.1784 72.0456 16.0362 71.4256C16.021 71.3798 15.9895 71.3406 15.9473 71.3149C15.9052 71.2893 15.855 71.2788 15.8057 71.2854C15.7563 71.2919 15.7109 71.3151 15.6775 71.3508C15.6441 71.3865 15.6247 71.4325 15.6228 71.4806C15.6564 72.1156 15.7365 72.748 15.8089 73.3804C15.8273 73.9122 15.9392 74.4371 16.1396 74.9327C16.1639 74.972 16.1994 75.0036 16.242 75.0236C16.2846 75.0436 16.3322 75.0511 16.3792 75.0453C16.4261 75.0395 16.4703 75.0205 16.5062 74.9907C16.5421 74.9609 16.5683 74.9216 16.5815 74.8777C16.632 74.3461 16.5829 73.8101 16.4368 73.2954Z" fill="black"/>
<path d="M20.9381 72.618C20.9324 72.5922 20.9168 72.5695 20.8945 72.5543C20.8722 72.5391 20.8448 72.5326 20.8178 72.5361C20.7908 72.5395 20.7661 72.5527 20.7486 72.573C20.7312 72.5933 20.7223 72.6191 20.7237 72.6455C20.7779 73.5354 20.7081 74.4227 20.7417 75.3126C20.7417 75.3789 20.769 75.4425 20.8174 75.4894C20.8659 75.5363 20.9316 75.5626 21.0001 75.5626C21.0687 75.5626 21.1344 75.5363 21.1829 75.4894C21.2313 75.4425 21.2585 75.3789 21.2585 75.3126C21.312 74.4033 21.2036 73.4918 20.9381 72.618Z" fill="black"/>
<path d="M25.1062 72.2329C25.0851 72.2025 25.0538 72.1802 25.0176 72.1697C24.9814 72.1592 24.9426 72.1612 24.9077 72.1754C24.8729 72.1896 24.8442 72.2151 24.8267 72.2475C24.8092 72.2798 24.8038 72.3171 24.8116 72.3529C25.0054 73.1228 24.9563 73.8702 25.07 74.6451C25.084 74.6991 25.1163 74.7471 25.1617 74.7814C25.2071 74.8157 25.263 74.8343 25.3206 74.8343C25.3782 74.8343 25.4342 74.8157 25.4796 74.7814C25.525 74.7471 25.5573 74.6991 25.5713 74.6451C25.6669 73.8752 25.5919 72.8953 25.1062 72.2329Z" fill="black"/>
<path d="M31.1656 69.0485C31.0468 68.8711 30.7134 68.9836 30.7961 69.1985C31.0724 69.8495 31.2852 70.524 31.4318 71.2133C31.486 71.5132 31.9124 71.4057 31.9486 71.1458C32.0235 70.3959 31.5791 69.6635 31.1656 69.0485Z" fill="black"/>
<path d="M11.0931 57.4349C11.0465 57.3399 10.8993 57.4074 10.9225 57.5049C11.1628 58.4473 10.9458 59.4246 11.1551 60.367C11.2042 60.5895 11.5995 60.542 11.5685 60.312C11.4341 59.3546 11.5272 58.3298 11.0931 57.4349Z" fill="black"/>
<path d="M14.6538 60.7622C14.641 60.7218 14.6151 60.6865 14.58 60.6614C14.5448 60.6363 14.5024 60.6228 14.4587 60.6228C14.4151 60.6228 14.3726 60.6363 14.3375 60.6614C14.3023 60.6865 14.2765 60.7218 14.2636 60.7622C14.1479 61.5518 14.1141 62.3507 14.1628 63.1468C14.1628 63.2224 14.1939 63.2949 14.2491 63.3483C14.3044 63.4018 14.3793 63.4318 14.4574 63.4318C14.5355 63.4318 14.6105 63.4018 14.6657 63.3483C14.721 63.2949 14.752 63.2224 14.752 63.1468C14.8016 62.3508 14.7687 61.5519 14.6538 60.7622Z" fill="black"/>
<path d="M18.212 62.9443C18.1706 62.7693 17.9097 62.8468 17.9407 63.0167C18.0957 63.9091 18.212 64.8115 18.4213 65.6914C18.4365 65.7263 18.4632 65.7554 18.4973 65.7742C18.5313 65.7929 18.5708 65.8003 18.6096 65.7952C18.6485 65.7901 18.6845 65.7727 18.7121 65.7458C18.7397 65.7189 18.7574 65.684 18.7624 65.6464C18.6347 64.7359 18.4509 63.8336 18.212 62.9443Z" fill="black"/>
<path d="M24.7314 64.4515C24.7242 64.4291 24.7098 64.4095 24.6903 64.3956C24.6708 64.3818 24.6472 64.3743 24.6229 64.3743C24.5987 64.3743 24.5751 64.3818 24.5556 64.3956C24.536 64.4095 24.5216 64.4291 24.5144 64.4515C24.3568 65.3938 24.3645 66.3637 24.256 67.3136C24.2327 67.5286 24.5816 67.5636 24.6358 67.3636C24.8748 66.4096 24.9074 65.4182 24.7314 64.4515Z" fill="black"/>
<path d="M30.3077 62.4793C30.3077 62.4348 30.2894 62.3922 30.257 62.3608C30.2245 62.3294 30.1805 62.3118 30.1346 62.3118C30.0886 62.3118 30.0446 62.3294 30.0121 62.3608C29.9797 62.3922 29.9614 62.4348 29.9614 62.4793C29.8271 63.4791 29.747 64.479 29.6694 65.4789C29.6731 65.5457 29.7009 65.6093 29.7478 65.6585C29.7948 65.7077 29.8581 65.7395 29.9267 65.7483C29.9953 65.7572 30.065 65.7427 30.1237 65.7072C30.1824 65.6717 30.2265 65.6174 30.2482 65.5538C30.4568 64.5405 30.4769 63.4994 30.3077 62.4793Z" fill="black"/>
<path d="M35.6049 60.0747C35.5883 60.0473 35.5628 60.026 35.5325 60.014C35.5021 60.002 35.4685 59.9999 35.4368 60.0081C35.4051 60.0164 35.3771 60.0344 35.3571 60.0595C35.337 60.0847 35.326 60.1154 35.3258 60.1472C35.4188 61.147 35.1863 61.9769 34.8426 62.8968C34.7289 63.2043 35.2561 63.4192 35.3878 63.1193C35.8168 62.1644 36.1191 61.0621 35.6049 60.0747Z" fill="black"/>
<path d="M40.9487 59.9473C40.8712 59.7823 40.6412 59.9298 40.6697 60.0822C40.7756 60.6772 40.711 61.1471 40.711 61.897C40.711 62.147 41.2691 62.147 41.2691 61.897C41.3099 61.2323 41.2006 60.567 40.9487 59.9473Z" fill="black"/>
<path d="M46.4888 59.8972C46.4653 59.8611 46.4294 59.8342 46.3873 59.8214C46.3453 59.8085 46.2999 59.8105 46.2592 59.827C46.2186 59.8435 46.1853 59.8735 46.1653 59.9115C46.1454 59.9495 46.1401 59.9932 46.1503 60.0347C46.3725 60.6946 46.1735 61.302 45.9203 61.9244C45.8169 62.1744 46.2356 62.3369 46.3699 62.1069C46.7911 61.397 46.9281 60.6271 46.4888 59.8972Z" fill="black"/>
<path d="M59.6078 34.1007C59.5998 34.0983 59.5914 34.0978 59.5832 34.0992C59.575 34.1006 59.5673 34.1039 59.5607 34.1088C59.5541 34.1137 59.5488 34.12 59.5453 34.1273C59.5418 34.1346 59.5402 34.1427 59.5406 34.1507C59.6026 34.6506 59.8662 35.0506 59.9179 35.553C59.998 36.3304 59.737 37.1353 59.4708 37.8577C59.1988 38.5436 58.8385 39.1937 58.3985 39.7925C58.0548 40.2924 57.5638 40.6623 57.339 41.2198C57.2072 41.5497 57.6259 41.7372 57.8843 41.6247C59.2047 41.0573 59.9902 38.6601 60.3571 37.4178C60.6233 36.5354 60.8817 34.4132 59.6078 34.1007Z" fill="black"/>
<path d="M63.3261 33.1234C63.2988 33.0938 63.261 33.0753 63.2203 33.0715C63.1795 33.0677 63.1388 33.0789 63.1062 33.1029C63.0736 33.1269 63.0515 33.1618 63.0444 33.2008C63.0373 33.2398 63.0456 33.28 63.0677 33.3133C64.7395 35.683 63.5276 37.8127 62.5819 40.1599C62.4604 40.4599 62.9617 40.6598 63.1142 40.3774C64.3442 38.1502 65.2047 35.2281 63.3261 33.1234Z" fill="black"/>
<path d="M65.3003 29.8263C65.2099 29.7963 65.1634 29.9238 65.2383 29.9688C68.5355 31.9885 68.5458 35.583 66.9567 38.6801C66.6983 39.18 67.4735 39.625 67.7319 39.1226C69.4812 35.843 69.3753 31.2411 65.3003 29.8263Z" fill="black"/>
<path d="M83.0111 29.9788C81.4969 28.1115 79.0757 26.7017 76.8844 25.7093C76.8553 25.6966 76.8223 25.6948 76.7918 25.7042C76.7614 25.7136 76.7356 25.7337 76.7195 25.7604C76.7035 25.7872 76.6982 25.8187 76.7048 25.849C76.7114 25.8793 76.7294 25.9061 76.7552 25.9243C78.4529 27.1517 80.3573 28.0615 81.7346 29.6513C83.4039 31.5711 83.6313 33.8033 83.0266 36.1879C82.8664 36.8254 83.8845 37.0953 84.0395 36.4579C84.5899 34.2182 84.5331 31.856 83.0111 29.9788Z" fill="black"/>
</svg>
