<svg width="60" height="60" viewBox="0 0 60 60" fill="none" xmlns="http://www.w3.org/2000/svg">
<path d="M21.9263 3.5669C22.0853 3.81649 22.1821 3.98842 22.2976 4.14677C24.3976 7.02523 26.4961 9.90345 28.5931 12.7814C28.8518 13.1381 29.1473 13.3454 29.5883 13.4291C31.7116 13.8311 33.8288 14.2639 35.9491 14.6824C36.0908 14.7103 36.2386 14.7125 36.4778 14.7367C36.3706 14.5504 36.3143 14.435 36.2416 14.328C35.3416 13.0295 34.4396 11.732 33.5356 10.4356C33.3106 10.1121 33.1478 9.76973 33.3683 9.38742C33.5438 9.0858 33.8431 8.87995 34.1828 8.98552C34.4643 9.07347 34.7122 9.24612 34.8931 9.48017C35.5951 10.471 36.2543 11.492 36.9301 12.5009C37.5226 13.3847 38.0731 14.3008 38.7301 15.1401C39.1336 15.6551 39.6833 16.06 40.1888 16.4891C41.0363 17.2084 41.9011 17.9075 42.8288 18.6758C42.7816 18.2913 42.7456 17.9565 42.6991 17.6202C42.4321 15.7147 42.4823 13.8371 43.1558 12.0085C43.9351 9.89264 45.3631 8.30008 47.1383 6.98426C49.2751 5.39171 51.6751 4.36318 54.2251 3.65437C54.8071 3.493 55.1483 3.64532 55.4416 4.18221C56.9918 7.028 58.0508 10.0261 58.1416 13.3062C58.2166 16.1294 57.3083 18.5891 55.3441 20.6273C53.3498 22.6964 50.8891 24.0002 48.2303 24.9722C47.8553 25.1086 47.4803 25.2383 47.0686 25.3839C47.2096 25.7609 47.3401 26.1108 47.4713 26.4607C50.6761 34.9814 48.6841 44.6808 42.3893 51.2305C38.3903 55.3929 33.5153 57.7463 27.8056 58.3623C18.1741 59.4014 8.76832 54.2173 4.42507 45.4952C2.71507 42.0537 1.80832 38.4161 1.87882 34.5607C1.89907 33.4341 2.05207 32.3083 2.17882 31.1863C2.24332 30.6064 2.47207 30.3568 2.85382 30.3101C3.52057 30.2279 3.89032 30.6215 3.83932 31.3341C3.74257 32.5858 3.55282 33.8466 3.60007 35.09C3.91132 43.7239 7.82782 50.1711 15.3751 54.3183C18.9001 56.2532 22.7251 57.0473 26.7323 56.7773C31.8473 56.4327 36.3398 54.5257 40.1453 51.0744C44.3641 47.2461 46.6501 42.4375 47.1751 36.7595C47.5381 32.8859 47.0251 29.1639 45.3751 25.6274C43.8001 22.2629 41.4278 19.5437 38.5786 17.2145C38.2958 16.9837 38.0933 16.9883 37.8106 17.2281C37.2046 17.7468 36.5648 18.2249 35.9243 18.7301C36.6436 19.3213 37.3493 19.8612 38.0108 20.4509C41.3108 23.3751 43.5038 26.9561 44.1908 31.3582C45.2041 37.8529 43.6096 43.5889 38.9678 48.3168C35.8066 51.5344 31.9501 53.3924 27.4576 53.8184C26.1698 53.9406 24.8626 53.8599 23.5643 53.8554C23.3904 53.8427 23.2221 53.7879 23.0738 53.6955C22.6988 53.4881 22.5383 53.1639 22.6193 52.8298C22.7168 52.4272 23.0273 52.2575 23.3918 52.2266C23.7534 52.2024 24.1163 52.2072 24.4771 52.2409C33.1981 52.8487 40.6913 46.5147 42.3878 38.7479C42.9203 36.3356 42.9558 33.8392 42.4921 31.4125C42.4741 31.3145 42.4426 31.2187 42.4171 31.1275C42.3833 31.1177 42.3541 31.0981 42.3421 31.1056C41.3191 31.6387 40.3456 32.2367 39.4696 33.0051C38.2028 34.1105 37.9126 35.5161 38.1121 37.1026C38.2118 37.8996 38.3468 38.6982 38.3723 39.499C38.4308 41.3622 37.6478 42.9103 36.4351 44.2555C35.5073 45.2856 34.3351 45.9499 33.0316 46.3782C31.3621 46.9271 30.0098 46.1897 29.5208 44.4863C29.1571 43.2187 29.0806 41.9149 29.0468 40.6074C29.0033 38.8995 28.9718 37.1908 28.9306 35.4799C28.9233 35.1659 28.8952 34.8528 28.8466 34.5426C28.7633 34.0148 28.5128 33.7765 27.9781 33.8104C27.2281 33.8587 26.4886 33.968 25.7438 34.0532C24.6023 34.1844 23.4593 34.3548 22.3096 34.152C19.9261 33.729 18.2498 31.5128 18.3991 29.0463C18.5161 27.1046 19.4386 25.595 20.8088 24.3063C20.9731 24.1555 21.1396 24.0047 21.3023 23.8456C21.3173 23.8313 21.3158 23.7989 21.3308 23.737C21.0128 23.6812 20.6963 23.63 20.3813 23.5704C18.4348 23.2041 16.5813 22.4482 14.9311 21.3474C14.6813 21.1823 14.5216 21.1808 14.2838 21.3836C12.3056 23.0559 10.7143 25.1421 9.62107 27.4967C9.46582 27.8285 9.48232 28.1 9.66457 28.4152C10.3396 29.5749 10.9988 30.7452 11.6626 31.9125C12.0413 32.5783 12.5933 32.996 13.3373 33.2034C13.8656 33.3535 14.379 33.5521 14.8711 33.7968C16.0336 34.3684 16.5106 35.4271 16.0711 36.6539C15.6293 37.8921 15.1433 39.1265 14.5456 40.2945C13.9283 41.501 13.8706 42.6042 14.5703 43.7858C15.4193 45.2124 15.5551 46.7959 15.3991 48.4171C15.3413 49.0151 15.3871 49.1305 15.9038 49.411C16.8713 49.9388 17.8418 50.4561 18.8048 50.9892C19.3606 51.2969 19.5121 51.6852 19.2878 52.1595C19.1093 52.5365 18.8033 52.7054 18.3998 52.5916C18.1015 52.502 17.8116 52.3862 17.5336 52.2455C14.2523 50.6537 11.4586 48.4752 9.44407 45.3783C7.91032 43.0249 7.02982 40.4287 6.61582 37.6613C6.12607 34.3835 6.34282 31.1705 7.51582 28.0525C8.64757 25.0521 10.5038 22.5569 12.8446 20.4071C13.0591 20.2103 13.1761 20.0678 12.8873 19.8197C9.90757 17.2605 7.66207 14.1259 5.83357 10.6678C5.25682 9.57895 5.29207 9.4191 6.22507 8.63941C8.71957 6.55822 11.3746 4.73342 14.3903 3.49602C16.8511 2.48559 19.3876 1.80921 22.0748 1.88009C24.9398 1.95549 27.4943 2.94405 29.8216 4.57733C30.3331 4.93626 30.8213 5.33138 31.3066 5.72726C31.7776 6.11182 31.8428 6.56727 31.5136 6.96767C31.1723 7.3824 30.7418 7.4103 30.2641 7.02046C28.9673 5.96478 27.5941 5.03051 26.0333 4.40541C24.8509 3.91999 23.5961 3.63683 22.3208 3.56765C22.2233 3.56238 22.1251 3.5669 21.9263 3.5669ZM51.1561 15.1838C52.7941 14.5052 54.4358 13.8341 56.0626 13.1275C56.2253 13.0566 56.3791 12.7656 56.3866 12.5703C56.4074 12.1558 56.3654 11.7407 56.2621 11.3389C55.8203 9.7554 55.3418 8.18622 54.8731 6.61252C54.8581 6.56275 54.7981 6.52505 54.7328 6.44662C54.6699 6.53129 54.6138 6.62079 54.5648 6.71431C53.4018 9.51687 52.2403 12.3204 51.0803 15.125C51.0871 15.1537 51.0931 15.1823 51.0991 15.211L51.1561 15.1838ZM26.5006 12.7332L26.4751 12.7535L26.4991 12.7362C26.4241 12.6389 26.3393 12.5439 26.2658 12.4428C24.2318 9.66039 22.2001 6.87744 20.1706 4.09398C19.9388 3.77502 19.6868 3.67548 19.3058 3.77804C18.0646 4.11208 16.8173 4.42426 15.5738 4.74699C15.4677 4.78031 15.3633 4.81906 15.2611 4.86312C15.3233 4.96717 15.3571 5.03353 15.4006 5.08933C16.8863 7.12527 18.3631 9.16121 19.8713 11.1791C20.0757 11.4252 20.3551 11.5967 20.6663 11.6669C22.0913 11.9791 23.5276 12.2498 24.9623 12.5167C25.4716 12.6155 25.9898 12.6615 26.5006 12.7332ZM20.0663 29.1112C20.0663 30.1955 20.3851 31.0182 21.0788 31.6749C22.0036 32.5489 23.1271 32.7042 24.3286 32.5504C25.5428 32.395 26.7556 32.2239 27.9713 32.0814C28.8218 31.9818 29.5906 32.2065 29.9543 33.0337C30.2543 33.7124 30.5018 34.4566 30.5543 35.1881C30.6743 36.764 30.6563 38.3505 30.6931 39.9333C30.7246 41.2906 30.7763 42.6479 31.0996 43.9735C31.2736 44.6861 31.6876 44.9538 32.3978 44.8263C34.7048 44.4229 36.8731 41.5575 36.6728 39.1461C36.6121 38.4086 36.4568 37.6794 36.3931 36.942C36.2153 34.906 36.7606 33.0963 38.3431 31.7632C39.2641 30.9842 40.3336 30.3832 41.3371 29.7038C42.0166 29.2439 42.0121 29.4957 41.6933 28.6331C40.4183 25.129 38.1226 22.4265 35.1278 20.2782C34.5878 19.8906 34.1236 19.877 33.5528 20.2345C30.9203 21.8836 28.1101 23.0908 25.0223 23.5779C24.7921 23.6141 24.5266 23.6398 24.3473 23.7694C23.4571 24.4164 22.5473 25.043 21.7283 25.7775C20.7226 26.6831 20.1136 27.8413 20.0663 29.1112ZM19.6163 21.6317C19.6689 21.6655 19.7238 21.6955 19.7806 21.7214C19.8766 21.7496 19.9733 21.7747 20.0708 21.7969C22.1386 22.2681 24.1868 22.1362 26.2268 21.6151C29.7631 20.711 32.8501 18.9164 35.7346 16.7296C35.8361 16.6385 35.9313 16.5405 36.0196 16.4363C35.8103 16.385 35.6813 16.3473 35.5493 16.3217C33.5521 15.9303 31.5488 15.5676 29.5598 15.1363C28.9073 14.9946 28.4191 15.128 27.8993 15.5186C25.8781 17.0373 23.8321 18.5228 21.7958 20.0211C21.0818 20.5459 20.3693 21.0737 19.6133 21.631L19.6163 21.6317ZM8.79832 30.1382L8.66107 30.157C7.69807 33.4666 7.91107 36.7685 8.87707 40.0351C9.76357 43.0302 11.3903 45.5744 13.7461 47.737C13.7558 47.5462 13.7701 47.4482 13.7641 47.3517C13.6756 46.0554 13.3763 44.8196 12.6781 43.7088C12.1658 42.8937 12.0781 42.0499 12.4456 41.1586C12.6286 40.7183 12.8026 40.2749 12.9871 39.8353C13.4491 38.7366 13.9223 37.6432 14.3753 36.5408C14.6986 35.7536 14.5673 35.458 13.7933 35.139C13.5623 35.044 13.3336 34.9234 13.0921 34.8766C11.5583 34.5803 10.5848 33.6272 9.93307 32.251C9.59107 31.5309 9.17857 30.8425 8.79832 30.1382ZM13.2008 17.9225C13.3187 17.9927 13.4321 18.07 13.5406 18.154C14.6232 19.1427 15.818 19.9996 17.1001 20.7072C17.4968 20.9289 17.8111 20.8807 18.1643 20.6183C20.7643 18.6859 23.3711 16.759 25.9846 14.8377C26.0813 14.7661 26.1728 14.6869 26.3356 14.5572C26.1301 14.5006 26.0056 14.4577 25.8773 14.432C23.9543 14.0512 22.0306 13.678 20.1083 13.2904C19.9509 13.2547 19.7876 13.255 19.6303 13.2914C19.4731 13.3279 19.326 13.3994 19.2001 13.5008C17.7001 14.6145 16.2001 15.7124 14.6941 16.8186C14.2336 17.1564 13.7731 17.4995 13.2001 17.9233L13.2008 17.9225ZM47.6446 23.3427C47.8966 23.2673 48.0488 23.2311 48.1966 23.1783C50.2774 22.4452 52.1851 21.2877 53.7998 19.7783C55.0598 18.6065 55.9328 17.1971 56.2748 15.4847C56.3078 15.318 56.3116 15.1461 56.3318 14.947C56.2571 14.9509 56.183 14.9622 56.1106 14.981C54.1951 15.7735 52.2781 16.5645 50.3701 17.3736C50.1983 17.449 50.0461 17.6473 49.9591 17.826C49.7393 18.2784 49.5608 18.7452 49.3681 19.2082C48.8063 20.5504 48.2491 21.8919 47.6446 23.3434V23.3427ZM45.7853 10.7545C45.6173 10.9739 45.4973 11.1165 45.3916 11.2703C44.6153 12.4014 44.3041 13.69 44.2411 15.0406C44.1158 17.6895 44.7871 20.1681 45.9241 22.5313C45.9608 22.5872 46.003 22.6392 46.0501 22.6866C46.0919 22.6293 46.1297 22.569 46.1633 22.5064C46.8683 20.8151 47.5801 19.1268 48.2633 17.4279C48.3383 17.2439 48.3128 16.9754 48.2386 16.7832C47.8021 15.6604 47.3386 14.5482 46.8818 13.4329C46.5278 12.5642 46.1708 11.6956 45.7853 10.7545ZM8.01082 10.9189L7.95382 11.0101C9.09809 13.0514 10.4738 14.9525 12.0533 16.6753L17.3641 12.7543L8.01082 10.9189ZM49.2706 14.8189H49.3741C50.6136 11.8333 51.8568 8.84049 53.1038 5.84037C53.0546 5.82951 53.0042 5.8247 52.9538 5.82604C50.8501 6.59819 48.8746 7.6056 47.1803 9.10918C47.0071 9.25999 47.0356 9.3912 47.1053 9.56689C47.5913 10.7379 48.0698 11.9112 48.5521 13.083C48.7921 13.6621 49.0316 14.2408 49.2706 14.8189ZM17.6506 11.0931C17.5801 10.9626 17.5621 10.9166 17.5336 10.8782C16.3336 9.22681 15.1261 7.57921 13.9298 5.92407C13.7881 5.72726 13.6561 5.71595 13.4581 5.81473C11.7331 6.67963 10.0981 7.6893 8.60782 8.92519C8.49616 9.03097 8.39025 9.14273 8.29057 9.25999L17.6506 11.0931Z" fill="#F9BE35"/>
<path d="M26.4995 12.7333L26.4751 12.7509L26.5025 12.7302L26.4995 12.7333Z" fill="#F9BE35"/>
<path d="M51.1561 15.1838L51.0991 15.211C51.0931 15.1823 51.0871 15.1537 51.0803 15.125L51.1561 15.1838Z" fill="#F9BE35"/>
</svg>
