<svg width="60" height="60" viewBox="0 0 60 60" fill="none" xmlns="http://www.w3.org/2000/svg">
<path d="M48.3484 49.9072C48.7514 50.5396 49.0719 50.9956 49.3434 51.478C50.2415 53.0788 51.1372 54.682 52.0042 56.2985C52.4156 57.0629 52.3367 57.6365 51.8607 57.8969C51.3405 58.1813 50.7174 57.8645 50.3563 57.1169C47.7968 51.7893 44.258 46.9945 39.9257 42.9843C33.212 36.7634 25.3717 32.8093 16.3415 31.2709C12.0158 30.5216 7.6059 30.3931 3.24414 30.8893C2.5565 30.9685 2.07336 30.6373 2.00878 30.0649C1.94061 29.4649 2.2946 29.0617 3.00257 28.9849C6.45147 28.5977 9.93171 28.5812 13.3841 28.9357C13.5192 28.9489 13.6544 28.9573 13.8242 28.9717V22.0872C10.7232 21.5208 8.28482 19.9451 6.66438 17.2055C5.33575 14.9603 4.9722 12.541 5.48763 9.98381C6.46347 5.13934 11.1705 1.59569 16.0473 2.03729C21.2889 2.5173 25.239 6.73656 25.3586 11.8666C25.4698 16.6667 21.9562 21.7068 15.8094 22.1868V29.1553C16.6728 29.3293 17.5482 29.4949 18.4188 29.6809C22.2975 30.5043 26.0536 31.8286 29.5932 33.6205C29.7514 33.716 29.9322 33.7669 30.1168 33.768C30.3013 33.769 30.4828 33.7202 30.642 33.6265C33.0604 32.4061 35.5892 31.4196 38.1941 30.6805C38.3627 30.6313 38.5289 30.5737 38.7083 30.5149V21.3204C37.9668 21.876 37.3067 22.4076 36.6083 22.8804C36.3476 23.0568 35.9506 23.2404 35.697 23.1636C35.3933 23.0688 35.0058 22.7172 34.9675 22.4352C34.9257 22.1196 35.1445 21.6408 35.4076 21.4356C36.7602 20.382 38.1582 19.3955 39.549 18.3827C41.5629 16.9139 43.578 15.4459 45.5942 13.9787C46.2592 13.4987 46.527 13.4987 47.1979 13.9871C50.5329 16.4199 53.867 18.8547 57.2004 21.2916C57.3675 21.3996 57.5196 21.5295 57.6524 21.678C57.7875 21.8294 57.8652 22.0237 57.872 22.2268C57.8788 22.43 57.8142 22.629 57.6895 22.7892C57.4371 23.1492 57.0915 23.3292 56.6562 23.1312C56.4205 23.0288 56.1954 22.9034 55.9841 22.7568C55.3599 22.308 54.7488 21.8412 54.0707 21.3324V28.6801L55.9351 28.8805C56.2939 28.9165 56.6526 28.9417 57.0042 28.9885C57.6428 29.0737 58.0315 29.5201 57.9538 30.0685C57.876 30.6169 57.4037 30.9517 56.7698 30.9085C55.4185 30.8149 54.0683 30.7009 52.7158 30.6349C46.3775 30.3313 37.6547 32.1349 32.2469 34.871C32.4167 34.9838 32.559 35.0762 32.6989 35.1734C34.8515 36.677 37.0185 38.1734 39.1568 39.6974C39.4856 39.9374 39.7356 39.9926 40.1218 39.8726C45.5 38.1797 51.171 37.6316 56.7722 38.2634C57.5017 38.3438 57.9191 38.7698 57.8485 39.3554C57.778 39.941 57.3379 40.2566 56.6192 40.1834C53.8555 39.9026 51.0834 39.8078 48.328 40.1834C46.0104 40.5002 43.7119 40.9694 41.405 41.3703L41.3871 41.5923C41.5162 41.7303 41.649 41.8671 41.7758 42.0087C43.4895 43.9287 45.2127 45.8379 46.9073 47.7747C47.1609 48.0652 47.3594 48.172 47.7516 48.1168C50.7578 47.7106 53.8071 47.749 56.8021 48.2308C56.9002 48.2452 56.9983 48.2668 57.0951 48.2872C57.7445 48.4228 58.0722 48.8464 57.9717 49.4176C57.8796 49.9396 57.4156 50.2456 56.8009 50.1832C55.6122 50.0632 54.4259 49.8676 53.2348 49.8352C51.661 49.792 50.0752 49.8808 48.3484 49.9072ZM15.7699 20.2248C19.9747 20.0784 23.4164 16.3847 23.4236 12.1162C23.4236 7.72657 19.9448 4.08812 15.5965 3.93932C11.2195 3.78932 7.45248 7.16017 7.17742 11.5054C6.86529 16.4591 10.6096 19.6847 13.8553 20.0988C13.8553 18.4763 13.8373 16.8587 13.866 15.2435C13.8756 14.7635 13.7465 14.4971 13.2884 14.2943C12.0519 13.7459 10.838 13.1435 9.62063 12.5506C9.01072 12.253 8.78948 11.7622 8.99996 11.2414C9.21044 10.7206 9.8024 10.5022 10.4039 10.7878C11.5317 11.323 12.6498 11.8786 13.8553 12.4678C13.8553 11.2486 13.8553 10.117 13.8553 8.98779C13.8553 8.22338 14.1997 7.78778 14.7929 7.77338C15.4064 7.76017 15.7651 8.21258 15.7687 9.01059C15.7687 9.7306 15.7687 10.4506 15.7687 11.1706V15.2507C16.8845 14.7083 17.9105 14.1887 18.957 13.7159C19.226 13.5959 19.6338 13.4951 19.8503 13.6163C20.1349 13.7759 20.4662 14.1659 20.4602 14.4503C20.453 14.7695 20.1636 15.2159 19.8718 15.3719C18.6628 16.0211 17.4023 16.5719 16.1717 17.1851C16.0067 17.2667 15.7926 17.4671 15.7866 17.6207C15.7532 18.4739 15.7699 19.3307 15.7699 20.2248ZM52.0473 28.6705C52.076 28.6192 52.0977 28.5643 52.1118 28.5073C52.1178 25.728 52.1274 22.95 52.1118 20.172C52.1118 19.9823 51.9349 19.7387 51.7698 19.6163C50.1111 18.3719 48.4321 17.1563 46.7734 15.9119C46.484 15.6947 46.295 15.6935 46.002 15.9119C44.3581 17.1431 42.7046 18.3603 41.0415 19.5635C40.909 19.6453 40.8012 19.7618 40.73 19.9006C40.6587 20.0394 40.6267 20.195 40.6373 20.3508C40.6552 22.5108 40.6456 24.6708 40.6456 26.8308V29.9401L42.5591 29.5561C42.5591 27.7561 42.5591 26.0256 42.5591 24.288C42.5591 23.4936 42.9035 23.1372 43.6748 23.1348C45.4878 23.126 47.3008 23.126 49.1137 23.1348C49.854 23.1348 50.202 23.4948 50.208 24.2508C50.2175 25.53 50.208 26.8092 50.208 28.0909V28.6777L52.0473 28.6705ZM48.2718 25.0788H44.5V29.1661L48.2718 28.7917V25.0788Z" fill="#F9BE35"/>
<path d="M7.93886 38.0557C21.9762 38.4229 33.0849 44.2958 41.1356 55.8939C41.7216 56.7339 41.5051 57.4096 40.6058 57.6364C40.045 57.778 39.7603 57.4192 39.4984 57.0244C38.1369 54.9547 36.5746 53.0253 34.8345 51.2643C28.3898 44.7842 20.644 41.0521 11.554 40.1413C8.97497 39.8971 6.37827 39.9067 3.80107 40.1701C3.52704 40.2063 3.24835 40.175 2.98906 40.0789C2.58246 39.9025 2.4258 39.5257 2.49875 39.0853C2.58366 38.5777 2.93644 38.3269 3.41241 38.2837C4.44327 38.1889 5.47652 38.1169 6.50977 38.0569C6.98214 38.0329 7.4605 38.0557 7.93886 38.0557Z" fill="#F9BE35"/>
<path d="M7.86592 47.987C15.8437 47.7578 22.793 50.2911 28.5835 55.8675C29.0487 56.3163 29.0834 56.8935 28.69 57.2944C28.2965 57.6952 27.7333 57.6808 27.2178 57.1864C24.3724 54.4417 20.9534 52.3675 17.2093 51.1146C13.4651 49.8617 9.48979 49.4615 5.5722 49.943C4.90011 50.0246 4.22801 50.1003 3.55592 50.1831C2.96635 50.2515 2.51311 49.9298 2.42461 49.379C2.40201 49.2553 2.40518 49.1281 2.43392 49.0057C2.46266 48.8832 2.51634 48.768 2.5916 48.6673C2.66686 48.5667 2.76206 48.4828 2.87121 48.4208C2.98037 48.3589 3.10111 48.3203 3.22586 48.3074C4.26868 48.1622 5.32106 48.0782 6.37105 47.9978C6.86854 47.9606 7.36843 47.987 7.86592 47.987Z" fill="#F9BE35"/>
</svg>
