<svg width="64" height="64" viewBox="0 0 64 64" fill="none" xmlns="http://www.w3.org/2000/svg">
<path d="M40.6304 35.9204C41.6508 36.1203 42.655 36.3168 43.6587 36.5145C45.7384 36.9238 47.8265 37.2963 49.8961 37.7506C52.7784 38.3833 54.961 41.0251 54.9832 43.9008C55.0113 47.3701 54.991 50.8393 54.9916 54.3092C54.9916 54.3477 54.9862 54.3858 54.9802 54.4559H53.0824V60.9997H14.7878V54.4676H12.8601V44.2698C12.8601 40.8696 15.1308 38.2418 18.5493 37.6138C21.3783 37.0939 24.196 36.518 27.0184 35.966C27.0783 35.9549 27.1339 35.935 27.2237 35.9104C27.2237 35.3842 27.183 34.8474 27.2333 34.3188C27.3105 33.513 27.1202 32.8704 26.5091 32.2611C25.7239 31.4764 25.2296 30.4823 24.8795 29.4327C24.8064 29.2129 24.6885 29.1403 24.4695 29.0982C22.4801 28.7328 21.0133 27.3329 20.6129 25.4144C20.5522 25.1085 20.5227 24.7975 20.5249 24.4858C20.5181 21.3092 20.5181 18.1321 20.5249 14.9546C20.5393 9.5166 24.1709 4.87262 29.5291 3.42014C34.4372 2.08869 39.8044 3.99376 42.7005 8.11557C43.0051 8.55327 43.3923 8.93031 43.8412 9.22657C46.1035 10.7416 47.2867 12.8671 47.3232 15.5446C47.3645 18.5362 47.34 21.5283 47.331 24.5198C47.3335 25.6117 46.9407 26.6694 46.2221 27.5057C45.5036 28.3421 44.5055 28.9033 43.4043 29.0901C43.1572 29.1339 43.0452 29.2333 42.962 29.4649C42.5233 30.7337 41.797 31.8894 40.8374 32.8458C40.7661 32.9113 40.7102 32.9911 40.6735 33.0798C40.6369 33.1684 40.6203 33.2637 40.625 33.3592C40.6381 34.2083 40.6304 35.055 40.6304 35.9204ZM22.4484 44.1874V55.3857H27.2297V49.7751H28.1831C28.1831 49.1787 28.1891 48.6138 28.1831 48.0496C28.158 46.0322 29.0838 44.4827 30.7045 43.2144C30.9439 43.467 31.2 43.7126 31.4227 43.9833C31.5253 44.1048 31.5879 44.2538 31.6022 44.4107C31.6292 45.1352 31.9775 45.4796 32.71 45.506C32.8719 45.5156 33.0259 45.5772 33.1481 45.6814C33.6622 46.1492 34.1919 46.1492 34.7042 45.6814C34.8168 45.5806 34.9602 45.5189 35.1123 45.506C35.8904 45.4767 36.2249 45.1504 36.2495 44.3797C36.2478 44.267 36.2828 44.1567 36.3494 44.0646C36.6067 43.7722 36.888 43.4921 37.2118 43.1506C37.7403 43.7354 38.2639 44.2341 38.6895 44.8031C39.3658 45.7077 39.6644 46.7544 39.6746 47.8753C39.6806 48.5051 39.6746 49.1348 39.6746 49.7962H40.6393V55.3821H45.4302V44.188H47.34V52.5707H53.0794V52.2871C53.0794 49.5876 53.0794 46.8883 53.0794 44.1891C53.0794 41.8502 51.5132 39.9644 49.1719 39.499C46.2148 38.9113 43.2541 38.3388 40.2964 37.7547C40.1139 37.719 40.0061 37.7763 39.8834 37.9009C38.3208 39.4925 36.417 40.3685 34.1524 40.4234C31.7159 40.4819 29.6601 39.6101 27.9736 37.8997C27.8503 37.7752 27.7438 37.7243 27.5607 37.7594C24.6879 38.3254 21.8266 38.9288 18.9425 39.4329C16.3092 39.896 14.6981 42.0332 14.7597 44.4248C14.8267 47.0251 14.7753 49.6289 14.7747 52.2304V52.5725H20.5273V44.1874H22.4484ZM45.4098 20.7108C45.4142 20.6768 45.4166 20.6427 45.417 20.6085C45.417 18.8934 45.4505 17.1778 45.4057 15.4628C45.3542 13.4928 44.4912 11.8889 42.8005 10.8153C42.0901 10.3645 41.5909 9.80663 41.1038 9.16049C38.6021 5.84562 35.2195 4.41536 31.0594 5.0229C26.0992 5.74797 22.4801 9.94521 22.4412 14.8465C22.4257 16.7463 22.4412 18.6473 22.4412 20.5471C22.443 20.6 22.4488 20.6528 22.4586 20.7049L24.3636 19.8559V16.1288H26.2787V17.9415C28.6768 18.1701 30.7302 17.6099 32.1786 15.5856L33.7915 16.6381C33.4007 17.0919 33.0338 17.514 32.6436 17.9631C34.4821 17.8345 35.9041 17.0427 36.9694 15.5908L38.5782 16.6434L37.441 17.9532C39.0785 17.8947 40.1468 17.3152 41.7848 15.5885C42.2499 16.044 42.828 16.2118 43.5049 16.0873V19.8623L45.4098 20.7108ZM41.5873 18.411C39.8368 19.6817 37.9102 19.9834 35.8353 19.8173V19.0057C34.3134 19.8197 32.7118 19.922 31.0414 19.8243V19.0057C29.5255 19.8243 27.9126 19.9074 26.2661 19.8378V20.1489C26.2661 22.1943 26.2661 24.2397 26.2661 26.2851C26.2661 26.5962 26.2847 26.9084 26.3164 27.2177C26.7587 31.5354 31.078 34.6228 35.4283 33.7335C39.0462 32.9943 41.5706 29.9777 41.5831 26.3658C41.5915 23.8239 41.5831 21.2815 41.5831 18.7391L41.5873 18.411ZM29.1514 55.481C31.1312 55.9862 32.3695 57.2013 32.883 59.128H34.9807C35.1749 58.2362 35.6294 57.4184 36.2891 56.7736C36.9489 56.1288 37.7857 55.6845 38.6984 55.4944V51.6755H29.1514V55.481ZM16.703 59.1344H30.8685C30.8188 59.0175 30.7865 58.9175 30.7362 58.8268C30.1874 57.8328 29.3406 57.2866 28.1825 57.279C25.7497 57.2627 23.3174 57.2738 20.8846 57.2738H20.5063V54.4805H16.703V59.1344ZM51.1487 54.4875H47.3184V57.2732H46.9593C44.5367 57.2732 42.1116 57.2638 39.6913 57.2779C38.5201 57.2843 37.6661 57.8345 37.1143 58.8385C37.069 58.9338 37.0291 59.0314 36.9946 59.1309H51.1493L51.1487 54.4875ZM29.1389 34.5082C29.1389 34.8591 29.1814 35.1859 29.1305 35.4958C29.0108 36.2215 29.3561 36.6834 29.8959 37.1331C32.421 39.2259 36.3548 38.9838 38.5345 36.5723C38.6045 36.4946 38.7032 36.4004 38.705 36.3116C38.7206 35.7227 38.7134 35.1333 38.7134 34.5123C35.5097 36.1718 32.339 36.17 29.1389 34.5082ZM30.4274 46.4368C30.1162 47.0695 29.9546 49.0635 30.1419 49.7698H37.766C37.6912 48.6536 37.942 47.5256 37.4327 46.4281C36.9868 46.8772 36.4829 47.1725 35.8832 47.3052C35.7402 47.3398 35.6031 47.3946 35.4762 47.4677C34.4325 48.0484 33.3947 48.0472 32.3575 47.4543C32.2809 47.4104 32.2061 47.3461 32.1235 47.3327C31.461 47.228 30.9098 46.9193 30.4274 46.4392V46.4368ZM24.3516 27.1394V21.9282C23.3414 22.1621 22.4855 23.2766 22.4364 24.3882C22.3886 25.629 23.1816 26.7786 24.3516 27.1394ZM43.4941 27.1318C44.6348 26.8546 45.5008 25.5857 45.4122 24.325C45.335 23.2275 44.3817 22.0329 43.4941 21.9458V27.1318Z" fill="#F9BE35"/>
<path d="M53.0999 23.603H54.9779V25.4385H53.0999V23.603Z" fill="#F9BE35"/>
<path d="M18.5853 31.9975H16.7061V30.1626H18.5853V31.9975Z" fill="#F9BE35"/>
<path d="M46.3969 31.0874H48.2749V32.9229H46.3969V31.0874Z" fill="#F9BE35"/>
<path d="M10 36.6736V34.8369H11.8852V36.6736H10Z" fill="#F9BE35"/>
<path d="M38.3891 29.4518L37.0413 30.792C36.7738 30.4411 36.5027 30.0821 36.222 29.7085C34.7066 30.2827 33.1697 30.2932 31.6352 29.705L30.8201 30.7826C30.3413 30.3236 29.8972 29.8956 29.4508 29.467C30.3102 28.3349 30.3102 28.2876 29.4424 27.0432C29.8332 26.6591 30.2252 26.2726 30.6184 25.8878C30.6663 25.8404 30.7213 25.8001 30.783 25.748C31.2845 26.2644 31.6807 26.8339 31.88 27.5093C31.9019 27.6024 31.9471 27.6888 32.0114 27.7608C32.0757 27.8329 32.1572 27.8882 32.2487 27.9221C33.3814 28.3946 34.5113 28.3897 35.6385 27.9075C35.7203 27.8753 35.793 27.8241 35.8501 27.7584C35.9072 27.6927 35.9471 27.6144 35.9665 27.5303C36.1699 26.845 36.5649 26.269 37.0581 25.7644C37.5087 26.2112 37.948 26.645 38.3897 27.0824C37.5447 28.2238 37.5447 28.3145 38.3891 29.4518Z" fill="#F9BE35"/>
<path d="M30.0952 21.7075C30.0977 21.893 30.0437 22.0751 29.94 22.2306C29.8363 22.386 29.6876 22.5078 29.5129 22.5805C29.3382 22.6532 29.1452 22.6735 28.9587 22.6388C28.7721 22.6041 28.6003 22.516 28.4651 22.3857C28.33 22.2553 28.2375 22.0887 28.1995 21.9068C28.1615 21.725 28.1798 21.5363 28.2518 21.3646C28.3239 21.193 28.4467 21.0461 28.6044 20.9427C28.7621 20.8394 28.9477 20.7842 29.1377 20.7842C29.389 20.7857 29.6298 20.883 29.8087 21.0555C29.9876 21.228 30.0904 21.462 30.0952 21.7075Z" fill="#F9BE35"/>
<path d="M38.7194 22.6539C38.5296 22.655 38.3438 22.601 38.1854 22.4988C38.0271 22.3965 37.9034 22.2506 37.8301 22.0796C37.7568 21.9085 37.7372 21.72 37.7738 21.5381C37.8104 21.3561 37.9014 21.1889 38.0355 21.0576C38.1695 20.9263 38.3405 20.8369 38.5266 20.8007C38.7128 20.7645 38.9057 20.7832 39.081 20.8544C39.2562 20.9256 39.4059 21.046 39.5109 21.2004C39.616 21.3549 39.6717 21.5363 39.671 21.7218C39.6684 21.9678 39.5673 22.203 39.3895 22.3772C39.2117 22.5514 38.9712 22.6507 38.7194 22.6539Z" fill="#F9BE35"/>
<path d="M31.0732 53.5337H36.7756V55.3797H31.0732V53.5337Z" fill="#F9BE35"/>
</svg>
