<svg width="32" height="32" viewBox="0 0 32 32" fill="none" xmlns="http://www.w3.org/2000/svg">
<g clip-path="url(#clip0_40_33)">
<path d="M16 2.6665C19.6226 2.6665 20.0746 2.67984 21.496 2.7465C22.916 2.81317 23.8826 3.03584 24.7333 3.3665C25.6133 3.70517 26.3546 4.16384 27.096 4.90384C27.774 5.57036 28.2986 6.37662 28.6333 7.2665C28.9626 8.11584 29.1866 9.08384 29.2533 10.5038C29.316 11.9252 29.3333 12.3772 29.3333 15.9998C29.3333 19.6225 29.32 20.0745 29.2533 21.4958C29.1866 22.9158 28.9626 23.8825 28.6333 24.7332C28.2995 25.6235 27.7748 26.43 27.096 27.0958C26.4292 27.7736 25.623 28.2982 24.7333 28.6332C23.884 28.9625 22.916 29.1865 21.496 29.2532C20.0746 29.3158 19.6226 29.3332 16 29.3332C12.3773 29.3332 11.9253 29.3198 10.504 29.2532C9.08396 29.1865 8.11729 28.9625 7.26663 28.6332C6.37639 28.2991 5.57 27.7744 4.90396 27.0958C4.22583 26.4294 3.7012 25.6231 3.36663 24.7332C3.03596 23.8838 2.81329 22.9158 2.74663 21.4958C2.68396 20.0745 2.66663 19.6225 2.66663 15.9998C2.66663 12.3772 2.67996 11.9252 2.74663 10.5038C2.81329 9.0825 3.03596 8.11717 3.36663 7.2665C3.70027 6.37608 4.22503 5.5696 4.90396 4.90384C5.57019 4.22548 6.37653 3.70081 7.26663 3.3665C8.11729 3.03584 9.08263 2.81317 10.504 2.7465C11.9253 2.68384 12.3773 2.6665 16 2.6665ZM16 9.33317C14.2318 9.33317 12.5362 10.0355 11.2859 11.2858C10.0357 12.536 9.33329 14.2317 9.33329 15.9998C9.33329 17.7679 10.0357 19.4636 11.2859 20.7139C12.5362 21.9641 14.2318 22.6665 16 22.6665C17.7681 22.6665 19.4638 21.9641 20.714 20.7139C21.9642 19.4636 22.6666 17.7679 22.6666 15.9998C22.6666 14.2317 21.9642 12.536 20.714 11.2858C19.4638 10.0355 17.7681 9.33317 16 9.33317ZM24.6666 8.99984C24.6666 8.55781 24.491 8.13389 24.1785 7.82133C23.8659 7.50877 23.442 7.33317 23 7.33317C22.5579 7.33317 22.134 7.50877 21.8214 7.82133C21.5089 8.13389 21.3333 8.55781 21.3333 8.99984C21.3333 9.44186 21.5089 9.86579 21.8214 10.1783C22.134 10.4909 22.5579 10.6665 23 10.6665C23.442 10.6665 23.8659 10.4909 24.1785 10.1783C24.491 9.86579 24.6666 9.44186 24.6666 8.99984ZM16 11.9998C17.0608 11.9998 18.0782 12.4213 18.8284 13.1714C19.5785 13.9216 20 14.939 20 15.9998C20 17.0607 19.5785 18.0781 18.8284 18.8283C18.0782 19.5784 17.0608 19.9998 16 19.9998C14.9391 19.9998 13.9217 19.5784 13.1715 18.8283C12.4214 18.0781 12 17.0607 12 15.9998C12 14.939 12.4214 13.9216 13.1715 13.1714C13.9217 12.4213 14.9391 11.9998 16 11.9998Z" fill="#F9BE35"/>
</g>
<defs>
<clipPath id="clip0_40_33">
<rect width="32" height="32" fill="white"/>
</clipPath>
</defs>
</svg>
