<svg width="64" height="64" viewBox="0 0 64 64" fill="none" xmlns="http://www.w3.org/2000/svg">
<path d="M30.9685 38.7669C34.4299 41.1147 36.369 44.2997 36.7966 48.4136H44.5469V28.1338H44.2316C43.0943 28.1338 41.9566 28.1338 40.8185 28.1338C40.1178 28.1338 39.7312 27.7497 39.7312 27.055C39.7312 25.8369 39.7312 24.6186 39.7312 23.4001C39.7312 22.72 40.1184 22.3353 40.8016 22.3353C43.3991 22.3353 45.9967 22.3365 48.5942 22.3389C48.8038 22.3389 48.9035 22.2712 49.0061 22.0888C49.9986 20.3227 51.5433 19.2675 53.4563 18.7251C53.9916 18.5728 54.5618 18.5179 55.1206 18.478C55.7331 18.4345 56.1602 18.8628 56.1608 19.4728C56.1652 22.6749 56.1652 25.8762 56.1608 29.0767C56.1608 29.6692 55.7379 30.0769 55.1339 30.0624C53.4539 30.0226 51.9794 29.4186 50.6637 28.3984L50.4009 28.1936C50.439 28.5862 50.4517 28.9088 50.5042 29.2247C51.0177 32.3196 52.5696 34.7496 55.1967 36.4729C58.2019 38.4425 60.0957 41.1661 60.7717 44.7014C60.911 45.4734 60.983 46.2562 60.9867 47.0407C61.0163 49.0436 60.997 51.0478 60.997 53.0513C60.997 53.8129 60.736 54.124 59.9701 54.2623C59.6354 56.4591 58.5916 58.2488 56.78 59.5571C55.3441 60.5954 53.7233 61.0672 51.9558 60.9911C48.0783 60.8183 45.0609 57.8447 44.6091 54.2496H30.0063C29.6541 56.5358 28.5504 58.3726 26.6277 59.6858C25.2462 60.6286 23.7046 61.04 22.0367 60.9977C18.6642 60.9131 15.0802 58.2192 14.6393 54.2327H14.3125C12.5208 54.2327 10.7287 54.2327 8.93622 54.2327C8.21677 54.2327 7.83499 53.8522 7.83439 53.1358C7.83439 51.8571 7.82593 50.5784 7.83439 49.2997C7.85432 47.0141 8.46383 44.8934 9.63936 42.934C9.6895 42.8501 9.73661 42.7643 9.81092 42.632H4.13988C3.36607 42.632 3 42.2623 3 41.4844C3 32.9073 3 24.3291 3 15.7497C3 14.9645 3.35821 14.6021 4.13868 14.6021H36.6674C37.4255 14.6021 37.7958 14.9723 37.7964 15.7322C37.7964 23.042 37.7964 30.3516 37.7964 37.661C37.7964 38.3966 37.4194 38.7681 36.6752 38.7681H30.9685V38.7669ZM4.94753 36.8129H35.8398V16.5494H4.94753V36.8129ZM46.5005 52.2757H59.0513C59.0549 52.2081 59.0603 52.1495 59.0603 52.0909C59.0603 50.3193 59.0875 48.5465 59.0507 46.7755C58.9963 44.1783 58.0793 41.912 56.3595 39.9653C56.1934 39.7774 56.0249 39.7237 55.7856 39.7394C53.3615 39.9025 51.2599 41.5792 50.6027 43.9149C50.4571 44.432 50.4003 44.9732 50.3007 45.5337H48.4522C48.367 44.4 48.7905 42.8102 49.5039 41.6191C50.5634 39.8511 52.1014 38.6884 54.0985 38.0813C54.0006 38.0089 53.9305 37.9551 53.8568 37.9044C50.6553 35.6369 48.8171 32.5649 48.4909 28.6472C48.3803 27.3184 48.445 25.972 48.4305 24.6335C48.4305 24.517 48.4305 24.401 48.4305 24.2917H46.5005V52.2757ZM13.6438 52.283H31.0054C31.4524 46.9477 27.4933 42.8603 22.7181 42.6417C17.8602 42.4158 13.2402 46.3684 13.6438 52.2824V52.283ZM11.7107 52.2866C11.55 49.2677 12.3522 46.5835 14.3566 44.3214C16.3609 42.0594 18.9058 40.8375 21.9316 40.7143C24.6258 40.6049 27.0421 41.4197 29.1044 43.1557C31.9272 45.5295 33.1275 48.6226 32.9578 52.2812H34.8908C34.8908 51.2169 34.9053 50.1707 34.8872 49.1258C34.8677 47.9261 34.6336 46.7397 34.1961 45.6225C32.5585 41.4276 28.6864 38.7796 24.18 38.7687C22.9821 38.7687 21.7842 38.7742 20.5858 38.7687C19.1299 38.7597 17.7116 38.9813 16.3772 39.5672C12.728 41.1703 10.5141 43.9343 9.90032 47.8833C9.7191 49.0376 9.80065 50.2317 9.76621 51.4077C9.75715 51.6971 9.76621 51.9864 9.76621 52.289L11.7107 52.2866ZM28.0086 54.2339C27.4649 54.2339 26.9213 54.2478 26.3806 54.2279C26.139 54.2188 26.0387 54.2883 25.9578 54.5245C25.3537 56.2948 23.6019 57.3718 21.7673 57.0807C20.2306 56.836 19.2181 55.933 18.6733 54.4876C18.637 54.3922 18.5452 54.246 18.4757 54.246C17.8674 54.2273 17.2585 54.2351 16.6454 54.2351C16.9239 56.4948 19.0991 59.1277 22.4409 59.0618C25.8043 58.9966 27.7863 56.284 28.0086 54.2339ZM57.9706 54.2339C57.4269 54.2339 56.8832 54.2478 56.3426 54.2273C56.101 54.2182 56.0013 54.2931 55.9198 54.5251C55.3115 56.2991 53.5639 57.3718 51.7299 57.0801C50.1925 56.8385 49.1801 55.9324 48.6352 54.487C48.5996 54.3916 48.5078 54.2454 48.4377 54.2454C47.8294 54.2261 47.2205 54.2345 46.608 54.2345C46.8883 56.5014 49.0738 59.1422 52.4337 59.0606C55.8098 58.9785 57.7585 56.2441 57.9706 54.2339ZM54.2163 20.5015C52.688 20.9243 51.4091 21.6491 50.6522 23.0848C50.2179 23.9105 50.2475 24.7616 50.7169 25.5613C50.9458 25.9504 51.2262 26.3067 51.5505 26.6208C52.2929 27.3371 53.1899 27.7853 54.2139 28.0148L54.2163 20.5015ZM36.8371 52.2805H44.539V50.3918H36.8371V52.2805ZM4.94813 40.678C4.9832 40.6874 5.01895 40.6941 5.05505 40.6979C7.09742 40.6979 9.13979 40.7022 11.1822 40.6931C11.2933 40.6931 11.4184 40.6104 11.5126 40.5349C12.1771 40.0015 12.8373 39.4597 13.4982 38.9197C13.5453 38.8817 13.5888 38.8388 13.6522 38.782H4.94813V40.678ZM44.5493 24.2893H41.6872V26.1841H44.5493V24.2893ZM23.9776 54.2527H20.6776C21.0944 54.8669 21.6278 55.1961 22.3303 55.1955C23.0328 55.1949 23.5705 54.8742 23.9776 54.2527ZM50.6396 54.2478C51.0854 54.9056 51.6556 55.2306 52.3968 55.1925C53.0558 55.1587 53.5639 54.841 53.945 54.2478H50.6396Z" fill="#F9BE35"/>
<path d="M33.0151 12.6546H31.076C31.0017 12.111 30.9594 11.5734 30.8501 11.0467C30.1228 7.53737 26.9943 4.9558 23.4013 4.9407C18.0172 4.91896 12.6331 4.93285 7.24959 4.93285H6.8811V3H7.22845C12.5527 3 17.8766 3 23.2001 3C27.8642 3 31.7496 6.11551 32.7493 10.6746C32.8882 11.31 32.9257 11.9666 33.0151 12.6546Z" fill="#F9BE35"/>
<path d="M28.153 12.6558H26.2302C26.1813 12.3538 26.1529 12.0518 26.084 11.7649C25.885 10.9259 25.41 10.1781 24.7351 9.64142C24.0602 9.10472 23.2246 8.81024 22.3623 8.80522C20.5404 8.79676 18.7186 8.80522 16.8973 8.80522H16.5511V6.86572H16.8532C18.6545 6.86572 20.4565 6.86572 22.2578 6.86572C25.1574 6.87237 27.5 8.81247 28.0406 11.6622C28.0992 11.9787 28.1137 12.3019 28.153 12.6558Z" fill="#F9BE35"/>
<path d="M3.01636 3.01367H4.91194V4.91511H3.01636V3.01367Z" fill="#F9BE35"/>
<path d="M10.7176 8.78851H8.82019V6.88525H10.7176V8.78851Z" fill="#F9BE35"/>
<path d="M14.5837 6.88672V8.78635H12.6881V6.88672H14.5837Z" fill="#F9BE35"/>
<path d="M19.4308 21.4079V19.4497H21.3511V21.4043C24.27 21.7305 26.6797 22.9699 28.5523 25.1981C30.4249 27.4263 31.174 30.0454 31.0163 32.9543H32.9378V34.8799H7.85193V32.9748H9.77771C9.61884 30.0719 10.354 27.4553 12.2236 25.2205C14.0932 22.9856 16.5016 21.7401 19.4308 21.4079ZM29.0669 32.9591C29.369 29.512 27.8207 26.2914 24.8233 24.518C21.7456 22.6975 17.9236 22.9174 15.1515 25.0725C12.583 27.0694 11.5271 29.7415 11.7138 32.9591H29.0669Z" fill="#F9BE35"/>
<path d="M48.4449 47.481H50.3393V49.3806H48.4449V47.481Z" fill="#F9BE35"/>
<path d="M20.3828 25.2616V27.154C18.5736 27.2391 17.1849 28.0322 16.2057 29.5785L14.5717 28.6344C15.5774 26.6122 18.1562 25.1577 20.3828 25.2616Z" fill="#F9BE35"/>
</svg>
