<svg width="32" height="32" viewBox="0 0 32 32" fill="none" xmlns="http://www.w3.org/2000/svg">
<g clip-path="url(#clip0_40_39)">
<path d="M16 29.3332C8.63596 29.3332 2.66663 23.3638 2.66663 15.9998C2.66663 8.63584 8.63596 2.6665 16 2.6665C23.364 2.6665 29.3333 8.63584 29.3333 15.9998C29.3333 23.3638 23.364 29.3332 16 29.3332ZM11.8533 17.5598L11.8706 17.5505L13.0306 21.3772C13.18 21.7918 13.3853 21.8665 13.6346 21.8318C13.8853 21.7985 14.0173 21.6638 14.1813 21.5065L15.7653 19.9758L19.1653 22.4932C19.7866 22.8358 20.2333 22.6585 20.388 21.9172L22.5973 11.4878C22.8413 10.5172 22.4146 10.1278 21.6613 10.4372L8.68396 15.4505C7.79863 15.8052 7.80396 16.3012 8.52396 16.5212L11.8533 17.5612V17.5598Z" fill="#F9BE35"/>
</g>
<defs>
<clipPath id="clip0_40_39">
<rect width="32" height="32" fill="white"/>
</clipPath>
</defs>
</svg>
