<svg width="60" height="60" viewBox="0 0 60 60" fill="none" xmlns="http://www.w3.org/2000/svg">
<path d="M58 39.5679C57.4358 40.5702 56.9879 40.671 55.9874 40.0365C54.9169 39.3566 53.7095 39.0671 52.4796 38.9185C49.588 38.5741 46.7067 38.7343 43.8157 39.2513C43.8029 39.3728 43.7688 39.4794 43.7836 39.5789C44.7308 45.8285 40.7102 50.8264 35.1435 51.9863C34.2574 52.1705 34.0646 52.1059 33.4863 51.3601C32.7461 51.8474 32.0482 52.4225 31.2566 52.798C30.2618 53.2697 29.2042 53.6232 28.1478 53.9418C27.2578 54.2106 27.0445 54.0833 26.4616 53.2956C26.3235 53.3983 26.1802 53.4959 26.0465 53.6058C24.5506 54.8336 22.8337 55.5884 20.9548 55.9922C20.2768 56.1376 19.7756 55.9063 19.4871 55.2168C18.0375 56.4801 16.4471 57.326 14.6549 57.7958C13.0273 58.223 12.6488 58.0543 12.3237 56.4284C12.1039 55.3299 12.0666 54.1893 11.951 53.0681C11.9413 52.8759 11.9413 52.6833 11.951 52.491C10.9999 52.5343 10.0971 52.6203 9.19623 52.6086C6.80198 52.5737 4.62879 51.797 2.63551 50.4987C2.37848 50.3301 2.20948 50.0205 2 49.7763V49.3368C2.77688 48.1523 3.467 46.8974 4.35119 45.7994C5.59586 44.2537 7.25243 43.2146 9.16603 42.4792C9.04779 42.2918 8.95719 42.1418 8.8608 41.9951C8.11377 40.8681 7.56575 39.6198 7.24086 38.3052C7.01211 37.3721 7.21259 36.9695 8.09164 36.6587C9.87029 36.0306 11.6901 35.7895 13.5696 36.0603C13.7303 36.0835 13.8954 36.081 14.1428 36.0952C13.9603 34.899 14.8618 34.7381 15.6689 34.4906C17.2754 34.0034 18.9094 33.8405 20.5769 34.0835C20.7376 34.1068 20.9021 34.1029 21.1405 34.1165C20.9837 33.0075 21.7715 32.7833 22.5702 32.5397C24.2133 32.0395 25.8788 31.8618 27.5823 32.1061C27.7423 32.1293 27.9036 32.1248 28.1523 32.1377C27.9788 31.0527 28.7351 30.8175 29.5229 30.5778C35.2605 28.833 40.5868 31.2789 43.0029 36.8034C43.1744 37.1957 43.3923 37.1782 43.7296 37.1265C47.1816 36.5734 50.6425 36.3201 54.0938 37.08C54.9775 37.2853 55.8339 37.5956 56.6448 38.0041C57.1589 38.2555 57.5515 38.746 57.9987 39.1292L58 39.5679ZM41.6143 39.7728C40.8689 39.9835 40.1306 40.2478 39.3704 40.3932C38.5119 40.558 37.8802 41.0245 37.3225 41.6488C35.245 43.9713 34.6564 46.6673 35.2662 49.6787C39.0253 49.6296 42.8769 43.6126 41.6143 39.7728ZM30.5035 32.5352C30.5523 32.7058 30.5819 32.8453 30.632 32.9765C31.3581 34.8564 32.5597 36.3369 34.2452 37.449C36.4871 38.9308 38.7471 38.7511 41.0424 37.6306C39.4141 33.1962 34.5511 31.2201 30.5035 32.5332V32.5352ZM14.4853 46.4457C13.3428 45.7742 12.2363 45.1532 11.1657 44.4786C10.8746 44.295 10.6517 44.2201 10.3182 44.3286C7.86802 45.1196 6.02639 46.6692 4.67826 48.8431C4.62856 48.9319 4.5856 49.0244 4.54975 49.1197C4.5883 49.1733 4.60308 49.2141 4.63136 49.2289C7.00889 50.5052 9.50081 50.8787 12.1245 50.1789C12.2652 50.1414 12.4522 50.0315 12.4952 49.9113C12.9474 48.6458 13.6214 47.4721 14.4853 46.4457ZM14.3413 55.6866C15.956 55.2466 17.4197 54.3698 18.5734 53.1515C18.8722 52.8387 18.9962 52.5208 18.9679 52.08C18.8226 50.0246 19.2838 47.9718 20.2935 46.1788C20.3494 46.0786 20.3771 45.9629 20.4561 45.7529C19.4042 46.0489 18.4474 46.3151 17.4925 46.593C17.3908 46.6322 17.2965 46.6886 17.2137 46.7597C14.6986 48.6008 13.3807 52.6261 14.3413 55.6866ZM28.338 51.7298C29.9532 51.2926 31.4174 50.4164 32.57 49.1973C32.8681 48.8858 32.9967 48.5691 32.9677 48.1271C32.8224 46.072 33.2833 44.0194 34.2927 42.2265C34.3486 42.1257 34.3776 42.01 34.463 41.7851C33.3706 42.1011 32.3824 42.3855 31.3954 42.6756C31.3293 42.7069 31.2685 42.7486 31.2154 42.799C28.6978 44.6505 27.3921 48.6299 28.338 51.7298ZM21.2876 53.6833C21.442 53.6629 21.595 53.6331 21.7458 53.5941C23.2243 53.1125 24.5572 52.2616 25.6199 51.121C25.7471 50.9948 25.8445 50.8414 25.9048 50.6721C25.9651 50.5029 25.9868 50.3221 25.9681 50.1433C25.8185 48.07 26.2822 45.9985 27.3009 44.1897C27.3548 44.0928 27.3773 43.9784 27.4454 43.7806C26.8311 43.9545 26.319 44.1613 25.7882 44.2369C24.3482 44.443 23.4107 45.3354 22.6293 46.4586C21.1064 48.6467 20.7125 51.0519 21.2876 53.6833ZM33.7793 39.7851L33.8584 39.6332C33.7894 39.6077 33.7218 39.5786 33.6559 39.546C31.6781 38.4597 30.2079 36.8842 29.1579 34.89C29.0634 34.7116 28.8238 34.5617 28.6201 34.4971C27.0181 33.9866 25.3988 33.9969 23.7763 34.3988C23.6806 34.4228 23.5983 34.499 23.4782 34.5701C24.6149 37.6254 26.6268 39.6804 29.8159 40.4559C30.1982 40.5489 30.6275 40.6349 30.9982 40.5541C31.937 40.3492 32.854 40.0481 33.7793 39.7851ZM9.49631 38.4345C9.54386 38.6103 9.56057 38.7156 9.60041 38.8138C10.4107 40.9683 11.7852 42.6349 13.8369 43.7005C15.9176 44.781 17.9308 44.7551 19.7917 43.6443C19.7563 43.6029 19.7274 43.5487 19.6876 43.5254C17.6956 42.4268 16.2029 40.8481 15.1568 38.8293C15.0832 38.6865 14.962 38.5744 14.8143 38.5127C13.0742 37.9298 11.3238 37.9298 9.49631 38.4345ZM26.9359 41.7179C26.6596 41.5441 26.5131 41.4465 26.362 41.358C24.8044 40.4436 23.4563 39.2584 22.6576 37.6474C22.0844 36.4913 21.1887 36.2651 20.1239 36.1449C19.8708 36.1128 19.6162 36.0938 19.3612 36.0881C18.3973 36.079 17.4495 36.1469 16.539 36.4674C16.539 36.5701 16.5242 36.629 16.539 36.6748C17.6519 39.6746 19.6844 41.6707 22.8247 42.4346C23.207 42.5276 23.6356 42.6103 24.0064 42.5296C24.9464 42.3241 25.8634 42.0229 26.9359 41.7179Z" fill="#F9BE35"/>
<path d="M58 21.782C57.6479 22.109 57.3394 22.5103 56.9365 22.7514C54.2634 24.3598 51.3859 24.975 48.2906 24.4315C48.2087 24.4286 48.1266 24.4321 48.0452 24.4419C48.0452 24.6325 48.0388 24.8225 48.0452 25.0118C48.1079 26.3841 47.9246 27.7566 47.5041 29.0636C47.2343 29.8882 46.8236 30.1163 45.9658 29.9354C44.0426 29.5283 42.3121 28.7224 40.8027 27.4507C40.7217 27.3822 40.6305 27.3272 40.4968 27.2335C40.128 28.1033 39.4687 28.0956 38.7079 27.9088C36.9851 27.4849 35.4095 26.7689 34.0216 25.6535C33.8674 25.5294 33.7144 25.4034 33.4992 25.2277C33.1008 26.2448 32.3387 26.1039 31.5586 25.8991C29.8435 25.4551 28.2724 24.7217 26.9025 23.5798C26.7919 23.4874 26.6737 23.4027 26.5034 23.2709C26.1024 24.2402 25.3468 24.1711 24.5712 23.9171C23.6754 23.6212 22.7822 23.3058 21.9173 22.9304C21.224 22.6292 21.0139 22.0347 21.2927 21.4602C21.5652 20.8999 22.1699 20.7455 22.8452 21.0415C23.4351 21.2999 24.0346 21.5365 24.6926 21.8085C25.2889 19.0595 24.8854 16.6355 23.331 14.4416C22.567 13.3618 21.6603 12.4836 20.2511 12.2833C19.6137 12.1928 18.9987 11.944 18.2399 11.7295C18.2219 12.6555 18.2122 13.4885 18.1878 14.3214C18.1718 14.8668 17.8537 15.232 17.3525 15.3127C16.8384 15.3955 16.3835 15.1583 16.2048 14.6898C16.1506 14.5356 16.1236 14.3731 16.1251 14.2096C16.1181 13.2461 16.1251 12.2826 16.1251 11.2021C15.0328 11.0729 13.8491 10.8823 12.6597 10.8047C10.4178 10.6529 8.16875 10.6238 5.98398 11.2267C5.3002 11.414 4.64212 11.6858 4.02476 12.0358C2.98122 12.6329 2.58153 12.5766 2 11.5711V11.1317C2.41318 10.7646 2.77431 10.2916 3.25174 10.0538C4.07617 9.64669 4.95072 9.28481 5.84454 9.08448C9.33053 8.3032 12.8281 8.56298 16.3147 9.12778C16.7002 9.1924 16.8564 9.10451 17.0048 8.75233C19.2853 3.34412 24.8899 0.777343 30.4662 2.56349C31.2463 2.81358 32 3.04945 31.8587 4.11442C32.0074 4.12382 32.1565 4.12382 32.3052 4.11442C33.9675 3.86662 35.6637 3.99354 37.2711 4.48599C38.0814 4.72962 39.0305 4.87372 38.8595 6.10929C39.0844 6.09895 39.2303 6.10477 39.3736 6.08409C41.1728 5.8256 42.9258 6.02981 44.6524 6.57005C45.3856 6.79945 45.9832 7.12192 45.8553 8.06216C46.0693 8.06216 46.2305 8.08155 46.3867 8.06216C48.3003 7.79269 50.1593 8.0221 51.9713 8.67349C52.7476 8.95265 52.9885 9.40565 52.7913 10.2057C52.4637 11.5577 51.9025 12.8415 51.1334 13.9983C51.037 14.1418 50.9509 14.2924 50.8359 14.4791C52.7566 15.2158 54.4112 16.2594 55.6552 17.8058C56.5381 18.9044 57.227 20.1613 58.0026 21.3471L58 21.782ZM29.5274 4.55191C25.5775 3.17094 20.4882 5.19102 18.9428 9.71196C19.6902 9.92909 20.4503 10.1074 21.179 10.3724C21.9919 10.6684 22.7758 10.6212 23.5797 10.3789C26.56 9.48191 28.4498 7.47669 29.5274 4.55191ZM45.6599 18.3739C46.2383 19.4802 46.8436 20.677 47.4874 21.8538C47.5812 22.0263 47.8306 22.1652 48.0343 22.2176C49.4691 22.5847 50.9685 22.6161 52.4173 22.3093C53.4846 22.0883 54.5069 21.7316 55.4194 21.1888C55.4297 21.1067 55.44 21.0841 55.4329 21.0712C54.0873 18.6905 52.1256 17.075 49.509 16.2795C49.3564 16.2363 49.1933 16.2517 49.0515 16.3228C47.8845 17.0149 46.7285 17.7244 45.6599 18.3739ZM50.521 10.4299C48.7617 9.93943 47.0942 9.89742 45.4382 10.4338C45.1577 10.5301 44.9193 10.7219 44.7642 10.976C43.7528 12.8364 42.3693 14.3234 40.536 15.3838C40.4075 15.4575 40.2951 15.5538 40.0926 15.6985C41.0681 15.9732 41.9201 16.2304 42.7818 16.4475C43.079 16.5271 43.3891 16.546 43.6936 16.5031C45.4286 16.2084 46.9425 15.4556 48.2045 14.22C49.2757 13.1705 50.0397 11.9304 50.521 10.4299ZM25.589 13.8032C25.589 13.9285 25.5755 13.9718 25.589 13.997C26.7341 15.9874 27.1833 18.1328 27.0368 20.4198C27.0245 20.6072 27.1421 20.8418 27.2719 20.993C28.1679 22.0366 29.3031 22.8453 30.5793 23.3491C30.9256 23.4887 31.2861 23.5973 31.6839 23.7368C32.1896 21.6295 32.0257 19.6657 31.128 17.7916C30.2548 15.968 29.0718 14.4739 26.887 14.1599C26.4565 14.0978 26.0363 13.9285 25.591 13.8032H25.589ZM32.5533 15.8142C32.5698 15.9002 32.5946 15.9844 32.6272 16.0656C33.7414 17.9887 34.161 20.067 34.0408 22.2764C34.0397 22.5408 34.1306 22.7974 34.2979 23.0014C35.3736 24.2461 36.7204 25.0874 38.2819 25.5896C38.4104 25.6309 38.5485 25.6316 38.715 25.6542C39.2734 23.0047 38.8165 20.6318 37.3578 18.3946C36.2121 16.631 34.4502 16.2019 32.5552 15.8142H32.5533ZM43.5414 8.45765C41.8013 7.96135 40.1588 7.95101 38.5061 8.40401C38.1309 8.50676 37.8931 8.69998 37.7042 9.05928C36.7642 10.8727 35.3252 12.3757 33.5589 13.3889C33.4304 13.4652 33.3064 13.5615 33.0924 13.7121C33.859 13.935 34.5318 14.0849 35.1699 14.3273C36.002 14.6439 36.8065 14.5735 37.6258 14.3221C40.5823 13.4129 42.4625 11.416 43.5426 8.45765H43.5414ZM45.6143 27.715C45.6978 27.5741 45.7428 27.5308 45.7499 27.4817C46.1997 25.3278 45.915 23.2871 44.9313 21.309C43.8196 19.0737 41.9523 18.0928 39.551 17.842C39.6152 17.9861 39.6685 18.1186 39.7367 18.242C40.5945 19.8098 41.176 21.4977 41.0077 23.2722C40.8792 24.6396 41.5269 25.386 42.4586 26.08C42.8624 26.3934 43.2924 26.671 43.7438 26.9098C44.3523 27.2135 44.9955 27.45 45.6156 27.7124L45.6143 27.715ZM26.0722 11.7385C27.074 12.019 27.9267 12.2742 28.7891 12.4894C29.0858 12.569 29.3954 12.5879 29.6996 12.545C31.3742 12.2613 32.8482 11.5453 34.089 10.373C35.214 9.31742 36.047 7.98603 36.5064 6.5093C36.4141 6.46481 36.319 6.42639 36.2218 6.39427C34.6651 5.98151 33.0267 5.99736 31.4782 6.44016C31.121 6.54097 30.8961 6.72578 30.7174 7.06505C29.7536 8.90225 28.3772 10.3608 26.5799 11.4044C26.4456 11.4787 26.3203 11.5724 26.0722 11.7385Z" fill="#F9BE35"/>
<path d="M18.7346 17.7445C19.0082 17.7404 19.2726 17.8439 19.4715 18.0329C19.6704 18.2219 19.788 18.4815 19.7994 18.7565C19.8048 19.0357 19.6998 19.3056 19.5073 19.5069C19.4121 19.6066 19.2982 19.6864 19.1722 19.7418C19.0462 19.7972 18.9107 19.8271 18.7732 19.8298C18.6357 19.8326 18.4991 19.808 18.3711 19.7576C18.243 19.7072 18.1261 19.632 18.027 19.5361C17.8268 19.3426 17.7113 19.077 17.7059 18.7978C17.7062 18.5218 17.8141 18.2569 18.0064 18.0599C18.1987 17.863 18.4602 17.7497 18.7346 17.7445Z" fill="#F9BE35"/>
</svg>
