<svg width="32" height="32" viewBox="0 0 32 32" fill="none" xmlns="http://www.w3.org/2000/svg">
<path d="M15.9982 17.7256C15.6574 16.9291 15.0031 16.5163 14.3879 16.067C14.0593 15.8278 13.7264 15.5941 13.4209 15.3299C11.9767 14.0882 11.5434 12.5674 11.9962 10.7993C12.0602 10.5518 12.0945 10.2985 12.0987 10.0439C12.111 9.17038 12.1038 8.29682 12.1038 7.42325C12.1038 7.35569 12.0792 7.27597 12.1103 7.22665C12.1782 7.13748 12.2545 7.05426 12.3385 6.97803C12.4147 7.05292 12.4815 7.13564 12.5378 7.22463C12.5688 7.28678 12.545 7.37394 12.545 7.4496C12.545 8.36168 12.5327 9.27375 12.5544 10.1845C12.566 10.398 12.6386 10.6047 12.7645 10.7831C12.909 10.9932 13.1256 11.1675 13.3271 11.3377C13.5176 11.4945 13.7193 11.6389 13.9308 11.7701C14.793 12.3214 15.6198 12.9011 15.9527 13.8909C16.0004 13.8733 16.0249 13.872 16.0307 13.8618C16.3557 13.0687 16.9449 12.491 17.6844 12.0154C18.1482 11.7096 18.5924 11.3784 19.0145 11.0236C19.3294 10.7648 19.4759 10.4351 19.4601 10.0102C19.4268 9.13795 19.4499 8.26371 19.4499 7.39015C19.4499 7.31381 19.4276 7.22665 19.4601 7.16517C19.4983 7.09018 19.5965 6.97938 19.6478 6.98884C19.696 7.00189 19.7405 7.02486 19.778 7.05608C19.8154 7.08729 19.845 7.12595 19.8644 7.16923C19.9027 7.27124 19.8767 7.3942 19.8767 7.50703C19.8767 7.99144 19.8948 8.47653 19.8731 8.95959C19.8363 9.80816 19.972 10.6338 20.1121 11.4702C20.3562 12.9295 19.8363 14.1881 18.7011 15.207C18.2924 15.5738 17.8346 15.8907 17.3847 16.2204C16.8402 16.623 16.2921 17.0169 15.9982 17.7256ZM19.629 11.1256C18.9791 11.5985 18.3595 12.0715 17.7111 12.5038C16.9613 12.9932 16.4436 13.7355 16.2668 14.5746C16.1722 14.9881 16.0964 15.4049 16.0126 15.8204C15.9208 15.5203 15.8484 15.2153 15.796 14.907C15.6516 14.1449 15.4025 13.4119 14.7598 12.8943C13.99 12.2748 13.1711 11.7127 12.3681 11.1249C12.3537 11.1878 12.3269 11.279 12.3118 11.3715C12.0576 12.9525 12.6512 14.2212 13.9474 15.2225C14.6334 15.7529 15.331 16.2697 15.9946 16.771C16.5658 16.3386 17.168 15.8927 17.7587 15.4333C18.0696 15.2045 18.3623 14.955 18.6347 14.6867C19.6312 13.6537 19.9237 12.4457 19.629 11.1256Z" fill="black" fill-opacity="0.35"/>
<path d="M12.2792 19.6333C12.3153 19.6583 12.3406 19.6671 12.3456 19.6813C12.6345 20.5244 13.3198 21.0386 14.0599 21.5054C14.8882 22.027 15.6334 22.6141 15.9786 23.5998C16.0508 23.4647 16.0891 23.3971 16.123 23.3221C16.3769 22.7675 16.7855 22.2868 17.3059 21.9304C17.6099 21.7277 17.9103 21.5135 18.2172 21.3108C18.8671 20.8825 19.4267 20.3866 19.6679 19.6353C20.3178 21.0683 20.3901 22.4729 19.5567 23.8538C19.1603 24.5132 18.5746 25.0078 17.9493 25.4692C17.4951 25.807 17.0452 26.1448 16.6032 26.4921C16.465 26.5956 16.3562 26.7295 16.2865 26.8817C16.2167 27.0339 16.1881 27.1999 16.2032 27.365C16.2364 28.1332 16.2133 28.9034 16.2133 29.6729C16.2133 29.8296 16.2184 30.0039 15.9822 29.9958C15.7656 29.9884 15.7851 29.8147 15.7844 29.6742C15.7844 28.8574 15.7959 28.0399 15.7743 27.2238C15.7697 27.0294 15.6963 26.8419 15.5656 26.6907C15.272 26.4036 14.9584 26.135 14.6268 25.8868C14.2383 25.5814 13.8173 25.3111 13.4432 24.9916C11.9672 23.7316 11.5231 22.1831 12.0236 20.3866C12.0914 20.1353 12.1904 19.8894 12.2792 19.6333ZM12.3687 20.7818C12.3572 20.8332 12.329 20.9318 12.3131 21.0318C12.0777 22.5148 12.5789 23.7511 13.7776 24.7281C14.5084 25.324 15.2782 25.8766 16.0003 26.4299C16.4646 26.0725 16.9556 25.707 17.4308 25.3246C17.8908 24.9537 18.3854 24.6058 18.7754 24.1761C19.6802 23.1796 19.9113 22.0142 19.6268 20.7771C18.9834 21.2426 18.3609 21.723 17.7059 22.1594C16.9282 22.6735 16.4653 23.3694 16.2675 24.2275C16.1736 24.6328 16.0992 25.0476 16.0162 25.4577C15.8992 25.0774 15.8299 24.695 15.7475 24.316C15.5554 23.4377 15.1106 22.7114 14.3141 22.1763C13.6512 21.7317 13.0172 21.2473 12.3687 20.7818Z" fill="black" fill-opacity="0.35"/>
<path d="M6.48492 16.5378C6.79038 15.8723 7.3067 15.4318 7.8974 15.04C9.30626 14.1063 9.3012 14.0995 9.3012 12.4862C9.3012 12.0585 9.3012 11.6315 9.3012 11.2025C9.3012 11.0552 9.3077 10.8951 9.52506 10.8985C9.74242 10.9019 9.74169 11.0613 9.74169 11.2086C9.74169 11.2181 9.74169 11.2275 9.74169 11.237C9.76336 12.4105 9.71714 13.5786 9.92945 14.7501C10.1461 15.9406 9.64926 16.9729 8.70184 17.7958C8.37616 18.0796 8.0151 18.3289 7.66415 18.5869C7.1991 18.9288 6.72972 19.2625 6.49431 19.8834C6.08992 18.972 5.21688 18.5782 4.51642 18.0181C3.15955 16.931 2.71689 15.5872 3.17472 13.9752C3.21554 13.829 3.23641 13.6785 3.23682 13.5273C3.24332 12.7578 3.23682 11.9882 3.24043 11.2187C3.24043 11.0769 3.21732 10.9059 3.43974 10.8998C3.6802 10.8938 3.6672 11.0694 3.6672 11.2248C3.6672 11.9558 3.68742 12.6882 3.65782 13.4185C3.64843 13.5793 3.6782 13.7399 3.74488 13.8883C3.81155 14.0367 3.91339 14.169 4.04271 14.2752C4.22432 14.44 4.4173 14.5935 4.62041 14.7346C5.35336 15.2305 6.13542 15.6757 6.48492 16.5378ZM3.49967 14.4198C3.27004 15.6413 3.60799 16.6864 4.58863 17.5147C5.20244 18.035 5.86607 18.5038 6.48348 18.9774C7.03229 18.5646 7.58544 18.1512 8.13497 17.7336C8.65562 17.3384 9.07373 16.8689 9.31637 16.2763C9.55943 15.6885 9.61045 15.0463 9.46296 14.4313C8.9488 14.7995 8.4657 15.1744 7.95372 15.5068C7.24387 15.971 6.85971 16.6087 6.70806 17.3884C6.64211 17.724 6.57687 18.0595 6.51237 18.3951C6.41316 18.1048 6.34068 17.8071 6.29573 17.5053C6.14625 16.6398 5.72814 15.9412 4.93092 15.4413C4.44421 15.1359 3.99577 14.7772 3.49967 14.4198Z" fill="black" fill-opacity="0.35"/>
<path d="M25.5113 19.8906C25.1503 19.0454 24.3819 18.6509 23.719 18.1624C22.6062 17.3409 21.9686 16.3085 22.0192 14.9526C22.015 14.8574 22.023 14.7622 22.043 14.6688C22.3419 13.6932 22.243 12.6927 22.2553 11.6961C22.2553 11.561 22.2473 11.4293 22.2553 11.2968C22.2676 11.1401 22.1787 10.907 22.4596 10.8996C22.7406 10.8922 22.6705 11.1246 22.6763 11.2833C22.6842 11.4732 22.6763 11.663 22.6763 11.8529C22.6763 12.3663 22.7001 12.8805 22.6691 13.3919C22.6467 13.7601 22.7911 14.0371 23.0583 14.2763C23.2182 14.4205 23.387 14.5559 23.5638 14.6817C24.3076 15.2032 25.1402 15.641 25.4954 16.5457C25.8312 15.7275 26.5331 15.2715 27.2365 14.8168C27.3701 14.7303 27.4957 14.6337 27.625 14.5411C28.1001 14.1993 28.3883 13.8013 28.3283 13.1859C28.2655 12.5352 28.3132 11.8758 28.3161 11.2198C28.3161 11.0692 28.3074 10.8699 28.5428 10.907C28.6287 10.9205 28.6872 11.1097 28.7515 11.2158C28.7602 11.23 28.7515 11.2529 28.7515 11.2718C28.7825 12.4069 28.7132 13.5378 28.932 14.6742C29.1696 15.9086 28.6692 16.9713 27.6849 17.8212C27.3722 18.0915 27.0278 18.3293 26.692 18.5745C26.227 18.9265 25.7511 19.2697 25.5113 19.8906ZM25.5005 18.9745C26.0515 18.5603 26.5974 18.1523 27.1412 17.7408C27.8517 17.2003 28.35 16.5382 28.5089 15.6822C28.5899 15.2679 28.5806 14.8425 28.4814 14.4317C27.9514 14.8107 27.4632 15.1809 26.952 15.5201C26.3424 15.9125 25.92 16.5115 25.7742 17.1902C25.681 17.5956 25.6067 18.0009 25.5236 18.4063C25.4309 18.1057 25.3585 17.8 25.307 17.4908C25.2001 16.9206 25.0369 16.3518 24.5711 15.9572C23.9313 15.4167 23.2309 14.937 22.5362 14.4161C22.5181 14.4898 22.5015 14.5425 22.4929 14.5965C22.3109 15.7809 22.7095 16.776 23.6584 17.5625C24.2548 18.0577 24.8932 18.5117 25.5005 18.9745Z" fill="black" fill-opacity="0.35"/>
<path d="M16.0133 18.7159C16.0545 18.6348 16.0971 18.5538 16.1368 18.4713C16.3852 17.9371 16.7797 17.4736 17.2807 17.1275C17.6489 16.8749 18.0215 16.6276 18.3862 16.3702C19.0434 15.9047 19.1083 15.8216 19.686 14.7926C20.1785 15.9162 20.3432 17.033 19.9511 18.193C19.6434 19.103 19.0426 19.8144 18.2613 20.409C18.0403 20.5759 17.8143 20.7373 17.5897 20.9001C16.9723 21.346 16.3238 21.7629 15.996 22.5405C15.6169 21.6703 14.8514 21.2298 14.1539 20.7306C13.3133 20.1286 12.5652 19.4591 12.1594 18.5152C11.6257 17.2701 11.76 16.0432 12.2973 14.7886C12.3451 14.8623 12.3878 14.9388 12.4251 15.0176C12.6201 15.5399 12.9912 15.9337 13.4534 16.2607C13.834 16.531 14.2181 16.7951 14.6088 17.0539C15.1858 17.4329 15.6344 17.9588 15.9014 18.5693C15.9209 18.6125 15.9454 18.6537 15.9693 18.695C15.9736 18.7017 15.9866 18.7037 16.0133 18.7159ZM15.9982 21.5926C16.6401 21.1089 17.2936 20.6144 17.9479 20.1225C18.831 19.4604 19.4643 18.6504 19.6694 17.5863C19.7815 17.0453 19.7658 16.488 19.6232 15.9533C19.0022 16.4033 18.4144 16.8674 17.7854 17.2762C16.8864 17.8599 16.3939 18.6578 16.2134 19.6482C16.1534 19.9725 16.0863 20.2962 16.0227 20.6204C15.9243 20.328 15.85 20.029 15.8003 19.7259C15.6559 18.953 15.3937 18.2159 14.7409 17.6937C13.9777 17.0856 13.1638 16.5283 12.3132 15.9067C12.3031 16.3877 12.241 16.862 12.2915 17.3255C12.4143 18.5112 13.0902 19.4104 14.065 20.1367C14.72 20.6272 15.3706 21.1231 15.9982 21.5926Z" fill="black" fill-opacity="0.35"/>
<path d="M22.4836 21.2549C22.6865 22.0656 23.2837 22.5054 23.9213 22.9108C24.5813 23.3317 25.1937 23.7891 25.5064 24.6174C25.827 23.758 26.4719 23.2993 27.1506 22.8703C27.7746 22.475 28.3263 22.0224 28.5321 21.267C29.2968 22.7926 29.1192 24.4762 27.8684 25.6545C27.6424 25.8592 27.4055 26.0531 27.1586 26.2355C26.942 26.4044 26.7159 26.5699 26.4827 26.7212C25.9274 27.0807 25.6161 27.5212 25.7078 28.2002C25.775 28.6954 25.7201 29.2055 25.7216 29.7088C25.7216 29.8635 25.7042 30.0088 25.4898 30.0013C25.2869 29.9946 25.2926 29.8432 25.2926 29.7081C25.2926 29.044 25.3056 28.3785 25.2825 27.7144C25.2705 27.5304 25.1984 27.3542 25.076 27.2097C24.8911 27.0003 24.6528 26.8293 24.4261 26.6544C24.1055 26.4071 23.7639 26.1814 23.4512 25.9267C22.1211 24.8356 21.7405 23.4844 22.2084 21.9089C22.2597 21.7352 22.329 21.5663 22.3926 21.3961C22.4199 21.3474 22.4503 21.3002 22.4836 21.2549ZM22.5204 22.4034C22.2828 23.627 22.6287 24.6701 23.6036 25.4997C24.2167 26.02 24.8803 26.4882 25.4948 26.9584C25.9895 26.5875 26.4849 26.2118 26.9853 25.8416C27.6013 25.3856 28.1154 24.8599 28.371 24.1472C28.5777 23.5901 28.614 22.9902 28.4757 22.4149C27.9666 22.7791 27.4915 23.1486 26.9853 23.4763C26.253 23.9492 25.8631 24.6046 25.7158 25.4079C25.6551 25.7342 25.5887 26.0591 25.5244 26.3848C25.4252 26.0831 25.3506 25.7748 25.3013 25.4626C25.1511 24.6059 24.7308 23.9181 23.9437 23.4236C23.4613 23.1182 23.0143 22.7588 22.5204 22.4034Z" fill="black" fill-opacity="0.35"/>
<path d="M3.47444 21.3015C3.69107 22.1447 4.39225 22.5804 5.07899 23.0243C5.64802 23.3918 6.14412 23.8148 6.41636 24.4282C6.44355 24.467 6.47554 24.5026 6.51168 24.5343C6.78753 23.8546 7.30601 23.3999 7.91187 23.0128C8.60222 22.5723 9.29402 22.1264 9.5121 21.2549C10.3613 22.8649 10.0327 24.6383 8.68816 25.799C8.26427 26.1652 7.7985 26.4909 7.33779 26.8179C6.88935 27.1367 6.63155 27.5023 6.69366 28.0704C6.75215 28.6062 6.70521 29.1514 6.70593 29.6919C6.70593 29.8412 6.70088 29.9986 6.48929 30.0013C6.27771 30.004 6.27699 29.8365 6.27627 29.6926C6.27627 29.0372 6.29071 28.3812 6.26544 27.7266C6.25353 27.5333 6.17784 27.3482 6.0488 27.1969C5.84877 26.9746 5.5917 26.7956 5.34979 26.6077C5.05227 26.378 4.73598 26.1693 4.44497 25.9321C3.08738 24.8289 2.71837 23.458 3.20364 21.8629C3.25852 21.6819 3.33579 21.5069 3.40222 21.3292L3.47444 21.3015ZM9.46805 22.4115C8.92501 22.7987 8.41953 23.1763 7.89454 23.5297C7.32366 23.9055 6.92405 24.4679 6.77453 25.1059C6.66838 25.5288 6.59472 25.9598 6.50735 26.3895C6.41293 26.1126 6.3436 25.8288 6.3001 25.541C6.15567 24.6296 5.71518 23.9046 4.87391 23.3885C4.45219 23.1297 4.07957 22.8027 3.68313 22.5068C3.6333 22.4696 3.58275 22.4338 3.50765 22.3791C3.28885 23.4999 3.52354 24.4911 4.3612 25.2754C5.02266 25.8943 5.78234 26.424 6.47413 26.9705C6.88863 26.655 7.29518 26.3564 7.68729 26.0429C8.04836 25.7544 8.43397 25.4795 8.74159 25.1444C9.47021 24.3539 9.67313 23.4236 9.46877 22.4115H9.46805Z" fill="black" fill-opacity="0.35"/>
<path d="M25.5114 23.8997C25.2161 23.1761 24.6376 22.812 24.0917 22.4181C23.891 22.2735 23.6888 22.1289 23.4967 21.9742C22.1297 20.8737 21.7297 19.5042 22.2149 17.8935C22.272 17.7037 22.3507 17.5199 22.4193 17.3348C22.4532 17.3416 22.4807 17.3416 22.4836 17.349C22.7182 18.053 23.2656 18.5077 23.8931 18.9029C24.5654 19.3231 25.1865 19.7893 25.5056 20.6244C25.8335 19.7461 26.5043 19.288 27.1961 18.8475C27.8042 18.4611 28.3284 18.0118 28.5284 17.2808C29.2953 18.7671 29.1264 20.4791 27.8915 21.6351C27.5131 21.9891 27.0777 22.2911 26.6574 22.6039C26.2018 22.9397 25.7468 23.2728 25.5114 23.8997ZM25.5042 22.962C26.022 22.5735 26.552 22.1769 27.0813 21.779C27.7312 21.2919 28.2324 20.7095 28.4447 19.94C28.5866 19.443 28.5985 18.9213 28.4793 18.4192C27.9861 18.7745 27.5297 19.1367 27.0351 19.4495C26.2812 19.9292 25.8653 20.5892 25.7151 21.4155C25.6566 21.7405 25.5887 22.0641 25.5251 22.3877C25.4276 22.0947 25.3537 21.7952 25.3042 21.4918C25.1829 20.8419 24.9626 20.2251 24.4087 19.788C23.8087 19.315 23.1689 18.8847 22.4886 18.3942C22.4771 18.7482 22.4352 19.0759 22.4626 19.3988C22.55 20.4338 23.1364 21.2047 23.987 21.831C24.4997 22.2006 25.0023 22.5857 25.5042 22.962Z" fill="black" fill-opacity="0.35"/>
<path d="M3.47489 17.3072C3.69153 18.174 4.42376 18.6111 5.12494 19.0638C5.71275 19.4428 6.19079 19.9029 6.49697 20.6001C6.81543 19.7543 7.474 19.2962 8.15785 18.8618C8.7731 18.4706 9.31325 18.0193 9.51183 17.2734C10.3416 18.7665 10.0462 20.5718 8.8056 21.7C8.4863 21.978 8.15174 22.2403 7.80329 22.4858C7.29275 22.8614 6.75549 23.2107 6.49481 23.8802C6.13375 23.0425 5.37768 22.6486 4.72055 22.1669C3.57743 21.3278 2.9073 20.2698 3.01707 18.8807C3.05823 18.3591 3.22937 17.8457 3.3413 17.3268L3.47489 17.3072ZM6.5078 22.3878H6.45942C6.40382 22.1 6.34533 21.8129 6.29333 21.5251C6.18646 20.9352 6.02254 20.3475 5.54088 19.9394C4.9018 19.3989 4.1999 18.9206 3.50089 18.3983C3.26475 19.6469 3.61571 20.6954 4.60646 21.5291C5.21521 22.0399 5.87089 22.502 6.48036 22.9675C6.98585 22.5912 7.48628 22.2101 7.99682 21.8331C8.5608 21.4136 9.03884 20.9312 9.30531 20.2907C9.55727 19.6972 9.61237 19.0465 9.46345 18.4233C8.93269 18.803 8.42793 19.182 7.90367 19.5347C7.31587 19.9206 6.90755 20.5017 6.76199 21.1595C6.6645 21.5663 6.59301 21.9784 6.50997 22.3878H6.5078Z" fill="black" fill-opacity="0.35"/>
<path d="M16.0054 12.7422C15.5404 12.2693 15.0428 11.7754 14.554 11.2714C13.3134 9.9918 13.1964 8.55072 14.2774 7.15018C14.6471 6.6705 15.1439 6.27999 15.5722 5.83544C15.674 5.72802 15.7722 5.56993 15.7743 5.43413C15.7917 4.44571 15.7837 3.45797 15.7837 2.46955C15.7837 2.39388 15.7599 2.3074 15.791 2.24457C15.845 2.15623 15.9099 2.07414 15.9845 2C16.061 2.08107 16.2011 2.16012 16.2011 2.2439C16.2221 2.73709 16.212 3.23164 16.212 3.72551C16.212 4.29572 16.2192 4.86526 16.2076 5.43548C16.2024 5.51383 16.2185 5.59215 16.2545 5.66306C16.2905 5.73398 16.3452 5.79516 16.4134 5.84085C17.1926 6.43741 17.8627 7.1191 18.2187 8.02104C18.6202 9.03446 18.4837 9.98369 17.7941 10.8505C17.571 11.1309 17.2995 11.3781 17.0496 11.6396L16.0054 12.7422ZM15.9924 6.04623C15.227 6.64009 14.5518 7.27449 14.1871 8.14062C13.8225 9.00676 13.9185 9.85127 14.5352 10.5884C14.9764 11.116 15.4934 11.5876 15.9903 12.099C16.4806 11.6018 16.9781 11.1532 17.4071 10.6498C18.1039 9.83303 18.187 8.92095 17.727 7.97307C17.3493 7.19342 16.7268 6.59956 15.9924 6.0442V6.04623Z" fill="black" fill-opacity="0.35"/>
<path d="M6.4849 15.7378C6.09423 15.3399 5.68406 14.9223 5.27462 14.5041C4.22754 13.434 4.13078 12.2111 5.03704 11.0322C5.32306 10.6758 5.64729 10.3478 6.00469 10.0532C6.09707 9.98357 6.17026 9.89422 6.21813 9.79266C6.266 9.6911 6.28715 9.58028 6.27981 9.46949C6.26393 8.72632 6.27404 7.98788 6.27404 7.24741C6.27404 7.17174 6.24949 7.08391 6.28198 7.02243C6.34171 6.92925 6.41217 6.84248 6.49212 6.76367C6.56433 6.85083 6.69287 6.93595 6.69648 7.02513C6.71598 7.52779 6.70587 8.03112 6.70587 8.53445C6.70587 8.92427 6.59971 9.35126 6.73692 9.69177C6.86979 10.0215 7.25612 10.2613 7.53125 10.543C8.07212 11.1051 8.47723 11.7301 8.54222 12.5057C8.60938 13.3009 8.25698 13.9441 7.69951 14.5109C7.28573 14.9277 6.87412 15.3439 6.4849 15.7378ZM6.48995 15.1088C6.90589 14.6791 7.32689 14.294 7.6829 13.8623C8.179 13.2583 8.24399 12.5753 7.93708 11.8699C7.6374 11.1835 7.1052 10.6701 6.48779 10.1985C5.87109 10.6714 5.33745 11.1795 5.04354 11.8672C4.72942 12.5935 4.80885 13.2914 5.32734 13.9076C5.67179 14.3217 6.08123 14.692 6.48995 15.1068V15.1088Z" fill="black" fill-opacity="0.35"/>
<path d="M25.5028 15.7417C25.0782 15.3066 24.6008 14.8438 24.1553 14.3554C23.3162 13.4372 23.1855 12.3839 23.8534 11.3502C24.1632 10.8712 24.6023 10.4584 25.024 10.0531C25.211 9.87336 25.302 9.71527 25.297 9.46799C25.2825 8.67955 25.2912 7.89112 25.2919 7.10336C25.2919 6.95067 25.276 6.76555 25.5086 6.77163C25.7411 6.77771 25.7187 6.96148 25.7187 7.11552C25.7187 7.94179 25.71 8.76873 25.7266 9.59501C25.7431 9.737 25.8082 9.8702 25.9122 9.9747C26.2458 10.3307 26.643 10.6409 26.9384 11.0205C27.8634 12.2083 27.7558 13.4656 26.6834 14.5391C26.2791 14.9458 25.8783 15.3593 25.5028 15.7417ZM25.5078 15.0985C25.9036 14.6992 26.2913 14.3479 26.6286 13.9588C27.1875 13.3129 27.2835 12.5853 26.9319 11.8211C26.6278 11.159 26.1122 10.655 25.502 10.1997C24.9467 10.6206 24.4579 11.0827 24.1445 11.686C23.7112 12.5177 23.7906 13.3075 24.4333 14.0216C24.7612 14.3878 25.133 14.7249 25.5078 15.0985Z" fill="black" fill-opacity="0.35"/>
<path d="M16.2148 8.87524C16.2148 9.4441 16.2148 10.013 16.2148 10.5812C16.2148 10.7359 16.1895 10.8994 15.9902 10.873C15.9094 10.8622 15.7945 10.6926 15.7938 10.594C15.7801 9.44545 15.7844 8.30097 15.7852 7.15378C15.7852 7.00717 15.7852 6.8457 16.0061 6.85381C16.2271 6.86192 16.2148 7.02339 16.2148 7.16932C16.2148 7.73818 16.2148 8.30682 16.2148 8.87524Z" fill="black" fill-opacity="0.35"/>
<path d="M6.70592 12.5238C6.70592 12.9785 6.70592 13.4325 6.70592 13.8872C6.70592 14.0412 6.68137 14.2047 6.48134 14.177C6.39902 14.1648 6.28493 13.9959 6.28348 13.8973C6.26832 12.9514 6.27482 12.0056 6.2741 11.0597C6.2741 10.9152 6.30948 10.7604 6.49073 10.7996C6.57955 10.8185 6.68859 10.9787 6.69293 11.078C6.71748 11.5577 6.70592 12.0407 6.70592 12.5238Z" fill="black" fill-opacity="0.35"/>
<path d="M25.2918 12.4638C25.2918 12.0193 25.2918 11.574 25.2918 11.1288C25.2918 10.9829 25.2543 10.791 25.4962 10.791C25.7381 10.791 25.7193 10.9646 25.7193 11.1187C25.7193 12.0375 25.7193 12.9561 25.7193 13.8745C25.7193 14.0238 25.7193 14.1833 25.5099 14.19C25.3005 14.1968 25.2897 14.0366 25.2897 13.8873C25.2916 13.4122 25.2923 12.9377 25.2918 12.4638Z" fill="black" fill-opacity="0.35"/>
</svg>
