<svg width="60" height="60" viewBox="0 0 60 60" fill="none" xmlns="http://www.w3.org/2000/svg">
<path d="M38.696 53.2847V50.6014C38.696 46.4727 38.6854 42.3427 38.7136 38.214C38.728 37.8144 38.8671 37.4293 39.1116 37.1125C39.8439 36.1942 40.661 35.3452 41.4157 34.4445C42.4117 33.255 42.3764 32.5974 41.2414 31.5253C39.904 30.2617 38.2568 29.5208 36.5602 28.8937C32.9669 27.5644 29.27 26.9033 25.4318 27.1323C24.6548 27.1781 23.8813 27.2697 23.0771 27.3436C22.8193 29.4503 21.9622 31.2963 20.2679 32.6796C18.5207 34.1075 16.4933 34.5948 14.2634 34.3353C13.6959 34.2695 13.3921 33.9572 13.245 33.4335C12.9392 32.2935 12.9315 31.0943 13.2226 29.9505C12.676 30.9467 11.8965 31.7967 10.9503 32.4283C10.4134 32.7806 9.96131 32.7512 9.44563 32.3884C5.59566 29.6875 5.03759 24.0604 8.29417 20.6819C8.76511 20.1946 9.18425 20.1324 9.75527 20.5234C12.0229 22.0758 13.4922 24.1332 13.6947 26.9373C13.7453 27.6419 13.6264 28.3711 13.5852 29.0874C13.5558 29.0874 13.6029 29.0992 13.6111 29.0874C15.3324 26.221 17.9674 25.1865 21.1851 25.3415C21.7031 25.3662 22.2129 25.5294 22.7274 25.6257C22.796 25.645 22.868 25.6487 22.9382 25.6362C25.9063 24.8048 28.8862 25.1125 31.8496 25.621C34.919 26.147 37.8542 27.0923 40.5621 28.6741C41.8784 29.4433 43.0805 30.3439 43.7998 31.827C44.624 30.8876 45.4211 29.9916 46.2158 29.0898C49.105 25.8147 52.0131 22.5538 54.8776 19.2575C57.5655 16.1657 55.7724 10.9847 51.6905 10.2743C48.468 9.69484 45.2159 9.29263 41.949 9.06948C37.4362 8.78765 33.5898 10.4504 30.4427 13.6997C29.6927 14.4747 28.9616 15.2673 28.2198 16.0482C27.6665 16.6354 27.5629 16.6612 26.7717 16.5285C26.8776 18.5248 26.3572 20.3531 25.1434 21.9525C24.052 23.391 22.6309 24.3856 20.8378 24.7074C19.923 24.8718 18.9693 24.853 18.0333 24.8612C17.3999 24.8671 17.0561 24.4725 16.8995 23.8666C16.6219 22.7816 16.6127 21.6456 16.8724 20.5563C16.3196 21.5335 15.5455 22.3682 14.6119 22.9941C14.0432 23.3722 13.5829 23.2842 13.0601 22.9072C9.5092 20.3473 8.77924 15.4364 11.4342 11.8572C12.442 10.4998 12.7493 10.4575 14.0562 11.5143C16.2013 13.2523 17.4399 15.4376 17.3787 18.2547C17.3704 18.6422 17.2986 19.0286 17.2916 19.4513C18.2629 17.9729 19.5556 16.9055 21.2204 16.3148C22.8852 15.7241 24.5959 15.703 26.1653 15.993C26.4338 15.5362 26.6163 15.0536 26.9471 14.6943C28.3352 13.2088 29.6079 11.6071 31.2892 10.4105C35.1486 7.66622 39.4236 6.67512 44.1024 7.31511C46.6078 7.658 49.1215 7.94569 51.6211 8.32616C57.0369 9.14816 59.7448 15.2298 56.7744 19.8106C56.5813 20.1172 56.4755 20.4703 56.4682 20.8323C56.4486 25.8629 56.4486 30.8927 56.4682 35.9218C56.4862 36.4297 56.3026 36.9242 55.9573 37.298C50.8342 43.1021 45.724 48.9144 40.6269 54.7349C40.1359 55.2962 39.5672 55.2798 38.9291 55.2786C32.748 55.2684 26.5672 55.2661 20.3868 55.2716C18.5415 55.2716 16.697 55.2716 14.8532 55.2716C13.849 55.2716 13.5417 54.9674 13.5405 53.9799C13.5405 50.7897 13.5405 47.5996 13.5405 44.4095C13.5405 44.1817 13.5629 43.9527 13.5699 43.8082C12.6598 43.8082 11.7662 43.8282 10.8726 43.8024C10.039 43.7801 9.64931 43.5041 9.53981 42.6915C9.4056 41.6969 9.40324 40.6835 9.35144 39.791C9.09006 40.1175 8.75334 40.613 8.34244 41.0358C6.88958 42.5341 6.34092 42.5341 4.85392 41.098C3.38627 39.6748 2.53773 37.7337 2.49105 35.6926C2.44436 33.6515 3.20326 31.6738 4.60432 30.1854C5.05525 29.7051 5.45319 29.6088 5.95711 29.9329C8.45076 31.537 10.404 34.3177 9.97191 37.8006C9.94365 38.0355 9.8942 38.2574 9.8683 38.4007C10.457 37.776 11.028 37.0338 11.7321 36.4561C13.7512 34.7991 16.1248 34.5185 18.6232 34.886C19.1695 34.9671 19.4473 35.364 19.4273 36.0122C19.3472 39.0395 18.0486 41.3751 15.4243 42.9404C15.3361 42.9928 15.2449 43.0399 15.1511 43.0814C15.2512 43.7014 15.4078 44.2451 15.4137 44.7899C15.4407 47.3921 15.4254 49.9955 15.4266 52.5977V53.2788L38.696 53.2847ZM40.6198 51.5749L40.767 51.6665C40.8494 51.5597 40.9271 51.4481 41.0154 51.3471C45.4446 46.3204 49.8703 41.2894 54.2925 36.2541C54.4668 36.0294 54.5619 35.7537 54.5633 35.4697C54.5798 31.3397 54.5751 27.2109 54.5739 23.081C54.5739 22.9377 54.5515 22.7945 54.5397 22.65L54.3996 22.5678C54.3503 22.6741 54.2912 22.7755 54.223 22.8708C49.7844 27.9155 45.3496 32.9618 40.9188 38.0096C40.7353 38.2503 40.636 38.5445 40.6363 38.8469C40.6186 42.8982 40.6245 46.9494 40.6257 51.0007L40.6198 51.5749ZM6.62114 40.0388C9.46564 38.0895 8.14464 33.7118 5.57211 32.0537C3.64359 34.4269 4.15103 38.2879 6.62114 40.0388ZM17.4741 36.7109C15.5632 36.3422 13.0083 37.3837 11.9463 38.9772C11.4518 39.7136 11.2131 40.5914 11.267 41.4761C11.2847 41.846 11.4259 42.0433 11.8015 41.9658C12.6386 41.7967 13.5205 41.7215 14.2975 41.3986C16.1307 40.6365 17.5694 38.4206 17.4741 36.7109ZM12.9742 13.0843C10.9503 15.2532 11.5248 19.6333 14.0114 21.107C16.4415 19.2775 15.9788 15.5445 12.9742 13.0843ZM21.1827 27.2321C19.1918 26.807 16.4568 28.0048 15.4878 29.6981C15.0687 30.4127 14.882 31.2394 14.9533 32.0642C14.9792 32.3613 15.084 32.5187 15.4243 32.5058C17.6224 32.4236 19.3496 31.5346 20.4622 29.5971C20.8951 28.8805 21.1427 28.0678 21.1827 27.2321ZM24.8714 17.7838C21.3158 17.2331 17.8072 20.2498 18.7633 23.0035C21.8809 23.2712 24.4782 21.0683 24.8714 17.7838ZM10.2592 30.5471C11.3577 29.8202 11.9864 28.451 11.8368 26.9784C11.6473 25.1184 10.7395 23.6623 9.2702 22.5162C7.30047 25.1442 7.79143 28.9724 10.2592 30.5471Z" fill="#F9BE35"/>
<path d="M16.876 11.3346C16.887 9.64757 17.4638 8.01275 18.5145 6.69057C19.5651 5.36839 21.0291 4.4349 22.6733 4.03879C23.1819 3.92137 23.5657 4.06932 23.8342 4.49911C26.6799 9.06941 24.5806 14.7494 19.1777 16.1409C18.7068 16.2584 18.3865 16.0505 18.1475 15.6642C17.3224 14.3696 16.8816 12.8686 16.876 11.3346ZM19.3484 14.0683C22.8487 12.8095 24.0579 8.97195 22.479 6.11375C19.8629 6.89582 17.48 10.2026 19.3508 14.0683H19.3484Z" fill="#F9BE35"/>
<path d="M8.92877 43.1599C8.85931 43.3619 8.79691 43.5662 8.72038 43.7659C7.11917 47.8758 5.51717 51.9858 3.91439 56.0958C3.86856 56.2247 3.81388 56.3502 3.75074 56.4716C3.64123 56.682 3.45823 56.8452 3.23631 56.9302C3.01438 57.0153 2.76892 57.0163 2.5463 56.9331C2.32938 56.8374 2.15804 56.6617 2.06826 56.4427C1.97847 56.2238 1.97722 55.9786 2.06476 55.7588C2.52511 54.5141 3.01371 53.2799 3.4929 52.0422C4.64436 49.0736 5.79582 46.1066 6.94728 43.1411C7.01792 42.9603 7.05795 42.702 7.1957 42.6245C7.50888 42.4448 7.91153 42.1994 8.20587 42.2722C8.52141 42.3497 8.75453 42.7618 9.02296 43.0272L8.92877 43.1599Z" fill="#F9BE35"/>
<path d="M31.9968 49.3108C31.9968 49.7605 32.0121 50.2103 31.9968 50.6588C31.9732 51.1978 31.6189 51.5548 31.1232 51.5807C30.6004 51.6065 30.1601 51.2624 30.1377 50.7082C30.1001 49.791 30.1024 48.8704 30.1377 47.9533C30.1384 47.8299 30.1644 47.708 30.2143 47.5951C30.2642 47.4822 30.3369 47.3807 30.4277 47.297C30.5186 47.2133 30.6258 47.1492 30.7426 47.1085C30.8594 47.0679 30.9833 47.0517 31.1067 47.0608C31.6271 47.0773 31.9827 47.446 32.0039 48.0202C32.0192 48.45 32.0039 48.8798 32.0039 49.3119L31.9968 49.3108Z" fill="#F9BE35"/>
<path d="M22.811 49.3484C22.811 49.7982 22.831 50.2491 22.8051 50.6965C22.7757 51.2167 22.479 51.5185 21.9551 51.5749C21.4523 51.6242 20.9896 51.3036 20.9649 50.7869C20.9166 49.8123 20.9166 48.8317 20.9649 47.8571C20.9896 47.3404 21.4488 47.0198 21.9539 47.0668C22.4766 47.1161 22.7781 47.4191 22.8063 47.9416C22.8322 48.409 22.811 48.8799 22.811 49.3484Z" fill="#F9BE35"/>
</svg>
