<svg width="96" height="96" viewBox="0 0 96 96" fill="none" xmlns="http://www.w3.org/2000/svg">
<g clip-path="url(#clip0_45_132)">
<path d="M74.6164 73.9678C69.9673 73.798 65.9313 73.0108 61.9361 71.9919C55.1775 70.2689 48.4887 68.2922 41.9774 65.7534C36.7141 63.7018 31.4826 61.5644 26.2665 59.3929C24.1335 58.5051 22.0313 57.514 19.997 56.4139C16.6738 54.6162 13.3172 52.8489 10.1652 50.7696C7.65381 49.1082 5.6307 46.785 4.31057 44.0465C2.6105 40.5563 2.59963 36.9986 4.05968 33.3837C5.31684 30.2746 7.65997 28.2156 10.2939 26.4391C12.6225 24.8702 15.0752 23.5265 17.825 22.8464C20.5611 22.1806 23.3744 21.9035 26.185 22.0232C31.7145 22.2299 37.1444 23.1223 42.3976 24.9145C43.6013 25.3252 44.738 25.9528 45.8793 26.5342C47.0658 27.1387 48.1961 27.7653 49.6308 27.457C51.6107 27.027 53.5581 27.4718 55.4275 28.0883C57.4428 28.7518 59.5432 29.348 61.3447 30.4268C63.3237 31.6127 65.5582 32.0594 67.5218 33.1539C69.2037 34.0906 71.0542 34.3278 72.8258 34.8843C75.3854 35.6872 77.6624 37.0992 79.7691 38.7484C81.1585 39.8392 82.4592 41.0555 83.7326 42.2894C85.2624 43.7706 87.0685 44.7765 88.9207 45.752C91.7692 47.2535 93.7211 49.4592 94.1142 52.8719C94.2853 54.3393 94.7074 55.7744 94.9438 57.2362C95.0344 57.8185 94.9927 58.4359 94.9203 59.0321C94.4755 62.6857 92.6315 65.5642 90.0048 67.9618C88.1445 69.6576 86.0398 71.0526 83.7643 72.0981C80.7138 73.499 77.4758 74.1579 74.6164 73.9678ZM46.4725 60.8631L46.6038 60.9867L42.8704 64.9551L42.9764 65.1304C43.1938 65.0317 43.4419 64.9735 43.6222 64.8277C44.4446 64.1623 45.2452 63.4683 46.0613 62.7974C46.3113 62.5916 46.5875 62.4181 46.8511 62.2298L46.8801 62.2935L43.9337 65.3058C43.989 65.3981 44.0433 65.4959 44.0977 65.5909C44.3504 65.5319 44.6411 65.53 44.8485 65.4008C45.2318 65.1475 45.598 64.8681 45.9445 64.5647C47.3393 63.4216 48.732 62.2754 50.1226 61.1261L50.3735 61.3891L45.6755 66.0819C47.0087 65.6315 47.9688 64.4863 49.2323 63.8818L49.4651 64.1346L46.948 66.4307L47.0431 66.6079C47.2723 66.5258 47.5449 66.499 47.7233 66.3532C48.9153 65.3805 50.0864 64.381 51.2684 63.4C51.4128 63.2948 51.5641 63.1999 51.7212 63.1158L51.8118 63.2542L48.169 67.0786C48.5711 66.9337 48.87 66.894 49.091 66.7362C51.2892 65.183 53.4512 63.5818 55.3007 61.5903C55.4963 61.3808 55.7174 61.1953 55.9275 60.9987C55.9691 61.0439 56.0117 61.091 56.0543 61.1325L49.8337 67.2955L49.9686 67.48C51.3734 66.9586 52.358 65.7857 53.5862 64.9542L51.0501 67.6923L51.1941 67.8593C53.0699 66.7685 54.606 65.1941 56.3043 63.8513L56.4601 64.0359L52.2203 68.0421C52.2357 68.0965 52.252 68.15 52.2674 68.2045C52.5292 68.1122 52.8317 68.0873 53.0454 67.9276C54.058 67.1893 55.0471 66.4197 56.0443 65.6611L56.2508 65.8789L53.4584 68.4287C53.9312 68.7647 54.2673 68.7628 54.6522 68.4509C56.1756 67.2161 57.7154 66.0025 59.2488 64.7807L59.305 64.8425L54.9946 68.9548L55.0897 69.1449C55.356 69.0378 55.6549 68.9806 55.8813 68.8164C56.8685 68.1002 57.835 67.3536 58.8095 66.6181C58.8385 66.6513 58.8675 66.6855 58.9001 66.7187L56.3079 69.4679C56.7535 69.7291 57.1874 69.7281 57.6665 69.3036C58.8177 68.2774 60.0078 67.2964 61.1807 66.2951C61.3918 66.1151 61.5974 65.9259 61.8057 65.746L61.9099 65.8733L58.0342 69.9293C58.094 70.0013 58.1529 70.0742 58.2154 70.1462C59.7424 69.1154 61.1354 67.8963 62.5339 66.6845L62.6779 66.835L59.2434 70.1684L59.3339 70.4203C59.6247 70.3695 59.9544 70.3889 60.1989 70.2514C60.6756 69.9751 61.1273 69.656 61.5485 69.2981C62.9741 68.1085 64.3834 66.8986 65.7982 65.6989L65.8824 65.7764C64.2575 67.4376 62.632 69.0963 61.0059 70.7525L61.1065 70.9537C62.5674 70.735 63.4369 69.3756 64.6669 68.7121L64.8481 68.9086L62.5665 71.1041L62.6507 71.3007C62.9678 71.202 63.3382 71.1771 63.5936 70.9906C65.1506 69.85 66.6813 68.6724 68.2201 67.5068C68.4148 67.3601 68.6032 67.205 68.7952 67.0546L68.9166 67.2189L64.3653 71.4927L64.4459 71.692C64.7702 71.6053 65.1406 71.5933 65.4096 71.4151C66.4059 70.7618 67.385 70.0705 68.3478 69.3627C69.0887 68.8182 69.797 68.2266 70.5216 67.6563L70.6411 67.8012L66.2302 71.8803C66.2655 71.9357 66.3009 71.9901 66.3353 72.0455C68.2228 71.9587 69.3305 70.2726 70.9645 69.6239L69.0552 71.3422L69.1829 71.5019L71.5532 69.945L71.6085 70.0225L69.2916 71.883L69.4329 72.0999L74.4987 69.3313L74.5367 69.3904L69.9347 72.5281L70.037 72.7385C72.4825 72.0713 74.6834 70.8301 76.8726 69.5519L76.9541 69.7171L72.4426 72.242C72.4734 72.2956 72.5042 72.3491 72.5332 72.4035L75.3953 71.0072L75.4633 71.1355L73.7197 72.2891L73.8329 72.4562C78.5509 70.3022 82.8957 67.5917 86.3574 63.5597C83.3477 67.6526 78.9404 69.9395 75.0267 72.8862C77.9549 71.9763 80.4611 70.2025 83.1511 68.7924L78.4495 72.3666L78.6107 72.601C81.6811 71.298 84.2978 69.2686 86.8456 67.109C86.0866 67.9009 85.2796 68.6345 84.4636 69.359C83.662 70.0705 82.8523 70.7728 82.0452 71.4816L82.1856 71.6422C86.0786 69.4755 89.421 66.4124 91.9467 62.6968L92.1098 62.8546C90.8327 64.5619 89.5559 66.2689 88.2794 67.9756C89.1734 67.3001 90.0365 66.5793 90.7548 65.7312C92.2637 63.9519 93.5164 62.001 93.8116 59.5941C94.0643 57.5343 94.2645 57.0959 91.6234 57.3174C89.6906 57.4789 87.7514 57.5767 85.8167 57.7253C85.2268 57.7682 84.6408 57.8549 84.0632 57.9846C82.5497 58.3326 81.0571 58.7977 79.5346 59.0699C76.6117 59.5932 73.6527 59.9171 70.7489 60.505C67.3298 61.1971 63.9016 61.2867 60.4489 61.0689C60.0377 61.043 59.6419 60.7606 59.2397 60.5973C59.4209 60.2281 59.5187 59.7667 59.7904 59.4898C61.4443 57.8074 63.4224 56.5662 65.5237 55.5953C67.2446 54.8035 69.0787 54.2821 70.8676 53.6573C73.3937 52.7815 76.013 52.3653 78.6569 52.1706C82.7327 51.8651 86.785 52.1438 90.8291 52.6652C91.4377 52.7446 92.0581 52.8258 92.6668 52.7917C93.309 52.7547 93.4376 52.4733 93.1034 51.9205C92.9883 51.7304 92.6903 51.5707 92.4621 51.5513C90.6217 51.3769 88.7785 51.2385 86.9371 51.0899V51.0271L92.8036 51.292C92.7311 50.5399 92.4413 50.1984 91.7167 50.1725C89.9596 50.1089 88.2061 49.9391 86.4489 49.8689C85.1963 49.8182 83.94 49.8588 82.6847 49.8588V49.7979H92.0753C91.7728 48.875 91.4857 48.6277 90.5247 48.5686C88.3863 48.4385 86.2469 48.3167 84.3277 48.205C86.3411 47.8681 88.5946 48.2594 91.0165 48.3194C90.3916 47.6734 89.946 47.1963 89.1571 47.1908C87.4905 47.1778 85.8249 47.0856 84.1583 47.0523C82.9573 47.0283 81.7563 47.0523 80.5553 47.0523C80.5553 47.0145 80.5553 46.9757 80.5553 46.9379H89.1987L89.2404 46.7026C88.8075 46.518 88.38 46.1968 87.9398 46.1784C85.2271 46.0621 82.4845 45.7345 79.8026 46.0076C75.197 46.4765 70.6239 47.2997 66.0482 48.0426C63.0964 48.5206 60.1609 49.1177 57.2227 49.6585C54.7084 50.1199 52.1805 50.5186 49.6815 51.0557C46.9353 51.6464 44.2172 52.3764 41.4801 53.0141C41.1061 53.0986 40.7165 53.0776 40.3534 52.9532C39.6976 52.7095 39.5681 52.3275 40.0309 51.7968C40.8298 50.8813 41.6151 49.8828 42.6014 49.2211C45.1311 47.5239 47.7097 45.8821 50.3744 44.4221C55.4402 41.6406 60.7949 39.7054 66.5708 39.0944C70.7797 38.6496 74.9189 38.7788 78.9603 40.1917C79.4702 40.3698 79.9856 40.5313 80.5001 40.7002C79.8534 39.9748 79.0953 39.4267 78.4015 38.8037C77.6878 38.1623 76.8617 37.9427 75.9506 37.9067C75.1508 37.8753 74.3528 37.7941 73.554 37.7858C71.7851 37.7664 70.0153 37.7793 68.2464 37.7793V37.6105H76.5184C76.5181 37.5771 76.5073 37.5448 76.4877 37.5182C76.4188 37.4579 76.3459 37.4027 76.2694 37.353C75.0675 36.4993 73.7686 36.0674 72.2733 36.2215C70.8576 36.3664 69.4311 36.4006 68.0091 36.4836L68.0018 36.3747L72.9136 35.9318C72.6697 35.7074 72.3755 35.5474 72.0568 35.4657C70.5506 34.9932 69.0126 35.2119 67.4955 35.3227C65.2892 35.4832 63.0918 35.7601 60.7378 36.0037C63.5347 35.1464 66.2972 35.1732 69.1684 34.9341C69.0578 34.8911 68.9443 34.8563 68.8288 34.8298C64.9496 34.486 61.0413 34.8399 57.2825 35.8755C55.0399 36.4975 52.857 37.3391 50.6443 38.0691C46.4508 39.4534 42.256 40.8322 38.0601 42.2054C36.9297 42.5746 35.8211 43.0471 34.6672 43.3036C31.9672 43.9026 29.2472 44.4111 26.5319 44.9288C26.1533 45.0008 25.7502 44.939 25.1814 44.939C25.464 44.4775 25.6044 44.1241 25.8462 43.8712C27.2293 42.4223 28.5942 40.9503 30.0461 39.5752C31.7453 37.9648 33.6518 36.6525 35.8428 35.7979C39.8416 34.2374 43.9654 33.1336 48.1345 32.1711C52.0156 31.275 55.9293 30.8855 59.9046 31.191C60.2859 31.2205 60.6717 31.1956 61.0548 31.1956C61.0548 31.1347 61.0603 31.0747 61.0621 31.011C60.7079 30.8624 60.3303 30.7554 60.0042 30.5588C58.9227 29.9128 57.7951 29.791 56.5733 30.0438C55.7083 30.2229 54.8161 30.2653 53.9358 30.3696L53.9213 30.2598L57.5442 29.6516C56.2861 28.821 55.039 28.8856 53.7546 29.1302C52.4703 29.3748 51.1552 29.5704 49.8554 29.7873L49.8355 29.6738L54.3135 28.774L54.3026 28.5386C53.5871 28.5091 52.8534 28.3698 52.1569 28.4713C50.6896 28.6826 49.2368 29.0121 47.7813 29.3102C46.5658 29.5593 45.3557 29.8334 44.143 30.0964C44.1285 30.0282 44.1149 29.9608 44.1004 29.8934L51.5093 28.2766C50.5402 28.176 49.5629 28.0255 48.6472 28.2027C44.5868 28.9853 40.5191 29.7568 36.5022 30.7369C32.7543 31.6515 28.9846 32.603 25.3734 33.942C20.9408 35.5903 16.4737 36.8906 11.7675 37.2662C11.5465 37.2838 11.3146 37.1601 11.0891 37.101C11.167 36.8962 11.1932 36.6396 11.3309 36.4938C11.8327 35.9548 12.3671 35.4463 12.8969 34.9351C16.2318 31.705 20.1283 29.4375 24.4559 27.9065C28.0789 26.6265 31.8304 25.9481 35.5965 25.3418C36.5511 25.1877 37.5157 25.0973 38.4758 24.9782C38.4685 24.9016 38.4622 24.8241 38.4549 24.7475C35.2722 23.94 32.199 25.1729 29.0525 25.3012L35.6318 24.2122C32.8412 23.1851 30.2345 23.9852 27.6106 24.2122L31.2852 23.5192C29.1304 22.9562 25.6343 22.9064 22.5294 23.1297C19.6927 23.3346 16.9365 23.8412 14.4131 25.196C12.6963 26.1123 11.0457 27.1522 9.47416 28.3079C8.30395 29.1736 7.31851 30.3022 6.28054 31.3451C5.99795 31.6293 5.82767 32.0252 5.60124 32.3695C8.21519 30.162 10.7078 27.865 13.8679 26.5296C10.0493 28.5414 7.0323 31.4457 4.62214 35.0347C6.83576 33.1438 8.87275 31.0369 11.3246 29.4486C11.2471 29.5928 11.1388 29.7174 11.0076 29.8131C8.66262 31.7512 6.34666 33.7196 4.50168 36.1855C4.3314 36.4126 4.22361 36.6885 4.08685 36.9414L4.23539 37.0226L8.71606 32.9721L8.88453 33.1715C8.66353 33.3671 8.42622 33.5461 8.22515 33.7602C6.94354 35.1187 5.65558 36.4716 4.40476 37.8587C4.14844 38.1429 4.04247 38.5647 3.86132 38.9228L4.07779 39.0584C7.28319 36.0203 10.3889 32.8512 14.366 30.8357C13.3924 31.586 12.3734 32.279 11.3717 32.9878C8.71968 34.8557 6.42365 37.1103 4.4111 39.6703C4.18376 39.9592 3.86222 40.2508 4.19916 40.7224L7.35293 37.8615C6.45625 38.9957 5.52062 40.0764 4.61761 41.1838C4.46997 41.3684 4.46907 41.6692 4.40023 41.9166L4.76887 42.1371L6.83304 39.83C6.31224 40.6975 5.71626 41.4911 5.15018 42.3042C5.01341 42.5007 4.97537 42.7656 4.89114 43.0046L5.0424 43.0452L9.04847 38.9652L9.19519 39.112C9.17034 39.1696 9.14 39.2246 9.10462 39.2762C7.96521 40.6707 6.82036 42.0605 5.69181 43.4633C5.57226 43.6119 5.54871 43.8417 5.48077 44.0327L5.65467 44.1185L7.79945 42.2599L7.9326 42.3946C7.41452 43.0268 6.91274 43.6737 6.37292 44.2865C6.01063 44.7027 5.9753 45.0349 6.52056 45.3865C8.62005 42.9871 10.7893 40.655 12.944 39.0511C12.5745 39.4728 11.8689 40.2508 11.1905 41.0583C9.89653 42.5903 8.61281 44.1314 7.33934 45.6819C7.16544 45.8932 6.87017 46.1913 7.29496 46.4072L9.197 44.735L9.33015 44.8873C9.03216 45.2629 8.69613 45.6163 8.44615 46.0215C8.2179 46.3851 7.72971 46.6823 8.02679 47.4058C9.82196 45.3662 11.3916 43.2455 13.6125 41.8123C12.896 42.6124 12.1117 43.3507 11.4342 44.1813C10.5465 45.2693 9.73501 46.422 8.90717 47.559C8.68164 47.8691 8.63545 48.1912 9.09375 48.4062C10.4786 46.8991 11.6352 45.1937 13.3 43.9939C13.2022 44.1944 13.0798 44.3813 12.9359 44.5504C11.9329 45.8769 10.9309 47.2043 9.92974 48.5326C9.65802 48.8916 9.6698 49.1611 10.0574 49.2709C13.1089 45.8812 16.0262 42.4371 19.9182 40.069C19.132 40.7584 18.2987 41.3924 17.4953 42.0642C14.9869 44.1691 12.7611 46.6011 10.8753 49.2977C10.7666 49.4518 10.7286 49.6594 10.658 49.8422L10.8038 49.8948L13.521 46.985L13.6414 47.1059C12.8743 48.1579 12.108 49.2109 11.3083 50.3091L11.9604 50.754C13.6949 49.0448 15.193 47.1326 17.3631 45.7529C17.287 45.9597 17.2834 46.0104 17.2571 46.0298C17.1032 46.1682 16.9456 46.3066 16.7871 46.4359C15.3116 47.6679 13.9793 49.0328 12.954 50.6857C12.8562 50.8435 12.8861 51.0834 12.8562 51.2855C13.0274 51.2117 13.2348 51.1776 13.3625 51.0557C13.8452 50.5943 14.2936 50.095 14.7709 49.6271C15.1006 49.3051 15.4466 48.9987 15.8007 48.7043C16.1549 48.4099 16.5172 48.1505 16.8767 47.8792L16.9039 47.9355L13.6605 51.7054C14.0871 52.0857 14.3416 52.3874 14.7944 51.9297C15.9619 50.7503 17.1693 49.6114 18.3658 48.4625C18.8838 47.9641 19.4137 47.4787 19.9381 46.9859L19.9598 47.021L15.0834 52.5213C15.6422 53.0058 15.6332 52.9975 16.0072 52.6246C16.8142 51.8208 17.6312 51.0271 18.4436 50.2252L18.517 50.2999C17.7465 51.2843 16.9752 52.2687 16.2029 53.2531L16.3496 53.5299C16.6104 53.482 16.9492 53.5235 17.1204 53.3712C18.1469 52.4527 19.1519 51.5079 20.1356 50.5371C20.6455 50.0332 21.0911 49.461 21.5657 48.9193L21.7043 49.0439L17.6285 54.0661C17.6448 54.1206 17.6602 54.175 17.6756 54.2295C17.9093 54.128 18.1928 54.0827 18.3685 53.9176C19.4988 52.8507 20.6047 51.7571 21.7197 50.6727L21.7949 50.7217L18.5342 54.7546C18.9463 54.6688 19.2588 54.6983 19.4246 54.5516C20.006 54.0283 20.5332 53.4441 21.0839 52.8849C22.0107 51.9423 22.9385 51.001 23.8672 50.0609L23.9442 50.1393L19.7289 55.0914L19.9481 55.3129C21.6481 54.2055 22.9461 52.6154 24.34 51.1425L24.4604 51.2625L20.7877 55.731C21.0386 55.9857 21.3049 56.1343 21.6635 55.7624C22.6399 54.7472 23.6371 53.7625 24.6117 52.7501C25.3725 51.9611 26.1116 51.1499 26.8597 50.3507L27.0753 50.5583L22.1472 56.425L22.2178 56.5948C22.4687 56.5173 22.7613 56.5025 22.9605 56.3502C23.5429 55.9017 24.0891 55.4043 24.6416 54.9179C25.0519 54.5571 25.4504 54.1796 25.8544 53.8105L25.9794 53.9489C25.1038 54.9198 24.2283 55.89 23.3527 56.8597C23.8319 57.263 23.8627 57.2999 24.3345 56.8938C25.9178 55.528 27.4829 54.14 29.0444 52.7455C29.5226 52.3173 29.961 51.842 30.4166 51.388L30.5298 51.5042L24.8427 57.5767L24.9332 57.7456C26.2728 57.7336 26.944 56.4296 28.0662 55.9359L26.0935 58.0898C26.483 58.5079 26.7882 58.3547 27.1405 58.0898C29.1666 56.5763 30.8468 54.7112 32.4336 52.7483C32.6066 52.5342 32.7887 52.3265 32.9662 52.1161L33.1655 52.3007C31.3612 54.4823 29.5534 56.6665 27.7419 58.8531C28.0952 59.2564 28.4964 59.1299 28.8795 58.7755C29.8342 57.8979 30.7816 57.0119 31.7317 56.1297L31.8223 56.2109L29.2192 59.4797C29.2527 59.5563 29.2853 59.6329 29.3179 59.7104C29.5969 59.6283 29.9193 59.6126 30.1466 59.4538C32.3013 57.9549 34.2451 56.1634 35.9243 54.1289C36.2015 53.7948 36.5303 53.506 36.8355 53.1959C35.2532 55.994 33.0939 58.2227 30.5977 60.1801C30.9546 60.2078 31.2752 60.1562 31.4898 59.9743C32.7443 58.9066 33.9734 57.8084 35.2106 56.7212L35.3175 56.8135L31.8105 60.6508C31.9228 60.6868 32.0161 60.7431 32.0423 60.7228C33.9489 59.0542 35.851 57.3783 37.8146 55.6553L33.0586 61.1169L33.2243 61.3107C34.5358 60.4801 35.649 59.3791 36.7893 58.3123L36.9125 58.4451L34.3248 61.6337L34.4643 61.8764C34.7315 61.7684 35.053 61.7232 35.2559 61.5405C36.196 60.6923 37.1108 59.8138 38.0202 58.9297C38.7801 58.1914 39.5183 57.43 40.2664 56.6788L40.4159 56.8246C38.855 58.6371 37.2941 60.4499 35.7332 62.2631L35.8818 62.4476L38.9042 59.883L38.9857 59.9882L36.6716 62.683C36.9261 62.7383 37.0493 62.8048 37.0918 62.7697C38.8127 61.3393 40.5297 59.903 42.2427 58.4608L42.3224 58.5245L38.0338 63.0364C38.089 63.0955 38.1434 63.1555 38.1986 63.2155L41.4665 60.3398L41.5064 60.3859L38.8127 63.389C38.8716 63.4554 38.9314 63.5209 38.9939 63.5865C40.7338 62.6128 42.0643 61.0947 43.5135 59.7307L43.6638 59.8941L40.1133 63.9307C40.4756 64.2823 40.7773 64.1346 41.078 63.8679C42.0857 62.974 43.0959 62.0819 44.1085 61.1916L44.1919 61.271L41.5082 64.4087L41.664 64.6441C41.9402 64.5204 42.2618 64.453 42.4873 64.2657C43.8287 63.1435 45.1483 61.9982 46.4743 60.8612L46.4725 60.8631ZM63.0411 40.5599L64.8707 44.1887L64.6796 44.2883C64.5754 44.0687 64.483 43.8426 64.3653 43.6313C63.9043 42.8007 63.4596 41.9701 62.9623 41.1653C62.6643 40.6799 62.2223 40.5867 61.7061 40.9263L62.6172 42.3245C62.1644 42.0421 61.8646 41.6462 61.524 41.2881C61.0458 40.7842 60.6319 41.2124 60.1536 41.3868C60.4371 41.7689 60.7016 42.0845 60.9208 42.4306C61.14 42.7767 61.3093 43.1477 61.5005 43.5085C59.6754 41.3241 59.6754 41.3241 58.9961 41.7754L60.1862 43.6552C58.4246 41.6821 58.411 41.6738 57.6502 42.2765C58.3467 42.844 58.9128 43.5039 59.0994 44.424C58.5179 43.5805 58.075 42.5856 56.7644 42.3642L57.9509 44.2422C57.5967 43.9884 57.3676 43.6516 57.1258 43.3258C56.5144 42.5035 56.2481 42.4647 55.5362 42.9714L57.5198 46.2208L57.2915 46.3629C57.1819 46.1488 57.0968 45.9172 56.9591 45.7234C56.4284 44.9759 55.8967 44.2274 55.3342 43.5039C55.038 43.1218 54.693 43.1347 54.4086 43.4716L55.5054 45.1891C54.0082 43.5224 54.0082 43.5224 53.5028 43.9893C54.167 44.9934 54.8333 45.996 55.5018 46.997C54.7401 46.2134 54.1051 45.345 53.4711 44.4766C53.2257 44.1407 52.9657 44.0022 52.6424 44.4166C52.9884 44.9334 53.338 45.4539 53.6867 45.9735C53.3036 45.7299 53.0699 45.3856 52.7973 45.0755C52.2783 44.4849 51.9821 44.5034 51.4839 45.0617C52.1524 46.0584 52.8108 47.0403 53.4684 48.0223L53.3018 48.1432C53.1559 47.9272 53.0155 47.7066 52.8634 47.4972C52.4051 46.8613 51.9576 46.2208 51.4785 45.5988C51.1072 45.1134 50.7358 45.1974 50.407 45.5933L51.5202 47.2572L51.3653 47.3606C51.1407 47.0413 50.9287 46.7146 50.6905 46.4026C50.129 45.6754 49.956 45.6643 49.2694 46.2301L51.2177 48.8242L51.0546 48.9516C50.9088 48.7587 50.7711 48.5585 50.6153 48.3739C50.157 47.8285 49.7096 47.272 49.2223 46.7533C48.8944 46.4026 48.5485 46.4571 48.245 46.8391L49.2413 48.2364C48.9116 48.0674 48.629 47.8163 48.4198 47.5064C48.0159 46.901 47.611 46.9647 47.1355 47.4141L48.3066 48.7984C47.9362 48.6387 47.6971 48.3646 47.4389 48.1099C46.7868 47.4639 46.6464 47.4713 45.9327 48.1542L47.2306 49.7231C46.8267 49.4924 46.5223 49.1814 46.2071 48.8824C45.4708 48.181 45.4681 48.1838 44.6574 48.8935C44.9391 49.1602 45.2389 49.4084 45.4943 49.6964C45.7497 49.9843 45.9472 50.3018 46.1772 50.6072C44.3803 48.9036 44.3803 48.9036 43.8169 49.4518L44.5985 50.4374C43.3224 49.6262 43.3224 49.6262 43.009 50.0683C43.1177 50.2528 43.2273 50.4374 43.336 50.622L43.2563 50.6921L42.6675 50.2307L42.0924 50.742L42.5851 51.3224L41.7111 50.9644C41.7482 51.2754 41.769 51.4443 41.7654 51.4175L40.8597 52.0552L40.9892 52.3118C41.5634 52.1272 42.1404 51.9592 42.7101 51.758C43.1104 51.6196 43.4881 51.3778 43.8966 51.3031C44.5886 51.1766 45.3068 51.1969 45.9979 51.065C47.2732 50.8223 48.534 50.526 49.802 50.2224C50.0321 50.167 50.2295 49.9714 50.4423 49.8403C50.7368 49.9414 51.0518 49.9637 51.3571 49.9049C51.4694 49.8874 51.5591 49.7139 51.6714 49.6973C52.3824 49.5939 53.1025 49.5478 53.8081 49.4204C54.7953 49.2405 55.7708 48.9987 56.7535 48.7956C57.7362 48.5926 58.7126 48.3342 59.7044 48.2327C60.6319 48.1404 61.4905 47.7648 62.4288 47.7168C63.2675 47.6743 64.1017 47.4805 64.9305 47.3172C65.1787 47.2683 65.4024 47.0948 65.6768 46.96C65.9485 47.3227 66.3217 47.1003 66.6885 46.9379C66.7909 46.8927 66.8805 46.7755 66.9793 46.7727C67.4231 46.757 67.885 46.8401 68.3098 46.7598C69.6113 46.5171 70.9047 46.2301 72.1927 45.9237C72.4436 45.8646 72.6564 45.6468 72.8366 45.5296C73.1219 45.5877 73.4435 45.7354 73.7424 45.7003C75.1254 45.5407 76.5058 45.3432 77.8816 45.1254C78.1243 45.0875 78.3417 44.8882 78.5228 44.7885C78.7828 44.8707 79.0455 45.0248 79.309 45.0248C80.2908 45.0248 81.2736 44.9842 82.2554 44.95C82.5089 44.9449 82.7617 44.9202 83.0117 44.8762C83.2499 44.8291 83.479 44.7378 83.7362 44.6593C84.2036 45.3672 85.0115 44.8854 85.7153 44.9473C85.2479 44.6787 85.0333 43.8472 84.3449 44.257L83.6837 43.1938L83.5026 43.2944L83.5714 43.9856C83.104 43.4319 83.1883 42.5137 82.2128 42.3383C82.4211 43.012 82.5941 43.574 82.8142 44.2874C82.0742 43.4282 82.2463 42.0605 80.8741 41.7957C80.9584 42.1104 81.0218 42.3263 81.0716 42.545C81.116 42.7379 81.1449 42.9345 81.1812 43.1292C80.7654 42.2146 80.472 41.2364 79.1686 41.2641C79.3788 41.9286 79.5717 42.5404 79.7655 43.1523C79.1632 42.3522 79.1261 41.1653 77.8635 40.7473L78.1243 42.0458C77.2458 40.5452 77.2458 40.5452 76.7105 40.6245L77.4514 43.263C77.0877 42.5357 76.7701 41.7854 76.5003 41.0168C76.3056 40.4916 75.9632 40.2526 75.3654 40.3708C75.456 40.7925 75.5466 41.1921 75.677 41.7551C75.1254 41.0638 75.2386 39.9222 74.0648 40.1705C74.3845 41.0638 74.6988 41.9452 75.014 42.8256C74.5784 42.0873 74.2315 41.3176 73.8782 40.5526C73.6138 39.9813 73.1536 39.8539 72.5196 39.9444C72.6573 40.2822 72.7914 40.5729 72.8955 40.8728C72.9997 41.1727 73.0767 41.4717 73.2252 41.9572C72.5269 41.0657 72.6564 39.6232 71.1538 39.83L72.4698 42.8893C71.8874 42.0679 71.4608 41.1773 70.9717 40.3246C70.6285 39.7266 70.076 39.6029 69.4003 39.8281C69.6629 40.5018 69.9138 41.1423 70.1638 41.7827C69.4863 41.086 69.5524 39.6251 68.067 39.8715C68.49 40.8866 68.8922 41.8446 69.2934 42.8071C68.7635 42.0042 68.346 41.1598 67.8777 40.3458C67.6749 39.9924 67.3461 39.7921 66.9249 40.0542C67.1477 40.6532 67.3579 41.217 67.5671 41.7809C66.9222 41.1792 67.0417 39.734 65.6043 40.1613C66.098 41.2622 66.5789 42.3374 67.0608 43.4116L66.8687 43.4984C66.7727 43.2667 66.6949 43.024 66.5789 42.8034C66.1804 42.0485 65.7973 41.2816 65.3498 40.5563C65.0727 40.1068 64.6642 40.1077 64.2403 40.464C64.531 41.0241 64.8055 41.5557 65.1578 42.2377C64.3264 41.6194 64.4305 40.0727 63.0429 40.559L63.0411 40.5599ZM53.9702 34.0842L53.8669 34.1506C53.6124 33.7104 53.3633 33.2674 53.1025 32.8318C52.6397 32.0603 52.5437 32.0289 51.925 32.4239L52.3996 33.4585C52.1336 33.2414 51.908 32.9772 51.7339 32.6786C51.4957 32.3003 51.2095 32.2873 50.869 32.5171L51.8526 34.314C51.08 33.8756 51.0845 32.5863 49.7875 32.5863C49.9804 33.021 50.1136 33.3246 50.2739 33.6855C49.7214 33.4086 49.6399 32.3547 48.7405 32.9103L49.9388 35.0246C49.4399 34.5375 49.006 33.9859 48.6481 33.3837C48.3764 32.9463 48.0829 32.8125 47.5974 33.1225L48.1409 34.2392C47.0721 33.093 47.0721 33.093 46.4644 33.3588L47.7568 35.3586C47.2469 34.9249 46.8765 34.3961 46.4761 33.8913C46.1501 33.4806 45.7669 33.2453 45.2543 33.6883C45.4952 34.1045 45.7198 34.4939 45.9436 34.8824C44.719 33.6716 44.719 33.6716 44.1321 33.991C44.649 34.7336 45.1658 35.4771 45.6827 36.2215C44.7715 35.6217 44.5297 34.2835 43.0615 34.0722L43.9555 35.4196C43.3215 35.1224 43.1059 34.0906 42.0924 34.5068C42.7264 35.3374 43.3061 36.0905 43.8857 36.8454C43.2653 36.335 42.778 35.7204 42.2427 35.1501C41.8877 34.7708 41.4547 34.5161 40.8941 34.9083L41.6748 36.0157C41.0155 35.7555 40.8651 34.936 40.0889 35.0929L42.0018 37.5366C41.6006 37.305 41.3316 36.9663 41.0508 36.6377C40.77 36.3092 40.5418 35.9539 40.2103 35.7278C39.8942 35.5118 39.4775 35.4509 39.1053 35.3208C39.0745 35.3937 39.0446 35.4666 39.0147 35.5395L40.078 36.73C39.2457 36.3923 38.9006 35.3014 37.8762 35.9133L39.5645 37.5597L39.4513 37.6898C38.7058 37.1666 38.1832 36.252 36.975 36.1486C37.8218 37.0318 38.5365 37.7784 39.2511 38.525C38.4595 37.9787 37.7729 37.3336 37.0628 36.7162C36.7712 36.4624 36.4343 36.3683 36.1127 36.755L37.4043 38.0027C36.6553 37.6815 36.1363 36.8952 35.0992 37.137L37.5266 39.387C36.9541 39.0935 36.4949 38.6736 36.0149 38.2795C35.5349 37.8855 35.0838 37.4139 34.4154 37.5477L34.2487 37.7904L36.052 39.4516C35.3881 39.0141 34.794 38.5047 34.15 38.0673C33.9761 37.9482 33.6582 38.0488 33.4073 38.0488L33.4254 38.2269L34.9552 39.5346C34.0793 39.3574 33.5776 38.1383 32.4119 38.6985C33.2895 39.4663 34.0721 40.1493 34.8574 40.8322C34.0295 40.3708 33.2923 39.8032 32.5468 39.2449C32.1519 38.9486 31.8358 39.0289 31.5904 39.5116C31.8195 39.6786 32.0433 39.8336 32.2588 40.0025C32.4744 40.1714 32.67 40.3477 32.8756 40.5212C31.306 39.6223 31.306 39.6223 30.883 40.1077C31.239 40.3615 31.5994 40.6005 31.94 40.8645C32.2606 41.1137 32.5604 41.3896 32.8702 41.6535C30.5977 40.2019 30.5977 40.2019 30.1793 40.727L31.0678 41.4348C30.4419 41.4588 30.0597 40.6245 29.4375 41.2299L31.0506 42.4527C30.2762 42.3115 29.778 41.3998 28.7074 41.7504L29.5534 42.5496C29.019 42.5736 28.5643 41.6332 28.1296 42.5718L28.7409 43.072C28.5018 43.0831 28.3225 42.9954 28.1359 42.9354C27.6079 42.7665 27.4928 42.9428 27.7075 43.2953L26.646 43.8435L26.7592 44.1536C27.7365 43.9367 28.7165 43.7318 29.6902 43.5021C30.6964 43.2658 31.6945 42.9963 32.6999 42.7582C33.6681 42.5284 34.64 42.3199 35.62 42.1002L35.4995 41.804H36.898C36.696 41.4856 36.5973 41.3305 36.4234 41.0583C36.9551 41.2521 37.4405 42.1233 37.6914 41.2004L38.8136 41.0777L38.1588 40.2471C39.2031 40.8525 39.2031 40.8525 40.3452 40.4566C40.4965 40.404 40.6477 40.3541 40.7981 40.3043L46.0369 38.5878L45.8557 38.094C46.5232 38.9025 47.0495 38.13 47.6391 38.0571L47.3094 37.2736L47.4552 37.2062C47.5965 37.4536 47.7378 37.7009 47.9425 38.0608L48.9017 37.4286H49.7495C49.6317 37.09 49.5683 36.8943 49.495 36.6987L49.6217 36.6377C49.7621 36.85 49.9034 37.0613 50.0465 37.2782L51.7946 36.6101C51.7231 36.3673 51.6696 36.1818 51.5664 35.8293C51.9812 36.1846 52.2248 36.7669 52.6994 36.1763C52.5624 35.8791 52.4247 35.5808 52.2864 35.2811C52.579 35.4786 52.6831 35.7998 52.8987 35.9936C52.9893 36.0776 53.3144 35.9013 53.5327 35.8367L53.492 35.7564L54.4656 35.6927C54.3506 35.3383 54.2781 35.1169 54.2057 34.8954L54.3252 34.8409C54.4602 35.0689 54.597 35.2959 54.76 35.5792L55.4293 35.355C55.3714 35.1187 55.3288 34.9498 55.2871 34.7819C55.3306 34.7191 55.3777 34.6573 55.4194 34.5973C55.6005 35.3873 56.0715 35.2608 56.5062 35.1039C56.8287 34.9886 57.1194 34.7855 57.5026 34.5797C58.008 35.0061 58.6492 34.8778 58.8476 34.086C59.0722 34.4921 59.3122 34.8243 59.6763 34.2706C59.7017 34.2318 59.7913 34.2244 59.852 34.2244C60.4788 34.2244 61.1056 34.2244 61.7749 34.2244C61.707 33.8331 61.6716 33.6329 61.6363 33.4326C61.9524 33.7473 62.0122 34.2826 62.6824 34.0537C63.167 33.8885 63.7231 33.9347 64.2476 33.8959C64.6225 33.8682 64.9984 33.8562 65.5663 33.8276L64.733 32.6796C64.6696 33.0487 64.6425 33.1834 64.6271 33.2887L63.6561 32.4267L63.4904 32.5947C63.5547 32.8032 63.6199 33.0118 63.7105 33.3043C63.1353 32.9352 63.0701 32.0299 62.1707 32.1544C62.3627 32.5568 62.533 32.9177 62.7051 33.2785C62.1091 32.9094 62.0521 31.9533 61.0603 32.0299C61.1916 32.3741 61.2949 32.6436 61.466 33.0893C60.8891 32.5688 60.7496 31.6238 59.8031 32.0123C60.0323 32.5476 60.237 33.0275 60.4942 33.6283C59.7651 33.1041 59.8602 31.9902 58.8113 31.861C58.8865 32.1609 58.939 32.3686 59.0133 32.6602C58.3005 31.8388 58.3005 31.8388 57.806 32.0197C57.9101 32.2763 58.0125 32.5319 58.1175 32.7866C58.2226 33.0413 58.325 33.2831 58.4282 33.5304C57.2426 31.7715 57.2426 31.7715 56.5398 32.0326L56.701 32.8724C56.2816 32.411 56.1965 31.609 55.4003 32.0594L56.1077 33.5664C55.7726 33.2684 55.5643 32.8983 55.3388 32.5402C55.0906 32.1461 54.8415 31.7244 54.2736 32.1221C54.3587 32.4101 54.4339 32.6676 54.5453 33.0339C54.0436 32.6759 54.01 31.717 53.1179 32.1895L53.9702 34.0842ZM75.1417 53.6287C75.4243 54.4141 75.6906 55.1542 75.9569 55.8953L75.792 55.9552C75.5584 55.3794 75.3247 54.8029 75.091 54.2258C74.8682 53.6785 74.524 53.541 74.0041 53.9046C74.1047 54.1252 74.2025 54.3319 74.2931 54.5423C74.3836 54.7528 74.4615 54.9567 74.5458 55.1644C73.6926 53.9517 73.6627 53.7256 73.006 54.1344L74.0476 56.5643C73.5766 55.9183 73.2415 55.205 72.8701 54.5193C72.6645 54.1501 72.3566 54.0015 71.9708 54.3467C72.0496 54.5765 72.132 54.7934 72.199 55.0148C72.266 55.2363 72.3149 55.4486 72.372 55.6655C72.0894 55.3148 71.988 54.7971 71.6827 54.5894C71.4282 54.4159 70.9355 54.606 70.4953 54.6392C70.9554 55.6055 71.3386 56.4121 71.7217 57.2177C71.2675 56.658 70.8728 56.0507 70.5442 55.4061C70.2127 54.7823 69.8097 54.8469 69.3414 55.2022L70.2046 56.7388C69.5389 56.3327 69.5235 55.0213 68.2926 55.5233L69.4501 57.7871C68.9764 57.2491 68.6295 56.6502 68.2509 56.0725C67.9792 55.6525 67.6504 55.6664 67.3234 55.9977L68.3379 57.6801C67.4847 57.2057 67.4964 55.6036 66.1288 56.4019L67.616 58.8937L67.4665 58.986C67.0879 58.3805 66.7419 57.7548 66.3253 57.1753C65.8018 56.4416 65.6578 56.4434 64.8761 57.0156L65.4803 57.7539C64.5301 57.0221 64.5301 57.0221 63.993 57.5906L65.1995 59.5609C64.7231 59.1364 64.378 58.6279 64.0365 58.1166C63.7458 57.681 63.446 57.6552 63.0964 58.1221C63.2667 58.4313 63.4442 58.7506 63.6181 59.0727C64.3653 60.457 64.368 60.4681 65.915 60.2078C66.1668 60.1654 66.3851 59.9199 66.6152 59.7713C67.0943 60.4625 67.7555 59.8747 68.3415 59.8516C68.5525 59.8433 68.7536 59.5627 68.9673 59.4003C69.1168 59.4529 69.3939 59.6587 69.634 59.62C70.7127 59.4455 71.7806 59.2019 72.8765 58.974C72.9046 58.7562 72.9308 58.5559 72.9671 58.2504C73.2587 58.9186 73.6835 59.0432 74.1735 58.7165C74.2641 58.6537 74.3664 58.5559 74.4679 58.5504C75.3301 58.5005 76.1888 58.4682 77.0655 58.4304C77.0139 57.9957 76.9867 57.7622 76.9586 57.5287L77.1199 57.5084C77.1516 57.7558 77.1842 58.004 77.224 58.3159L78.0962 58.1674C78.1134 57.9053 78.127 57.7059 78.1406 57.5001H78.2484C78.3254 57.7022 78.4033 57.9044 78.4948 58.1461L79.0753 57.9883C79.0608 57.6939 79.0491 57.4632 79.0382 57.2316L79.184 57.214C79.2483 57.4392 79.3117 57.6644 79.4023 57.9856C80.1785 57.8674 80.972 57.7908 81.7418 57.61C82.0606 57.5361 82.3287 57.2408 82.6385 57.0313C82.6956 57.0655 82.9419 57.3239 83.0841 57.274C83.3232 57.19 83.4962 56.9104 83.681 56.7295C83.9989 57.4171 84.6402 56.9861 85.1628 56.951C86.0296 56.892 85.4137 56.114 85.6963 55.5898C85.7968 56.1029 85.8692 56.4767 85.9444 56.8606C86.8502 56.8606 87.7459 56.939 88.6182 56.8366C89.3491 56.7517 90.0492 56.3309 90.7765 56.2829C91.7855 56.2183 92.8081 56.365 93.9049 56.425C93.7573 55.4735 93.6332 54.6005 92.9711 53.8973C92.9938 54.2821 93.0155 54.6678 93.0445 55.1727C92.6396 54.6079 92.9059 53.6259 91.8489 53.6638C91.8806 54.259 91.9096 54.809 91.9395 55.36C91.7285 54.9955 91.6596 54.6217 91.5908 54.2415C91.5129 53.817 91.4422 53.3841 90.7937 53.5789V54.5276C90.4314 54.14 90.7385 53.1783 89.7567 53.4515C89.7875 53.6721 89.8228 53.8539 89.8373 54.0366C89.85 54.1935 89.8373 54.3522 89.8373 54.6457C89.4496 54.068 89.7385 53.0953 88.6852 53.2826L88.8292 55.0065C88.6497 54.625 88.5275 54.218 88.4669 53.7994C88.3863 53.3592 88.2858 52.9615 87.6952 53.1765C87.7758 53.6453 87.8546 54.0994 87.9325 54.547C87.4126 54.0089 87.6789 52.8055 86.4716 53.0168L87.1056 55.779C86.7433 55.0527 86.5431 54.2895 86.2796 53.5503C86.1201 53.1017 85.7959 52.8498 85.2832 53.0685L85.6772 54.8598C85.4182 54.4574 85.2905 54.02 85.1555 53.5844C84.9807 53.0224 84.6474 52.7787 84.104 53.0141C84.3214 54.0154 84.5342 54.9992 84.747 55.982C84.4146 55.2779 84.238 54.535 84.0116 53.8077C83.729 52.9006 83.5723 52.8323 82.6023 53.063C82.749 53.5343 82.8963 54.0061 83.0443 54.4787C82.7905 54.1682 82.5924 53.8145 82.4592 53.434C82.2961 52.9965 82.0615 52.7732 81.5924 53.0021C81.8641 53.9582 82.1268 54.8967 82.3921 55.8362C81.9972 55.0601 81.7355 54.2433 81.4293 53.4441C81.2355 52.9384 80.8859 52.7197 80.3524 53.0621C80.4702 53.5069 80.5798 53.9231 80.6903 54.3393C79.8606 52.8627 79.8606 52.8627 79.2411 53.063C79.3987 53.4949 79.5762 53.9203 79.7084 54.3605C79.8452 54.8164 79.9385 55.2834 80.0508 55.7448C79.6933 55.0171 79.3787 54.2682 79.1088 53.5023C78.9177 52.9827 78.5736 52.8563 78.0618 53.075C78.243 53.5918 78.4178 54.1021 78.5953 54.6116C77.6896 52.9845 77.6896 52.9845 77.1461 53.2854C77.4894 54.3061 77.8281 55.3157 78.1678 56.3216L78.0011 56.3798C77.9106 56.1417 77.8309 55.9017 77.7367 55.6664C77.4649 55.001 77.2113 54.3319 76.9215 53.6767C76.7739 53.3408 76.5357 53.1737 76.186 53.457C76.3264 53.9342 76.4578 54.3725 76.6326 54.9807C75.6127 53.5023 75.6127 53.5023 75.1417 53.6287ZM32.699 26.6809L34.1536 27.5789C33.1944 27.3269 32.363 26.5305 31.1131 27.0011L32.0469 27.637C31.2879 27.5004 30.6321 26.8396 29.6838 27.3601L31.45 28.3753C30.3423 28.1907 29.4366 27.039 28.0227 27.8327L29.7354 28.6983C28.7246 28.6891 28.058 27.7145 26.9204 28.1446C27.3941 28.3882 27.7157 28.5479 28.0327 28.7186C28.327 28.8773 28.615 29.0471 28.9058 29.2133C26.098 28.2793 26.098 28.2793 25.5926 28.7398L26.5889 29.2465C25.6533 29.1394 24.7593 28.535 23.7811 29.3388L26.1361 30.3964C24.897 30.2884 23.8119 29.1819 22.2568 29.8971L23.9233 30.5376C23.3599 30.4881 22.8036 30.3745 22.2649 30.1989C21.6409 30.0143 21.2161 30.3659 20.6346 30.7185C21.1871 30.903 21.5992 31.0341 22.0068 31.1799C22.4144 31.3257 22.7939 31.4752 23.1843 31.6238C22.495 31.5444 21.842 31.3552 21.1917 31.1624C20.4997 30.9575 19.833 30.8578 19.2271 31.5112L21.6056 32.4728C20.4281 32.4618 19.3693 31.3414 17.9346 32.184L20.4707 33.1622C19.9925 33.1576 19.565 33.021 19.1257 32.8927C18.709 32.77 18.2897 32.5624 17.8721 32.566C17.4818 32.566 17.0932 32.8005 16.7037 32.9352L16.7617 33.1511C17.0398 33.249 17.3196 33.3431 17.5959 33.4455C17.8522 33.5378 18.1049 33.6467 18.3594 33.7473C15.9556 33.4917 15.9556 33.4917 15.6893 33.8922L17.4156 34.5456C16.4592 34.6776 15.6467 33.8165 14.6205 34.469L16.0154 35.1971C15.2908 35.3033 14.6894 34.4939 13.9086 35.1113C14.1559 35.2387 14.3144 35.3134 14.4666 35.4002C14.6187 35.4869 14.7845 35.5968 14.943 35.6964C13.5074 35.3679 13.4367 35.3836 12.9431 36.192C13.7012 36.5095 17.3377 35.8468 18.3839 35.1999L18.3033 35.0504C18.7724 34.995 19.2824 35.0098 19.7461 34.8658C23.3935 33.7529 26.8688 32.1295 30.6339 31.3386C34.7007 30.4841 38.7122 29.3582 42.7499 28.3596C43.2934 28.2249 43.8531 28.1446 44.5279 28.0163C44.3359 27.853 44.2507 27.7884 44.1747 27.7136C44.1183 27.655 44.0651 27.5934 44.0153 27.529C44.7063 28.0301 45.3802 27.9905 46.0984 27.6573C45.4173 26.9384 43.4872 26.1521 42.4755 26.1872L43.4356 26.9504C42.4746 26.608 41.6857 25.878 40.587 25.8928L41.4593 26.4945C40.491 26.2647 39.6478 25.6085 38.4703 25.9712L40.2266 27.1027C39.6886 26.9642 39.2303 26.6791 38.7403 26.4567C38.2811 26.2509 37.8753 25.7543 37.2059 26.082L38.2756 26.7557C37.3608 26.7095 36.7821 25.8771 35.7912 26.2019L37.4922 27.2171C36.3709 27.0519 35.5294 25.9398 34.1047 26.3967L35.091 27.1082C34.3112 26.9928 33.6962 26.2629 32.699 26.6818V26.6809ZM61.7432 59.7888C61.0132 59.3394 60.6002 59.4917 60.2469 60.2927H63.9287L62.8799 58.2006L62.2459 58.6297C62.3953 58.9278 62.5122 59.1622 62.629 59.3976C62.2359 59.1419 61.9787 58.5457 61.4416 59.2231L61.7432 59.7888Z" fill="black"/>
<path d="M26.7737 52.8939L28.683 50.6292L28.8714 50.8017L26.8706 52.9723C26.838 52.9483 26.8054 52.9206 26.7737 52.8939Z" fill="black"/>
<path d="M50.187 62.9799L52.1008 61.1748L52.0718 61.1453L50.2767 63.0722L50.187 62.9799Z" fill="black"/>
<path d="M42.3722 30.4304L39.7754 30.9361L39.7446 30.7857L42.3214 30.1858C42.3396 30.2679 42.3568 30.3501 42.3722 30.4304Z" fill="black"/>
<path d="M77.657 69.7761L79.8489 68.1426L79.9394 68.2764L77.7657 69.9283L77.657 69.7761Z" fill="black"/>
<path d="M9.79834 32.3684L11.5383 30.8918L11.6497 31.0247L9.95232 32.5659L9.79834 32.3684Z" fill="black"/>
<path d="M49.5185 59.9908L47.87 61.5596L47.7161 61.3871L49.4034 59.8699L49.5185 59.9908Z" fill="black"/>
<path d="M80.645 66.0441L82.1901 64.3044L82.3568 64.4687L80.5942 65.9868L80.645 66.0441Z" fill="black"/>
<path d="M71.1103 64.7353L69.5443 66.5736L69.4365 66.4813L70.9437 64.5867L71.1103 64.7353Z" fill="black"/>
<path d="M66.531 66.9861C67.1378 66.3382 67.7453 65.6907 68.3533 65.0435L68.5218 65.2105L66.6533 67.1079L66.531 66.9861Z" fill="black"/>
<path d="M19.6301 45.5174L21.6581 43.9236L21.7722 44.074L19.756 45.6493C19.7135 45.606 19.6718 45.5654 19.6301 45.5174Z" fill="black"/>
<path d="M21.6808 47.0615L19.9599 48.6987L19.7153 48.4495L21.4127 46.7717L21.6808 47.0615Z" fill="black"/>
<path d="M49.3691 57.8054L50.9225 56.0215L51.0312 56.1138L49.5503 57.9724L49.3691 57.8054Z" fill="black"/>
<path d="M45.5423 59.6403L47.284 57.7539C47.3084 57.7788 47.3338 57.8028 47.3592 57.8268L45.5051 59.5803C45.5151 59.6006 45.5269 59.6209 45.5423 59.6403Z" fill="black"/>
<path d="M56.3649 62.0765L54.9058 63.638L54.8152 63.5549L56.2752 62.0229L56.3649 62.0765Z" fill="black"/>
<path d="M75.0864 65.3832L73.524 67.0887L73.3972 66.9678L74.937 65.2393L75.0864 65.3832Z" fill="black"/>
<path d="M82.1394 51.1951H85.228V51.2938H82.172L82.1394 51.1951Z" fill="black"/>
<path d="M29.7544 47.4527L28.4574 48.873L28.3433 48.7687L29.6167 47.3032L29.7544 47.4527Z" fill="black"/>
<path d="M75.3582 47.5791L77.5763 47.2903L77.5953 47.4278L75.3663 47.7323L75.3582 47.5791Z" fill="black"/>
<path d="M90.3092 63.1278L89.1318 64.6597L88.9968 64.5555L90.1254 62.9866L90.3092 63.1278Z" fill="black"/>
</g>
<defs>
<clipPath id="clip0_45_132">
<rect width="96" height="96" fill="white"/>
</clipPath>
</defs>
</svg>
