<svg width="96" height="96" viewBox="0 0 96 96" fill="none" xmlns="http://www.w3.org/2000/svg">
<path d="M76.7565 29.0442C75.0235 28.77 73.2503 28.6502 71.5235 28.4138C68.6041 28.024 65.7105 27.4545 62.8586 26.7085C58.5046 25.5422 54.3083 24.6848 49.9078 25.5422C49.9154 25.4082 49.871 25.2766 49.7842 25.1757C49.6973 25.0749 49.575 25.0129 49.4436 25.0032C48.9464 25.0332 48.4597 25.1617 48.0108 25.3814C47.9436 25.3658 47.8738 25.3658 47.8065 25.3814C46.2593 25.6588 44.8605 26.3901 43.2699 26.6108C41.3389 26.8787 39.3398 26.6896 37.4087 26.554C34.5091 26.3523 31.6373 26.16 28.8615 27.0458C28.828 26.9991 28.7856 26.9599 28.7367 26.9306C28.6879 26.9014 28.6336 26.8826 28.5774 26.8755C28.5211 26.8684 28.464 26.8731 28.4096 26.8894C28.3552 26.9057 28.3047 26.9332 28.2611 26.9701L28.0692 27.112C28.0179 27.0369 27.9478 26.9771 27.8662 26.9389C27.7846 26.9007 27.6944 26.8853 27.6051 26.8945C25.8721 27.0993 24.201 27.3956 22.4464 27.4303C21.1531 27.4279 19.8621 27.5387 18.5874 27.7613L18.6184 27.7298C18.6381 27.716 18.6516 27.6948 18.6559 27.6708C18.6603 27.6469 18.6551 27.6222 18.6416 27.6021C18.628 27.5821 18.6072 27.5683 18.5837 27.5638C18.5602 27.5594 18.5359 27.5647 18.5162 27.5785C17.3805 28.1868 16.1489 28.3035 14.9606 28.729C13.6945 29.2052 12.4793 29.8114 11.3337 30.5383C9.20104 31.8304 7.29277 33.4728 5.68607 35.3989C3.21039 38.4565 2.56053 42.6489 3.2661 46.4504C4.02118 50.5198 6.60207 53.5427 9.59763 56.1527C12.9268 59.0469 16.6025 61.4999 20.537 63.453C36.5484 71.4248 55.7411 71.8314 72.4178 65.7793C81.3922 62.52 90.9049 56.6381 92.7648 46.3369C94.5163 36.6598 86.0897 28.149 76.7565 29.0442ZM63.295 27.6068C66.3679 28.3476 69.6358 29.0726 72.8882 29.4981C67.2777 31.2444 63.8242 37.4352 60.253 42.1603C59.1885 43.5693 57.864 45.3282 57.1584 42.8222C56.7437 41.3502 56.7035 39.752 56.7375 38.2327C56.818 34.6393 57.9073 29.4508 60.7419 26.9859C61.5961 27.2034 62.444 27.402 63.295 27.6068ZM89.9301 49.6719C86.3652 58.5672 76.1623 62.9109 67.7605 65.4515C50.2296 70.725 30.0714 68.6036 14.682 58.2709C9.20152 54.5955 3.95619 50.1604 4.16043 42.8853C4.25946 39.2193 6.11003 36.3067 8.70948 33.9332C10.3493 32.4324 12.1777 31.1604 14.1467 30.1506C15.5795 29.4162 17.0618 29.1514 18.2408 28.086C18.2655 28.1105 18.2967 28.1269 18.3306 28.1333C20.9424 28.5556 24.1701 28.9087 26.8469 28.1553C25.3955 29.64 24.4517 31.525 23.7152 33.536C23.2224 34.9302 22.8415 36.3628 22.5763 37.8198C22.434 38.5542 22.2112 42.1319 20.9331 41.7253C19.0299 41.1232 19.4787 36.2122 19.5096 34.7685C19.5467 32.9277 19.8407 30.8977 19.3177 29.0947C19.2528 28.8708 18.8783 28.8582 18.8876 29.123C18.9742 31.5533 18.4636 34.0435 18.4327 36.4833C18.4048 38.5637 18.411 41.306 20.1688 42.7182C22.3659 44.4803 23.6935 41.0318 23.9999 39.4526C24.8014 35.3548 26.1166 31.0742 28.8553 27.8622C28.903 27.8049 28.9388 27.7384 28.9605 27.6667C32.3645 27.279 35.7438 27.6667 39.1479 27.9C40.9304 28.0198 43.3751 28.149 45.433 27.6226C44.4868 28.8925 43.6843 30.2671 43.0409 31.7204C41.803 34.4407 41.3203 37.3943 40.6859 40.2942C40.4624 41.5329 40.0871 42.738 39.5687 43.8813C38.5475 45.9208 37.2788 42.7403 36.9817 41.7347C35.8181 37.7819 37.2602 32.9907 38.5878 29.2523C38.6015 29.1838 38.5925 29.1126 38.5622 29.0499C38.5319 28.9872 38.4821 28.9365 38.4204 28.9059C38.3588 28.8752 38.2889 28.8662 38.2217 28.8804C38.1545 28.8946 38.0939 28.9312 38.0493 28.9843C35.9233 32.6408 34.9238 37.2745 35.6541 41.4857C35.945 43.1721 37.8946 47.5568 40.0886 45.3692C41.9175 43.5472 42.1032 39.8687 42.6664 37.4731C43.1409 35.3553 43.8684 33.3048 44.8326 31.3674C45.4752 30.1052 46.2969 28.9464 47.2712 27.9284C47.9706 27.1971 48.8742 26.7589 49.5674 26.0371C51.5324 26.015 53.5006 25.9803 55.4471 26.1222C56.9807 26.2519 58.5037 26.4888 60.0054 26.8314C56.8428 28.8614 55.8463 33.6463 55.4595 37.1768C55.2212 39.3549 54.9612 44.2218 57.276 45.4637C58.3003 46.0122 59.3587 45.2084 59.9961 44.4267C61.6579 42.3841 62.8772 39.9885 64.3533 37.8072C65.7521 35.7425 67.2777 33.7724 69.2057 32.1964C71.214 30.5541 73.4855 29.9899 75.9054 29.8606C75.9416 29.9021 75.9859 29.9353 76.0355 29.9581C76.0851 29.9809 76.1388 29.9928 76.1932 29.993C80.9651 30.1128 85.3285 31.8843 88.3952 35.6826C91.6198 39.6701 91.7745 45.054 89.927 49.6624L89.9301 49.6719Z" fill="black"/>
<path d="M16.1736 59.1378C15.2886 57.9463 13.9486 57.111 12.9707 55.9668C11.8941 54.6602 11.03 53.1863 10.4115 51.6011C9.17367 48.5813 8.73423 45.1297 8.88277 41.8767C8.8844 41.8514 8.88113 41.8261 8.87314 41.8021C8.86516 41.7782 8.85262 41.756 8.83624 41.737C8.81986 41.718 8.79996 41.7024 8.77768 41.6913C8.7554 41.6801 8.73117 41.6735 8.70638 41.6718C8.68159 41.6701 8.65673 41.6735 8.6332 41.6816C8.60968 41.6897 8.58796 41.7025 8.56928 41.7192C8.53155 41.7529 8.50852 41.8005 8.50524 41.8515C7.96678 45.3819 8.04723 48.8051 9.29436 52.1779C9.89443 53.7186 10.7106 55.1626 11.7174 56.4648C12.6798 57.7572 14.1126 59.4278 15.6661 59.9322C15.7655 59.9575 15.8701 59.9506 15.9655 59.9124C16.0608 59.8743 16.1421 59.8068 16.198 59.7193C16.2539 59.6319 16.2815 59.5289 16.2772 59.4246C16.2728 59.3204 16.2366 59.2201 16.1736 59.1378Z" fill="black"/>
<path d="M21.7006 62.728C20.7722 61.6184 19.5591 60.7989 18.6277 59.6673C17.6016 58.3586 16.7677 56.9049 16.152 55.352C14.8801 52.3417 14.5614 49.0918 13.6763 45.9681C13.6689 45.9279 13.6472 45.892 13.6155 45.867C13.5838 45.842 13.5442 45.8297 13.5042 45.8324C13.4642 45.8351 13.4266 45.8527 13.3984 45.8817C13.3703 45.9108 13.3535 45.9493 13.3514 45.9901C13.1347 49.3345 13.9362 52.7704 15.1524 55.8626C16.2293 58.5955 18.3894 62.3214 21.2147 63.4593C21.3081 63.4922 21.4095 63.4928 21.5032 63.4611C21.597 63.4293 21.6778 63.3669 21.7331 63.2835C21.7885 63.2002 21.8153 63.1006 21.8094 63.0001C21.8036 62.8997 21.7653 62.804 21.7006 62.728Z" fill="black"/>
<path d="M32.0304 66.2678C30.8514 65.4136 29.4681 64.8431 28.2581 64.0172C26.8026 63.0028 25.4772 61.8073 24.3125 60.4585C23.1946 59.1886 22.2854 57.7431 21.6202 56.1778C20.8249 54.3023 20.5804 52.1778 20.0017 50.2266C19.9429 50.028 19.6397 50.0847 19.6923 50.2928C20.5742 54.0754 20.8991 57.5427 23.2634 60.7422C24.3025 62.096 25.5115 63.3052 26.8593 64.3387C28.2179 65.4262 29.923 66.6745 31.6312 67.0843C31.7347 67.12 31.8474 67.1164 31.9485 67.074C32.0496 67.0316 32.1321 66.9533 32.1808 66.8536C32.2296 66.754 32.2412 66.6397 32.2135 66.532C32.1858 66.4243 32.1208 66.3304 32.0304 66.2678Z" fill="black"/>
<path d="M36.7836 67.8313C35.9543 67.1094 34.9981 66.6051 34.1935 65.8108C33.1949 64.7909 32.2742 63.695 31.4393 62.5325C29.499 59.9163 28.3694 57.2086 28.1064 53.9051C28.1064 53.7317 27.8155 53.757 27.7969 53.924C27.6582 57.1296 28.5825 60.2895 30.4212 62.895C31.3785 64.3066 32.4577 65.6284 33.6457 66.8447C34.3699 67.5823 35.3911 68.6603 36.4711 68.7359C36.5798 68.7488 36.6896 68.7235 36.7824 68.6644C36.8752 68.6053 36.9456 68.5159 36.9819 68.4107C37.0182 68.3055 37.0184 68.1909 36.9824 68.0856C36.9464 67.9803 36.8763 67.8907 36.7836 67.8313Z" fill="black"/>
<path d="M41.7165 68.5783C38.758 65.1109 38.0463 61.0762 36.7868 56.8145C36.7689 56.7573 36.7309 56.7089 36.6801 56.6785C36.6292 56.6482 36.5692 56.6381 36.5115 56.6503C36.4538 56.6624 36.4025 56.6959 36.3677 56.7443C36.3328 56.7927 36.3167 56.8525 36.3226 56.9122C36.8054 61.2968 38.0401 65.9242 40.8809 69.3411C41.3482 69.9022 42.193 69.1267 41.7165 68.5783Z" fill="black"/>
<path d="M46.0148 58.2899C46.0004 58.2606 45.9753 58.2384 45.9448 58.228C45.9143 58.2177 45.8811 58.2201 45.8523 58.2347C45.8236 58.2493 45.8018 58.275 45.7916 58.306C45.7815 58.3371 45.7838 58.3709 45.7982 58.4002C47.1289 61.6091 47.2155 65.6154 46.4171 68.963C46.2933 69.48 47.036 69.7542 47.1969 69.231C48.2677 65.7195 47.6642 61.5114 46.0148 58.2899Z" fill="black"/>
<path d="M53.7049 56.2944C53.6908 56.244 53.6587 56.2009 53.6148 56.1737C53.5709 56.1465 53.5185 56.1371 53.4681 56.1474C53.4177 56.1578 53.373 56.1871 53.3429 56.2295C53.3128 56.2719 53.2995 56.3244 53.3057 56.3763C54.2001 60.077 54.2341 65.0889 51.9534 68.2883C51.6099 68.7674 52.3402 69.4231 52.7301 68.9723C55.3884 65.8927 54.6859 59.9288 53.7049 56.2944Z" fill="black"/>
<path d="M60.2654 54.8949C60.192 55.7754 60.2169 56.6616 60.3396 57.5364C60.4882 59.0463 60.1602 60.5972 59.8259 62.0629C59.3122 64.3135 58.3189 66.457 57.3503 68.5374C57.0408 69.1993 58.1022 69.5555 58.4024 68.903C59.3865 66.769 60.3149 64.5846 60.7729 62.2615C61.2773 59.6862 60.6274 57.4765 60.4634 54.9138C60.4559 54.8943 60.4432 54.8772 60.4267 54.8646C60.4102 54.852 60.3906 54.8443 60.3701 54.8423C60.3496 54.8403 60.3289 54.8442 60.3104 54.8535C60.2919 54.8628 60.2763 54.8771 60.2654 54.8949Z" fill="black"/>
<path d="M66.5072 52.8714C66.4881 52.8493 66.4648 52.8314 66.4388 52.8187C66.4128 52.806 66.3845 52.7986 66.3557 52.7972C66.3269 52.7957 66.2981 52.8001 66.2709 52.8101C66.2438 52.8202 66.2189 52.8356 66.1977 52.8556C66.096 52.9531 66.0277 53.0813 66.0028 53.2213C65.9945 53.2417 65.9909 53.2638 65.9925 53.2859C65.9941 53.3079 66.0007 53.3293 66.0118 53.3483C66.023 53.3673 66.0383 53.3833 66.0566 53.3952C66.0749 53.4071 66.0957 53.4144 66.1173 53.4167C66.1173 53.4388 66.1173 53.4608 66.1173 53.486C66.1049 53.6962 66.0946 53.8969 66.0863 54.0881C66.0678 54.5262 66.1173 54.9581 66.1327 55.3962C66.2282 56.8102 66.1742 58.2305 65.9718 59.6327C65.4612 62.621 64.1151 65.045 62.28 67.4154C61.8529 67.967 62.7411 68.5501 63.1681 68.0143C65.1251 65.6362 66.3843 62.7444 66.8012 59.6706C66.9827 58.0629 67.0014 56.4404 66.8569 54.8289C66.8012 54.3119 66.928 53.2875 66.5072 52.8714Z" fill="black"/>
<path d="M72.4891 50.586C72.4639 50.562 72.4314 50.5474 72.397 50.5446C72.3626 50.5419 72.3283 50.5513 72.2997 50.5711C72.2712 50.591 72.2502 50.6202 72.2402 50.6538C72.2302 50.6875 72.2317 50.7236 72.2446 50.7562C74.2716 55.5097 71.2018 60.9314 69.5214 65.3349C69.2398 66.0757 70.4002 66.476 70.6664 65.7289C71.6257 63.0528 72.65 60.4333 73.2194 57.6311C73.6774 55.3773 74.0024 52.5057 72.4891 50.586Z" fill="black"/>
<path d="M78.4276 47.6734C78.3626 47.5442 78.1336 47.6135 78.1832 47.7617C79.7583 52.3985 80.4051 56.9439 78.0841 61.4735C77.7097 62.2048 78.7587 62.9235 79.1425 62.1859C81.6151 57.4073 80.8228 52.3134 78.4276 47.6734Z" fill="black"/>
<path d="M87.111 45.0414C85.8113 41.4038 82.3887 39.8309 80.1668 36.9088C79.9811 36.6629 79.5478 36.9593 79.7242 37.224C81.4263 39.7647 83.9143 41.574 85.4183 44.288C87.111 47.3424 87.2967 51.8531 86.3467 55.1377C86.0929 56.014 87.4081 56.471 87.665 55.5947C88.6893 52.0675 88.3334 48.4614 87.111 45.0414Z" fill="black"/>
<path d="M9.70593 54.233C8.80541 53.3882 8.03176 52.6979 7.44998 51.5662C6.90744 50.3906 6.55926 49.1317 6.41948 47.8404C6.06979 45.4448 6.30498 43.0208 6.49375 40.6252C6.49636 40.6076 6.49228 40.5898 6.48236 40.5752C6.47243 40.5606 6.45742 40.5505 6.44039 40.5469C6.42335 40.5433 6.4056 40.5464 6.39078 40.5557C6.37596 40.565 6.36519 40.5797 6.36068 40.5968C5.77732 43.1309 5.67231 45.7549 6.05122 48.329C6.36068 50.504 7.32 53.5931 9.54502 54.4662C9.57524 54.4803 9.60935 54.4831 9.64142 54.4743C9.67349 54.4654 9.7015 54.4454 9.72061 54.4177C9.73971 54.39 9.74871 54.3564 9.74603 54.3226C9.74335 54.2889 9.72916 54.2572 9.70593 54.233Z" fill="black"/>
<path d="M16.8916 59.3552C15.1463 57.6625 13.7413 56.0991 12.7232 53.8264C11.6277 51.3835 11.2935 48.7419 11.213 46.0878C11.213 46.0577 11.2013 46.0289 11.1804 46.0076C11.1595 45.9863 11.1312 45.9744 11.1016 45.9744C11.0721 45.9744 11.0437 45.9863 11.0229 46.0076C11.002 46.0289 10.9902 46.0577 10.9902 46.0878C10.3992 50.6521 12.4663 57.3 16.6317 59.6736C16.8204 59.765 17.0649 59.5223 16.8916 59.3552Z" fill="black"/>
<path d="M24.5693 63.9668C22.858 61.9873 21.0012 60.3009 19.7634 57.9336C18.442 55.4277 18.1326 52.6128 17.7365 49.8484C17.7263 49.8066 17.702 49.7698 17.6678 49.7445C17.6337 49.7191 17.5918 49.7069 17.5497 49.7099C17.5075 49.7129 17.4677 49.731 17.4374 49.7609C17.407 49.7909 17.388 49.8308 17.3837 49.8736C17.5075 55.5475 19.8315 60.7958 24.3032 64.2978C24.3468 64.3187 24.396 64.3241 24.4431 64.3132C24.4901 64.3024 24.5322 64.2758 24.5627 64.2379C24.5933 64.1999 24.6105 64.1526 24.6117 64.1035C24.6129 64.0544 24.598 64.0063 24.5693 63.9668Z" fill="black"/>
<path d="M32.3893 66.6368C31.3805 65.9149 30.3438 65.3759 29.4154 64.528C28.4075 63.5524 27.5462 62.4308 26.8593 61.1993C25.6426 59.0519 24.8785 56.6697 24.6157 54.2047C24.6157 54.1822 24.6069 54.1605 24.5912 54.1445C24.5756 54.1286 24.5543 54.1196 24.5322 54.1196C24.51 54.1196 24.4887 54.1286 24.4731 54.1445C24.4574 54.1605 24.4486 54.1822 24.4486 54.2047C24.6008 56.8663 25.3902 59.4495 26.7479 61.7289C27.9022 63.7683 29.9353 66.29 32.2655 66.8921C32.2974 66.901 32.3314 66.8984 32.3616 66.8846C32.3918 66.8708 32.4163 66.8467 32.4309 66.8165C32.4456 66.7863 32.4494 66.7518 32.4418 66.719C32.4342 66.6862 32.4157 66.6571 32.3893 66.6368Z" fill="black"/>
<path d="M39.8782 68.2885C38.0214 66.9425 36.3968 65.8928 35.1899 63.8156C34.0263 61.814 33.7354 59.557 33.6704 57.278C33.6704 57.2479 33.6587 57.2191 33.6378 57.1978C33.6169 57.1765 33.5886 57.1646 33.559 57.1646C33.5295 57.1646 33.5012 57.1765 33.4803 57.1978C33.4594 57.2191 33.4476 57.2479 33.4476 57.278C32.937 61.5177 35.391 67.3081 39.7513 68.5658C39.7874 68.583 39.8287 68.5848 39.8662 68.5709C39.9036 68.557 39.9341 68.5286 39.9509 68.4918C39.9677 68.455 39.9695 68.4129 39.9559 68.3748C39.9423 68.3367 39.9143 68.3056 39.8782 68.2885Z" fill="black"/>
<path d="M41.8959 58.5168C41.8863 58.5007 41.8715 58.4884 41.8541 58.4821C41.8367 58.4757 41.8176 58.4757 41.8002 58.482C41.7827 58.4883 41.768 58.5005 41.7583 58.5166C41.7487 58.5327 41.7448 58.5517 41.7473 58.5704C42.2482 60.3343 42.6613 62.1228 42.9852 63.929C43.3287 65.9527 43.177 67.8219 43.078 69.8393C43.078 69.8772 43.0909 69.9139 43.1145 69.9432C43.1381 69.9725 43.1709 69.9926 43.2074 70C43.2438 70.0075 43.2817 70.0018 43.3146 69.984C43.3474 69.9662 43.3732 69.9373 43.3875 69.9024C44.5665 66.3751 43.109 61.8234 41.8959 58.5168Z" fill="black"/>
<path d="M49.1899 56.9912C49.1774 56.9684 49.1568 56.9514 49.1323 56.9438C49.1078 56.9362 49.0813 56.9386 49.0585 56.9504C49.0357 56.9623 49.0183 56.9826 49.0099 57.0073C49.0015 57.0319 49.0028 57.0589 49.0135 57.0826C50.468 60.5184 51.7398 65.502 49.4127 68.8212C49.3807 68.8709 49.3694 68.9316 49.3813 68.9898C49.3932 69.048 49.4273 69.0991 49.4761 69.1317C49.525 69.1643 49.5845 69.1758 49.6417 69.1637C49.6989 69.1515 49.749 69.1168 49.781 69.067C52.2319 65.6343 50.9012 60.4648 49.1899 56.9912Z" fill="black"/>
<path d="M79.9068 32.9277C79.7861 32.8835 79.6871 33.0758 79.8047 33.1389C82.6424 34.6456 85.2976 36.2059 87.4081 38.715C89.6176 41.3439 90.5553 44.5212 91.4311 47.79C91.4374 47.8217 91.4497 47.8518 91.4675 47.8786C91.4852 47.9054 91.5079 47.9284 91.5343 47.9462C91.5608 47.9641 91.5904 47.9765 91.6215 47.9826C91.6527 47.9888 91.6847 47.9887 91.7158 47.9823C91.7469 47.9759 91.7764 47.9633 91.8027 47.9452C91.829 47.9272 91.8516 47.9041 91.8691 47.8771C91.8867 47.8502 91.8988 47.82 91.9049 47.7883C91.911 47.7566 91.9108 47.724 91.9045 47.6923C91.4015 44.3565 90.0203 41.222 87.9076 38.6221C85.795 36.0223 83.03 34.0543 79.9068 32.9277Z" fill="black"/>
<path d="M80.4174 43.8435C80.4071 43.8303 80.3925 43.8212 80.3764 43.8177C80.3602 43.8142 80.3433 43.8166 80.3286 43.8245C80.314 43.8323 80.3024 43.8451 80.296 43.8607C80.2897 43.8762 80.2888 43.8935 80.2936 43.9097C81.222 46.3557 82.6919 48.4582 83.0787 51.106C83.5429 54.1699 82.6671 57.322 81.7388 60.2C81.7231 60.2566 81.7294 60.3172 81.7563 60.3693C81.7832 60.4214 81.8287 60.461 81.8834 60.48C81.9381 60.499 81.9979 60.4959 82.0504 60.4714C82.1029 60.4468 82.1442 60.4027 82.1658 60.3481C83.1499 57.5648 83.874 54.5103 83.5739 51.5221C83.3046 48.6883 81.8378 46.2486 80.4174 43.8435Z" fill="black"/>
<path d="M75.7383 49.5582C75.7314 49.5244 75.7115 49.4947 75.683 49.4758C75.6546 49.4569 75.6199 49.4503 75.5867 49.4574C75.5535 49.4645 75.5243 49.4848 75.5058 49.5137C75.4872 49.5427 75.4807 49.578 75.4877 49.6118C76.2427 54.4914 76.2242 59.3425 73.3895 63.5821C73.3555 63.6419 73.3452 63.7125 73.3606 63.7798C73.376 63.847 73.4161 63.9057 73.4725 63.9439C73.529 63.9821 73.5976 63.9969 73.6644 63.9853C73.7312 63.9738 73.7912 63.9366 73.8321 63.8816C76.5274 59.8027 77.2144 54.2392 75.7383 49.5582Z" fill="black"/>
<path d="M23.0684 28.3097C22.14 29.6147 21.6542 31.1876 21.3571 32.7542C21.3566 32.7844 21.3665 32.8138 21.3851 32.8373C21.4037 32.8607 21.4297 32.8769 21.4587 32.8829C21.4878 32.8888 21.5179 32.8843 21.544 32.87C21.5701 32.8557 21.5904 32.8326 21.6015 32.8047C21.9239 31.2666 22.454 29.7815 23.1767 28.3917C23.1874 28.3771 23.1919 28.3587 23.1893 28.3407C23.1867 28.3226 23.1771 28.3064 23.1628 28.2955C23.1484 28.2847 23.1304 28.2801 23.1127 28.2827C23.095 28.2854 23.079 28.2951 23.0684 28.3097Z" fill="black"/>
<path d="M42.7284 27.6162C39.4852 30.2483 38.2598 35.7487 38.1545 39.7677C38.1545 39.797 38.166 39.8251 38.1863 39.8457C38.2066 39.8664 38.2341 39.8781 38.2629 39.8781C38.2916 39.8781 38.3191 39.8664 38.3394 39.8457C38.3598 39.8251 38.3712 39.797 38.3712 39.7677C38.9189 35.4619 39.8102 30.9827 42.8398 27.7297C42.8472 27.7138 42.8496 27.696 42.8467 27.6786C42.8438 27.6613 42.8357 27.6453 42.8234 27.6328C42.8112 27.6204 42.7955 27.6121 42.7785 27.6091C42.7615 27.6062 42.7439 27.6086 42.7284 27.6162Z" fill="black"/>
<path d="M78.6164 29.6304C75.8591 29.6745 73.1265 31.4555 71.0903 33.2112C68.5466 35.4177 66.532 38.1948 64.2977 40.6976C64.211 40.7953 64.3379 40.9466 64.4338 40.852C66.4979 38.7905 68.3114 36.4863 70.4064 34.4563C71.4553 33.4369 72.6162 32.5441 73.8662 31.7959C75.3825 30.8912 77.0072 30.6296 78.6504 30.1095C78.8856 30.0402 78.9042 29.6272 78.6164 29.6304Z" fill="black"/>
<path d="M51.4118 25.8637C46.151 27.7549 45.2072 35.692 42.8862 40.0483C42.8735 40.068 42.869 40.0919 42.8736 40.115C42.8782 40.138 42.8917 40.1583 42.911 40.1712C42.9303 40.1842 42.9538 40.1888 42.9764 40.1841C42.9991 40.1794 43.0189 40.1657 43.0317 40.146C44.579 38.0278 45.334 35.443 46.315 33.0316C46.8314 31.7173 47.4861 30.4638 48.2677 29.2932C49.1961 27.9472 50.3813 27.175 51.6718 26.2671C51.9131 26.0875 51.6377 25.7849 51.4118 25.8637Z" fill="black"/>
<path d="M30.8637 26.7021C29.0861 28.1953 27.7032 30.1176 26.8408 32.294C25.9124 34.6991 26.0609 37.4446 24.4703 39.5786C24.4606 39.5982 24.4576 39.6206 24.4619 39.6421C24.4661 39.6637 24.4774 39.6831 24.4939 39.6973C24.5103 39.7115 24.531 39.7197 24.5525 39.7205C24.5741 39.7212 24.5953 39.7146 24.6127 39.7016C26.0578 38.1917 26.3673 36.0829 26.8315 34.1033C27.5061 31.2223 29.0998 29.0599 31.232 27.115C31.2771 27.0633 31.3019 26.9964 31.3015 26.9272C31.3011 26.858 31.2756 26.7913 31.2299 26.7401C31.1843 26.6889 31.1216 26.6567 31.054 26.6496C30.9864 26.6426 30.9186 26.6613 30.8637 26.7021Z" fill="black"/>
<path d="M16.6286 28.7006C14.3041 30.0064 12.4224 31.9988 11.2317 34.4155C11.2262 34.4237 11.2223 34.433 11.2204 34.4428C11.2184 34.4526 11.2184 34.4627 11.2202 34.4725C11.2221 34.4823 11.2259 34.4916 11.2313 34.5C11.2367 34.5083 11.2436 34.5155 11.2518 34.5211C11.2599 34.5267 11.269 34.5306 11.2786 34.5325C11.2882 34.5345 11.2981 34.5346 11.3078 34.5327C11.3174 34.5308 11.3266 34.527 11.3347 34.5214C11.3429 34.5159 11.35 34.5089 11.3554 34.5006C12.071 33.4269 12.8655 32.41 13.7321 31.4587C14.6605 30.5131 15.7436 29.7534 16.7833 28.937C16.8141 28.9161 16.8355 28.8836 16.8427 28.8467C16.85 28.8097 16.8426 28.7714 16.822 28.74C16.8015 28.7087 16.7696 28.6869 16.7333 28.6795C16.6971 28.6721 16.6594 28.6797 16.6286 28.7006Z" fill="black"/>
<path d="M18.6895 29.5421C16.7399 30.4531 14.9234 32.4736 14.4128 34.6203C14.4106 34.6396 14.4149 34.6591 14.4251 34.6756C14.4353 34.6921 14.4508 34.7045 14.4689 34.7108C14.487 34.7171 14.5067 34.7168 14.5246 34.7101C14.5426 34.7034 14.5577 34.6906 14.5675 34.6738C15.5145 32.5272 16.9318 31.1182 18.8288 29.8227C18.8623 29.8022 18.8869 29.7695 18.8977 29.7313C18.9085 29.693 18.9047 29.652 18.8871 29.6165C18.8695 29.581 18.8393 29.5536 18.8027 29.5398C18.766 29.526 18.7256 29.5268 18.6895 29.5421Z" fill="black"/>
<path d="M33.6148 27.301C29.858 29.8038 28.2612 34.2988 27.4628 38.5857C27.4628 38.6267 27.5216 38.6393 27.5339 38.5857C28.0372 36.4901 28.7528 34.4534 29.6692 32.5084C30.6688 30.5036 32.1758 29.041 33.7819 27.528C33.8933 27.4334 33.7572 27.2033 33.6148 27.301Z" fill="black"/>
<path d="M37.7461 27.7517C34.1439 28.918 31.8292 33.0252 30.579 36.4106C30.5754 36.4265 30.5771 36.4431 30.5839 36.4579C30.5907 36.4726 30.6022 36.4845 30.6165 36.4918C30.6308 36.4991 30.6471 36.5013 30.6627 36.498C30.6784 36.4947 30.6925 36.4861 30.7028 36.4737C32.5255 32.9716 34.2646 29.8889 37.8203 27.9787C37.9379 27.9156 37.876 27.7076 37.7461 27.7517Z" fill="black"/>
<path d="M53.7792 25.7975C49.3725 26.6833 47.4353 33.1799 46.4945 36.9593C46.4896 36.9735 46.4904 36.9891 46.4968 37.0027C46.5032 37.0163 46.5146 37.0268 46.5286 37.0318C46.5425 37.0368 46.5578 37.0359 46.5712 37.0294C46.5845 37.0229 46.5948 37.0113 46.5997 36.9971C47.9304 33.0821 49.5025 27.5722 53.8689 26.2514C53.928 26.2393 53.98 26.2038 54.0133 26.1526C54.0467 26.1015 54.0588 26.039 54.0469 25.9788C54.035 25.9186 54.0001 25.8657 53.9499 25.8317C53.8997 25.7977 53.8383 25.7854 53.7792 25.7975Z" fill="black"/>
<path d="M57.4029 26.2135C54.0453 27.6383 50.8238 31.153 50.2853 34.8977C50.2843 34.9107 50.2879 34.9237 50.2955 34.9342C50.3032 34.9446 50.3143 34.9519 50.3268 34.9546C50.3394 34.9573 50.3525 34.9553 50.3636 34.9489C50.3748 34.9425 50.3833 34.9321 50.3875 34.9198C51.418 31.1593 54.2681 28.3349 57.5236 26.4657C57.5511 26.4465 57.5708 26.4178 57.5793 26.385C57.5878 26.3521 57.5844 26.3172 57.5698 26.2867C57.5552 26.2562 57.5303 26.232 57.4997 26.2186C57.4691 26.2052 57.4347 26.2034 57.4029 26.2135Z" fill="black"/>
</svg>
