<svg width="96" height="96" viewBox="0 0 96 96" fill="none" xmlns="http://www.w3.org/2000/svg">
<path d="M30.907 39.5254C30.8448 39.4883 30.7706 39.4779 30.7009 39.4966C30.6311 39.5152 30.5715 39.5613 30.5351 39.6248C30.4987 39.6883 30.4885 39.7639 30.5067 39.835C30.525 39.9061 30.5703 39.9669 30.6325 40.0041C38.0283 45.3746 45.9929 52.2581 47.3416 61.9079C41.0478 56.9633 33.9704 53.1788 27.7323 48.1491C22.5008 43.9305 16.1951 39.2009 13.9155 32.5527C13.7763 32.1471 13.0761 32.1836 13.1198 32.6582C13.9155 38.7791 20.3644 44.1212 24.7724 47.7029C32.0448 53.6088 39.8901 58.3668 47.7036 63.4818C47.7794 63.5255 47.865 63.5483 47.952 63.548C48.0391 63.5477 48.1245 63.5242 48.2 63.48C48.2755 63.4358 48.3384 63.3724 48.3825 63.2958C48.4266 63.2193 48.4504 63.1324 48.4516 63.0437C47.5604 53.0004 39.3372 44.105 30.907 39.5254Z" fill="black"/>
<path d="M45.8338 26.3181C45.761 26.2746 45.6742 26.2623 45.5925 26.284C45.5108 26.3056 45.4409 26.3595 45.3982 26.4337C45.3554 26.508 45.3434 26.5965 45.3646 26.6798C45.3859 26.7631 45.4388 26.8343 45.5116 26.8779C50.0548 30.3339 54.2639 33.5018 57.2716 38.5235C59.7739 42.7014 60.8521 47.4878 61.1266 52.3148C60.2786 49.8172 59.1393 47.4326 57.7331 45.2123C55.7878 42.3375 53.3818 39.8171 50.6158 37.7568C46.7966 34.8525 43.228 31.6724 39.5599 28.5897C36.0471 25.6245 31.9175 23.2273 28.6513 19.9944C28.5986 19.9406 28.527 19.9104 28.4524 19.9104C28.3778 19.9104 28.3062 19.9406 28.2535 19.9944C28.2007 20.0482 28.1711 20.1212 28.1711 20.1972C28.1711 20.2733 28.2007 20.3462 28.2535 20.4C30.6842 23.5883 34.1375 25.8557 37.1809 28.3828C40.5426 31.1776 43.7094 34.2157 47.1586 36.901C50.1543 39.2293 53.0505 41.4278 55.4654 44.4051C57.9021 47.5188 59.8409 51.0056 61.2101 54.7364C61.2329 54.8258 61.287 54.9035 61.3622 54.9549C61.4375 55.0063 61.5286 55.0278 61.6183 55.0153C61.708 55.0028 61.7902 54.9572 61.8491 54.8871C61.9081 54.817 61.9397 54.7273 61.9382 54.635C61.7989 42.815 56.2929 31.9929 45.8338 26.3181Z" fill="black"/>
<path d="M61.4408 17.1266C60.9754 16.9238 60.5656 17.581 61.043 17.8365C68.0131 21.6494 77.0678 27.1659 76.3119 36.0451C73.9806 30.8612 67.8181 26.8049 63.3186 24.4077C63.2763 24.3874 63.228 24.384 63.1833 24.3982C63.1387 24.4125 63.1009 24.4433 63.0774 24.4845C63.0539 24.5258 63.0464 24.5745 63.0565 24.6211C63.0665 24.6677 63.0933 24.7088 63.1316 24.7362C65.6239 26.5959 68.0145 28.5932 70.2927 30.7192C72.62 32.9056 75.2736 35.6314 75.8624 38.9291C75.9777 39.6025 76.9524 39.5254 77.1195 38.9291C80.155 28.0218 70.0022 20.8828 61.4408 17.1266Z" fill="black"/>
<path d="M51.304 8H50.9738C50.9675 8 50.9614 8.00256 50.9569 8.00713C50.9525 8.01169 50.95 8.01788 50.95 8.02434C50.95 8.03079 50.9525 8.03698 50.9569 8.04155C50.9614 8.04611 50.9675 8.04867 50.9738 8.04867H51.304C51.3104 8.04867 51.3164 8.04611 51.3209 8.04155C51.3254 8.03698 51.3279 8.03079 51.3279 8.02434C51.3279 8.01788 51.3254 8.01169 51.3209 8.00713C51.3164 8.00256 51.3104 8 51.304 8Z" fill="black"/>
<path d="M81.7981 20.4243C78.974 16.9836 75.2798 14.3968 71.1162 12.9446C68.0767 11.8534 64.6076 11.4153 61.4369 10.8475C58.4147 10.3327 55.3451 10.1681 52.2867 10.3567C52.1967 10.3663 52.1134 10.4095 52.0528 10.478C51.9923 10.5466 51.9588 10.6356 51.9588 10.7278C51.9588 10.8201 51.9923 10.909 52.0528 10.9776C52.1134 11.0461 52.1967 11.0894 52.2867 11.099C56.1006 11.4265 59.8911 11.9928 63.6369 12.7945C67.3248 13.5287 70.9571 14.2101 74.3228 15.9827C79.3514 18.6315 83.473 24.1886 86.0151 29.194C87.1853 31.4957 88.033 33.9534 88.5334 36.4953C86.8267 33.8547 84.3641 31.5385 82.3789 29.6848C82.0447 29.3725 81.4162 29.8024 81.7225 30.204C83.1746 32.1226 84.5909 34.0453 85.9435 36.0329C87.686 38.5924 87.9566 41.229 88.9432 44.044C88.9776 44.1368 89.0289 44.2221 89.0944 44.2955C89.0413 45.3772 88.9379 46.4697 88.7841 47.573C87.6821 43.8534 85.2036 40.3122 83.4451 37.197C83.3881 37.0975 83.2947 37.0252 83.1854 36.9959C83.0761 36.9666 82.9599 36.9828 82.8623 37.0409C82.7647 37.099 82.6937 37.1942 82.665 37.3056C82.6363 37.4171 82.6521 37.5356 82.7091 37.6351C83.9663 40.1865 85.2871 42.6771 86.2578 45.3623C87.1808 47.9218 87.2246 50.457 87.5746 53.1057C87.2431 54.2253 86.8652 55.3286 86.4408 56.4157C86.1544 51.8442 84.1294 47.0862 82.3749 43.322C82.3332 43.2521 82.2682 43.1999 82.1918 43.1748C82.1154 43.1497 82.0327 43.1536 81.9588 43.1856C81.8849 43.2176 81.8248 43.2756 81.7895 43.3491C81.7541 43.4225 81.7459 43.5065 81.7663 43.5857C82.6813 46.2912 83.6798 48.9318 84.3124 51.7307C85.1081 55.3286 84.4079 58.9468 83.5167 62.4189C82.9717 63.3478 82.3988 64.2483 81.7941 65.1204C71.5419 79.869 51.4552 87.6409 34.0141 83.9618C31.3009 79.6622 30.5927 74.896 30.3739 69.8298C30.3739 69.7523 30.3437 69.678 30.29 69.6232C30.2363 69.5685 30.1634 69.5377 30.0875 69.5377C30.0115 69.5377 29.9387 69.5685 29.8849 69.6232C29.8312 69.678 29.801 69.7523 29.801 69.8298C29.622 74.6973 29.801 79.2119 31.9016 83.4588C31.1497 83.256 30.4057 83.0532 29.6658 82.7977V82.7733C24.5576 76.8309 21.4147 70.353 20.7662 62.4068C20.7662 62.3352 20.7383 62.2666 20.6887 62.216C20.6391 62.1655 20.5718 62.137 20.5016 62.137C20.4315 62.137 20.3642 62.1655 20.3146 62.216C20.265 62.2666 20.2371 62.3352 20.2371 62.4068C20.3485 69.5499 22.2621 76.0886 26.5627 81.5646C24.2433 80.5565 22.0328 79.3059 19.9666 77.8328C20.0212 77.6805 20.0353 77.5162 20.0073 77.3566C19.9794 77.197 19.9104 77.0478 19.8074 76.9242C15.3556 71.4239 15.3278 63.4371 15.4989 56.6469C15.4989 56.5694 15.4687 56.4951 15.415 56.4404C15.3613 56.3856 15.2884 56.3548 15.2124 56.3548C15.1365 56.3548 15.0636 56.3856 15.0099 56.4404C14.9562 56.4951 14.926 56.5694 14.926 56.6469C14.4605 62.7313 13.8916 69.4931 16.5611 75.0542C14.3311 72.9288 12.4352 70.4662 10.9397 67.7529C11.0211 67.5888 11.0437 67.4008 11.0033 67.2216C10.327 64.1469 9.89337 61.5387 10.327 58.3627C10.6453 56.1074 11.2182 53.8643 11.0312 51.5806C11.0319 51.5456 11.0199 51.5116 10.9975 51.4851C10.9752 51.4586 10.944 51.4414 10.91 51.4369C10.876 51.4323 10.8415 51.4408 10.8132 51.4606C10.7849 51.4804 10.7648 51.5101 10.7567 51.5441C9.63876 54.5254 8.45718 58.2694 8.34579 61.8348C5.61266 53.4708 5.91104 43.9548 8.70384 35.5705C11.3494 27.6202 16.4576 21.2031 23.2328 16.506C30.175 11.6952 38.0362 9.67115 46.3072 9.20468C46.4902 9.20468 46.5499 8.8964 46.351 8.86395C35.3906 6.92911 23.3203 13.4759 15.7853 21.2275C8.11505 29.121 4.61808 40.8558 5.04376 51.7915C5.46945 62.7272 10.4304 73.1235 19.1828 79.5364C28.0545 86.0467 39.6156 88.0749 50.2975 86.4686C69.6402 83.5602 88.3385 69.0631 90.7613 48.3396C91.9906 37.8501 88.3942 28.3219 81.7981 20.4243Z" fill="black"/>
<path d="M37.3002 50.2583C27.3544 47.3784 21.5579 38.7061 13.8041 32.4513C13.5734 32.2647 13.2432 32.5851 13.4739 32.7879C17.4164 36.1952 20.9214 40.0892 24.7923 43.5736C28.2972 46.7294 32.4506 49.9379 37.1849 50.6761C37.2392 50.6917 37.2974 50.6847 37.3466 50.6565C37.3959 50.6284 37.4321 50.5814 37.4474 50.526C37.4627 50.4706 37.4558 50.4113 37.4282 50.3611C37.4006 50.3109 37.3546 50.2739 37.3002 50.2583Z" fill="black"/>
<path d="M51.7297 35.9681C47.6082 31.5062 43.6576 26.4804 38.633 23.0488C38.6075 23.0365 38.5787 23.0334 38.5513 23.0401C38.5239 23.0468 38.4995 23.0628 38.4823 23.0856C38.4651 23.1084 38.4561 23.1365 38.4567 23.1652C38.4573 23.1939 38.4676 23.2216 38.4858 23.2435C43.2121 27.1781 46.7846 32.2809 51.4035 36.3007C51.4471 36.343 51.5052 36.3663 51.5654 36.3656C51.6257 36.3648 51.6832 36.3401 51.7258 36.2967C51.7684 36.2532 51.7926 36.1946 51.7934 36.1332C51.7941 36.0718 51.7713 36.0125 51.7297 35.9681Z" fill="black"/>
<path d="M23.7699 15.0418C23.7937 14.985 23.6983 14.9444 23.6744 15.0012C21.7727 19.167 19.6523 23.4545 21.4863 28.0381C21.542 28.176 21.7568 28.1233 21.7091 27.9772C20.2053 23.3369 22.0274 19.309 23.7699 15.0418Z" fill="black"/>
<path d="M28.6672 11.9712C26.2006 14.5631 25.0867 18.011 24.6411 21.5277C24.6411 21.6859 24.8838 21.7224 24.9156 21.5643C25.6158 18.0637 26.7337 14.985 28.8701 12.1294C28.9616 12.0117 28.7667 11.8657 28.6672 11.9712Z" fill="black"/>
<path d="M38.0163 9.27778C35.1519 10.4298 33.4372 13.6869 32.8723 16.6277C32.8688 16.6596 32.8765 16.6916 32.8942 16.7181C32.9118 16.7446 32.9382 16.7637 32.9685 16.7721C32.9989 16.7804 33.0311 16.7774 33.0594 16.7636C33.0878 16.7497 33.1103 16.726 33.1229 16.6967C33.8152 13.7884 35.3588 10.8151 38.08 9.43597C38.0946 9.4239 38.105 9.40733 38.1097 9.38872C38.1144 9.37012 38.1131 9.35048 38.1059 9.33271C38.0988 9.31494 38.0862 9.3 38.07 9.29011C38.0539 9.28021 38.0351 9.27589 38.0163 9.27778Z" fill="black"/>
<path d="M44.3181 9.00195C43.3145 9.84755 42.4871 10.8893 41.8845 12.0659C41.2819 13.2425 40.9163 14.5301 40.8091 15.853C40.811 15.8889 40.8251 15.9229 40.8489 15.9493C40.8728 15.9757 40.905 15.9928 40.9399 15.9976C40.9748 16.0024 41.0102 15.9947 41.0401 15.9757C41.07 15.9567 41.0924 15.9276 41.1035 15.8936C41.4689 13.3338 42.6635 10.9722 44.4971 9.18449C44.5168 9.15955 44.5268 9.12806 44.5252 9.09606C44.5235 9.06406 44.5103 9.03382 44.488 9.01116C44.4658 8.9885 44.4362 8.97503 44.4048 8.97333C44.3734 8.97163 44.3425 8.98182 44.3181 9.00195Z" fill="black"/>
<path d="M33.1389 10.8555C31.4242 12.5632 29.9045 14.4453 29.4151 16.8953C29.4096 16.9308 29.417 16.9672 29.4361 16.9974C29.4552 17.0277 29.4845 17.0497 29.5185 17.0592C29.5525 17.0688 29.5888 17.0652 29.6204 17.0492C29.652 17.0332 29.6766 17.0058 29.6896 16.9724C30.354 14.6563 31.7783 12.8309 33.3935 11.1151C33.4273 11.0807 33.4462 11.034 33.4462 10.9853C33.4462 10.9366 33.4273 10.8899 33.3935 10.8555C33.3597 10.8211 33.3139 10.8018 33.2662 10.8018C33.2184 10.8018 33.1726 10.8211 33.1389 10.8555Z" fill="black"/>
<path d="M20.1297 30.9627C19.2038 28.8343 18.7814 26.514 18.8964 24.1887C19.0117 22.2822 19.692 20.4569 19.7756 18.5586C19.7756 18.518 19.7199 18.514 19.7079 18.5586C18.22 22.6148 17.8739 27.1903 19.8949 31.0722C19.9626 31.1898 20.1853 31.1006 20.1297 30.9627Z" fill="black"/>
<path d="M80.5846 50.1326C80.5705 50.1043 80.5464 50.0824 80.5171 50.0714C80.4878 50.0605 80.4555 50.0612 80.4268 50.0736C80.398 50.0859 80.3749 50.1089 80.3621 50.138C80.3493 50.167 80.3478 50.1999 80.3579 50.23C81.7463 53.9293 81.1138 58.1762 80.2067 61.9121C79.6804 64.0286 78.957 66.0891 78.0465 68.0654C77.3264 69.6474 76.2482 70.9778 75.4725 72.503C75.4398 72.561 75.4289 72.629 75.4418 72.6946C75.4547 72.7601 75.4905 72.8186 75.5425 72.8593C75.5945 72.9 75.6593 72.92 75.7247 72.9156C75.7901 72.9113 75.8517 72.8828 75.8982 72.8356C77.2826 71.6633 78.122 69.5622 78.8501 67.9316C79.7484 65.8724 80.4518 63.7304 80.9507 61.5348C81.798 57.9085 82.2914 53.5764 80.5846 50.1326Z" fill="black"/>
<path d="M8.1071 46.6157C7.00908 49.6174 5.72009 52.8948 5.72009 56.1439C5.72062 56.1967 5.73979 56.2474 5.77409 56.2869C5.80839 56.3264 5.8555 56.3519 5.90678 56.3588C5.95807 56.3657 6.01007 56.3535 6.05324 56.3245C6.09642 56.2954 6.12786 56.2515 6.1418 56.2007C6.78629 52.9557 7.62572 49.9013 8.5487 46.7415C8.55169 46.687 8.53635 46.6331 8.50521 46.5888C8.47407 46.5444 8.42901 46.5123 8.37748 46.4976C8.32596 46.4829 8.27106 46.4866 8.22189 46.5081C8.17272 46.5296 8.13222 46.5676 8.1071 46.6157Z" fill="black"/>
<path d="M30.8474 84.2011C29.9562 82.0107 28.9696 79.8974 28.2853 77.6259C27.4896 74.9447 27.2151 72.1824 27.0361 69.3917C27.0361 69.3545 27.0216 69.3189 26.9959 69.2927C26.9702 69.2665 26.9353 69.2517 26.8989 69.2517C26.8624 69.2517 26.8275 69.2665 26.8018 69.2927C26.7761 69.3189 26.7616 69.3545 26.7616 69.3917C26.6032 74.64 27.8624 79.8318 30.4018 84.3999C30.5371 84.6311 30.9548 84.4648 30.8474 84.2011Z" fill="black"/>
<path d="M24.8719 82.2826C19.9904 77.2203 17.3965 70.0245 18.5065 62.926C18.5065 62.8287 18.3792 62.784 18.3553 62.8854C16.8634 69.6757 19.4494 77.9464 24.7207 82.4691C24.745 82.4774 24.7713 82.4779 24.7959 82.4707C24.8206 82.4635 24.8426 82.4488 24.8589 82.4286C24.8753 82.4084 24.8852 82.3837 24.8876 82.3576C24.8899 82.3316 24.8844 82.3054 24.8719 82.2826Z" fill="black"/>
<path d="M40.5227 86.0631C37.3957 83.4103 35.8919 79.8813 35.1877 75.8656C35.1877 75.8473 35.1806 75.8298 35.1679 75.8168C35.1552 75.8039 35.138 75.7966 35.1201 75.7966C35.1021 75.7966 35.0849 75.8039 35.0722 75.8168C35.0596 75.8298 35.0524 75.8473 35.0524 75.8656C35.5139 79.9219 37.0973 83.7672 40.3596 86.2578C40.3852 86.2666 40.4128 86.2674 40.4388 86.2601C40.4649 86.2527 40.4882 86.2376 40.5057 86.2167C40.5233 86.1957 40.5343 86.1699 40.5373 86.1425C40.5403 86.1151 40.5352 86.0875 40.5227 86.0631Z" fill="black"/>
<path d="M45.5195 85.7994C41.5213 83.897 39.6833 80.2585 37.8373 76.3888C37.8272 76.3752 37.813 76.3654 37.7969 76.3609C37.7808 76.3564 37.7636 76.3575 37.7482 76.364C37.7327 76.3705 37.7198 76.382 37.7114 76.3968C37.7031 76.4116 37.6998 76.4287 37.702 76.4456C39.1104 80.2139 41.2826 84.8137 45.436 85.9941C45.4596 85.9982 45.4839 85.9941 45.505 85.9825C45.526 85.9709 45.5427 85.9524 45.5523 85.93C45.5619 85.9076 45.5639 85.8826 45.558 85.8589C45.552 85.8353 45.5385 85.8143 45.5195 85.7994Z" fill="black"/>
</svg>
